STARTFONT 2.1
COMMENT /*
COMMENT  * Spleen 12x24 2.1.0
COMMENT  * Copyright (c) 2018-2024, Frederic Cambus
COMMENT  * https://www.cambus.net/
COMMENT  *
COMMENT  * Created:      2018-08-15
COMMENT  * Last Updated: 2024-03-22
COMMENT  *
COMMENT  * Spleen is released under the BSD 2-Clause license.
COMMENT  * See LICENSE file for details.
COMMENT  *
COMMENT  * SPDX-License-Identifier: BSD-2-Clause
COMMENT  */
FONT -misc-spleen-medium-r-normal--24-240-72-72-C-120-ISO10646-1
SIZE 24 72 72
FONTBOUNDINGBOX 12 24 0 -5
STARTPROPERTIES 20
FAMILY_NAME "Spleen"
WEIGHT_NAME "Medium"
FONT_VERSION "2.1.0"
FOUNDRY "misc"
SLANT "R"
SETWIDTH_NAME "Normal"
PIXEL_SIZE 24
POINT_SIZE 240
RESOLUTION_X 72
RESOLUTION_Y 72
SPACING "C"
AVERAGE_WIDTH 120
CHARSET_REGISTRY "ISO10646"
CHARSET_ENCODING "1"
MIN_SPACE 12
FONT_ASCENT 19
FONT_DESCENT 5
COPYRIGHT "Copyright (c) 2018-2024, Frederic Cambus"
DEFAULT_CHAR 32
_GBDFED_INFO "Edited with gbdfed 1.6."
ENDPROPERTIES
CHARS 916
STARTCHAR SPACE
ENCODING 32
SWIDTH 500 0
DWIDTH 12 0
BBX 12 24 0 -5
BITMAP
0000
0000
0000
0000
0000
0000
0000
0000
0000
0000
0000
0000
0000
0000
0000
0000
0000
0000
0000
0000
0000
0000
0000
0000
ENDCHAR
STARTCHAR EXCLAMATION MARK
ENCODING 33
SWIDTH 500 0
DWIDTH 12 0
BBX 12 24 0 -5
BITMAP
0000
0000
0000
0000
0600
0600
0600
0600
0600
0600
0600
0600
0600
0600
0600
0000
0000
0600
0600
0000
0000
0000
0000
0000
ENDCHAR
STARTCHAR QUOTATION MARK
ENCODING 34
SWIDTH 500 0
DWIDTH 12 0
BBX 12 24 0 -5
BITMAP
0000
0000
30C0
30C0
30C0
30C0
30C0
30C0
30C0
0000
0000
0000
0000
0000
0000
0000
0000
0000
0000
0000
0000
0000
0000
0000
ENDCHAR
STARTCHAR NUMBER SIGN
ENCODING 35
SWIDTH 500 0
DWIDTH 12 0
BBX 12 24 0 -5
BITMAP
0000
0000
0000
0000
30C0
30C0
30C0
7FE0
30C0
30C0
30C0
30C0
30C0
30C0
30C0
7FE0
30C0
30C0
30C0
0000
0000
0000
0000
0000
ENDCHAR
STARTCHAR DOLLAR SIGN
ENCODING 36
SWIDTH 500 0
DWIDTH 12 0
BBX 12 24 0 -5
BITMAP
0000
0000
0600
0600
1FE0
3600
6600
6600
6600
6600
3600
1F80
06C0
0660
0660
0660
0660
06C0
7F80
0600
0600
0000
0000
0000
ENDCHAR
STARTCHAR PERCENT SIGN
ENCODING 37
SWIDTH 500 0
DWIDTH 12 0
BBX 12 24 0 -5
BITMAP
0000
0000
0000
0000
0000
00C0
38C0
6D80
6D80
3B00
0300
0600
0600
0C00
0DC0
1B60
1B60
31C0
3000
0000
0000
0000
0000
0000
ENDCHAR
STARTCHAR AMPERSAND
ENCODING 38
SWIDTH 500 0
DWIDTH 12 0
BBX 12 24 0 -5
BITMAP
0000
0000
0000
0000
0F00
1980
30C0
30C0
30C0
30C0
1980
0F00
3300
61A0
60E0
60C0
60C0
31E0
1F30
0000
0000
0000
0000
0000
ENDCHAR
STARTCHAR APOSTROPHE
ENCODING 39
SWIDTH 500 0
DWIDTH 12 0
BBX 12 24 0 -5
BITMAP
0000
0000
0600
0600
0600
0600
0600
0600
0600
0000
0000
0000
0000
0000
0000
0000
0000
0000
0000
0000
0000
0000
0000
0000
ENDCHAR
STARTCHAR LEFT PARENTHESIS
ENCODING 40
SWIDTH 500 0
DWIDTH 12 0
BBX 12 24 0 -5
BITMAP
0000
0000
00E0
0180
0300
0600
0C00
0C00
1800
1800
1800
1800
1800
1800
1800
1800
0C00
0C00
0600
0300
0180
00E0
0000
0000
ENDCHAR
STARTCHAR RIGHT PARENTHESIS
ENCODING 41
SWIDTH 500 0
DWIDTH 12 0
BBX 12 24 0 -5
BITMAP
0000
0000
7000
1800
0C00
0600
0300
0300
0180
0180
0180
0180
0180
0180
0180
0180
0300
0300
0600
0C00
1800
7000
0000
0000
ENDCHAR
STARTCHAR ASTERISK
ENCODING 42
SWIDTH 500 0
DWIDTH 12 0
BBX 12 24 0 -5
BITMAP
0000
0000
0000
0000
0000
0000
0000
0000
30C0
1980
0F00
0600
7FE0
0600
0F00
1980
30C0
0000
0000
0000
0000
0000
0000
0000
ENDCHAR
STARTCHAR PLUS SIGN
ENCODING 43
SWIDTH 500 0
DWIDTH 12 0
BBX 12 24 0 -5
BITMAP
0000
0000
0000
0000
0000
0000
0000
0000
0000
0600
0600
0600
3FC0
0600
0600
0600
0000
0000
0000
0000
0000
0000
0000
0000
ENDCHAR
STARTCHAR COMMA
ENCODING 44
SWIDTH 500 0
DWIDTH 12 0
BBX 12 24 0 -5
BITMAP
0000
0000
0000
0000
0000
0000
0000
0000
0000
0000
0000
0000
0000
0000
0000
0000
0600
0600
0600
0C00
1800
0000
0000
0000
ENDCHAR
STARTCHAR HYPHEN-MINUS
ENCODING 45
SWIDTH 500 0
DWIDTH 12 0
BBX 12 24 0 -5
BITMAP
0000
0000
0000
0000
0000
0000
0000
0000
0000
0000
0000
0000
3FC0
0000
0000
0000
0000
0000
0000
0000
0000
0000
0000
0000
ENDCHAR
STARTCHAR FULL STOP
ENCODING 46
SWIDTH 500 0
DWIDTH 12 0
BBX 12 24 0 -5
BITMAP
0000
0000
0000
0000
0000
0000
0000
0000
0000
0000
0000
0000
0000
0000
0000
0000
0000
0600
0600
0000
0000
0000
0000
0000
ENDCHAR
STARTCHAR SOLIDUS
ENCODING 47
SWIDTH 500 0
DWIDTH 12 0
BBX 12 24 0 -5
BITMAP
0000
0000
0030
0030
0060
0060
00C0
00C0
0180
0180
0300
0300
0600
0600
0C00
0C00
1800
1800
3000
3000
6000
6000
0000
0000
ENDCHAR
STARTCHAR DIGIT ZERO
ENCODING 48
SWIDTH 500 0
DWIDTH 12 0
BBX 12 24 0 -5
BITMAP
0000
0000
0000
0000
1F80
30C0
6060
6060
60E0
61E0
6360
6660
6C60
7860
7060
6060
6060
30C0
1F80
0000
0000
0000
0000
0000
ENDCHAR
STARTCHAR DIGIT ONE
ENCODING 49
SWIDTH 500 0
DWIDTH 12 0
BBX 12 24 0 -5
BITMAP
0000
0000
0000
0000
0E00
1E00
3600
2600
0600
0600
0600
0600
0600
0600
0600
0600
0600
0600
3FC0
0000
0000
0000
0000
0000
ENDCHAR
STARTCHAR DIGIT TWO
ENCODING 50
SWIDTH 500 0
DWIDTH 12 0
BBX 12 24 0 -5
BITMAP
0000
0000
0000
0000
1F80
30C0
6060
0060
0060
0060
00C0
0180
0300
0600
0C00
1800
3000
6060
7FE0
0000
0000
0000
0000
0000
ENDCHAR
STARTCHAR DIGIT THREE
ENCODING 51
SWIDTH 500 0
DWIDTH 12 0
BBX 12 24 0 -5
BITMAP
0000
0000
0000
0000
1F80
30C0
6060
0060
0060
00C0
0F80
00C0
0060
0060
0060
0060
6060
30C0
1F80
0000
0000
0000
0000
0000
ENDCHAR
STARTCHAR DIGIT FOUR
ENCODING 52
SWIDTH 500 0
DWIDTH 12 0
BBX 12 24 0 -5
BITMAP
0000
0000
0000
0000
6000
6000
6000
6180
6180
6180
6180
6180
6180
6180
7FE0
0180
0180
0180
0180
0000
0000
0000
0000
0000
ENDCHAR
STARTCHAR DIGIT FIVE
ENCODING 53
SWIDTH 500 0
DWIDTH 12 0
BBX 12 24 0 -5
BITMAP
0000
0000
0000
0000
7FE0
6060
6000
6000
6000
6000
7F80
00C0
0060
0060
0060
0060
6060
30C0
1F80
0000
0000
0000
0000
0000
ENDCHAR
STARTCHAR DIGIT SIX
ENCODING 54
SWIDTH 500 0
DWIDTH 12 0
BBX 12 24 0 -5
BITMAP
0000
0000
0000
0000
1FC0
3060
6000
6000
6000
6000
7F80
60C0
6060
6060
6060
6060
6060
30C0
1F80
0000
0000
0000
0000
0000
ENDCHAR
STARTCHAR DIGIT SEVEN
ENCODING 55
SWIDTH 500 0
DWIDTH 12 0
BBX 12 24 0 -5
BITMAP
0000
0000
0000
0000
7FE0
6060
0060
0060
0060
00C0
0180
0300
0600
0C00
0C00
0C00
0C00
0C00
0C00
0000
0000
0000
0000
0000
ENDCHAR
STARTCHAR DIGIT EIGHT
ENCODING 56
SWIDTH 500 0
DWIDTH 12 0
BBX 12 24 0 -5
BITMAP
0000
0000
0000
0000
1F80
30C0
6060
6060
6060
30C0
1F80
30C0
6060
6060
6060
6060
6060
30C0
1F80
0000
0000
0000
0000
0000
ENDCHAR
STARTCHAR DIGIT NINE
ENCODING 57
SWIDTH 500 0
DWIDTH 12 0
BBX 12 24 0 -5
BITMAP
0000
0000
0000
0000
1F80
30C0
6060
6060
6060
6060
6060
3060
1FE0
0060
0060
0060
0060
60C0
3F80
0000
0000
0000
0000
0000
ENDCHAR
STARTCHAR COLON
ENCODING 58
SWIDTH 500 0
DWIDTH 12 0
BBX 12 24 0 -5
BITMAP
0000
0000
0000
0000
0000
0000
0000
0000
0000
0000
0600
0600
0000
0000
0000
0000
0000
0600
0600
0000
0000
0000
0000
0000
ENDCHAR
STARTCHAR SEMICOLON
ENCODING 59
SWIDTH 500 0
DWIDTH 12 0
BBX 12 24 0 -5
BITMAP
0000
0000
0000
0000
0000
0000
0000
0000
0000
0000
0600
0600
0000
0000
0000
0000
0600
0600
0600
0C00
1800
0000
0000
0000
ENDCHAR
STARTCHAR LESS-THAN SIGN
ENCODING 60
SWIDTH 500 0
DWIDTH 12 0
BBX 12 24 0 -5
BITMAP
0000
0000
0000
0000
0060
00C0
0180
0300
0600
0C00
1800
3000
1800
0C00
0600
0300
0180
00C0
0060
0000
0000
0000
0000
0000
ENDCHAR
STARTCHAR EQUALS SIGN
ENCODING 61
SWIDTH 500 0
DWIDTH 12 0
BBX 12 24 0 -5
BITMAP
0000
0000
0000
0000
0000
0000
0000
0000
0000
7FE0
0000
0000
0000
0000
7FE0
0000
0000
0000
0000
0000
0000
0000
0000
0000
ENDCHAR
STARTCHAR GREATER-THAN SIGN
ENCODING 62
SWIDTH 500 0
DWIDTH 12 0
BBX 12 24 0 -5
BITMAP
0000
0000
0000
0000
3000
1800
0C00
0600
0300
0180
00C0
0060
00C0
0180
0300
0600
0C00
1800
3000
0000
0000
0000
0000
0000
ENDCHAR
STARTCHAR QUESTION MARK
ENCODING 63
SWIDTH 500 0
DWIDTH 12 0
BBX 12 24 0 -5
BITMAP
0000
0000
0000
0000
1F80
30C0
6060
0060
0060
00C0
0180
0300
0600
0600
0600
0000
0000
0600
0600
0000
0000
0000
0000
0000
ENDCHAR
STARTCHAR COMMERCIAL AT
ENCODING 64
SWIDTH 500 0
DWIDTH 12 0
BBX 12 24 0 -5
BITMAP
0000
0000
0000
0000
0000
1F80
30C0
6060
6060
6760
6760
6760
6760
6760
6760
67E0
6000
3000
1FC0
0000
0000
0000
0000
0000
ENDCHAR
STARTCHAR LATIN CAPITAL LETTER A
ENCODING 65
SWIDTH 500 0
DWIDTH 12 0
BBX 12 24 0 -5
BITMAP
0000
0000
0000
0000
1F80
30C0
6060
6060
6060
6060
6060
7FE0
6060
6060
6060
6060
6060
6060
6060
0000
0000
0000
0000
0000
ENDCHAR
STARTCHAR LATIN CAPITAL LETTER B
ENCODING 66
SWIDTH 500 0
DWIDTH 12 0
BBX 12 24 0 -5
BITMAP
0000
0000
0000
0000
7F80
60C0
6060
6060
6060
6060
60C0
7F80
60C0
6060
6060
6060
6060
60C0
7F80
0000
0000
0000
0000
0000
ENDCHAR
STARTCHAR LATIN CAPITAL LETTER C
ENCODING 67
SWIDTH 500 0
DWIDTH 12 0
BBX 12 24 0 -5
BITMAP
0000
0000
0000
0000
1FE0
3000
6000
6000
6000
6000
6000
6000
6000
6000
6000
6000
6000
3000
1FE0
0000
0000
0000
0000
0000
ENDCHAR
STARTCHAR LATIN CAPITAL LETTER D
ENCODING 68
SWIDTH 500 0
DWIDTH 12 0
BBX 12 24 0 -5
BITMAP
0000
0000
0000
0000
7F80
60C0
6060
6060
6060
6060
6060
6060
6060
6060
6060
6060
6060
60C0
7F80
0000
0000
0000
0000
0000
ENDCHAR
STARTCHAR LATIN CAPITAL LETTER E
ENCODING 69
SWIDTH 500 0
DWIDTH 12 0
BBX 12 24 0 -5
BITMAP
0000
0000
0000
0000
1FE0
3000
6000
6000
6000
6000
6000
7F80
6000
6000
6000
6000
6000
3000
1FE0
0000
0000
0000
0000
0000
ENDCHAR
STARTCHAR LATIN CAPITAL LETTER F
ENCODING 70
SWIDTH 500 0
DWIDTH 12 0
BBX 12 24 0 -5
BITMAP
0000
0000
0000
0000
1FE0
3000
6000
6000
6000
6000
6000
7F80
6000
6000
6000
6000
6000
6000
6000
0000
0000
0000
0000
0000
ENDCHAR
STARTCHAR LATIN CAPITAL LETTER G
ENCODING 71
SWIDTH 500 0
DWIDTH 12 0
BBX 12 24 0 -5
BITMAP
0000
0000
0000
0000
1FE0
3000
6000
6000
6000
6000
6000
63E0
6060
6060
6060
6060
6060
3060
1FE0
0000
0000
0000
0000
0000
ENDCHAR
STARTCHAR LATIN CAPITAL LETTER H
ENCODING 72
SWIDTH 500 0
DWIDTH 12 0
BBX 12 24 0 -5
BITMAP
0000
0000
0000
0000
6060
6060
6060
6060
6060
6060
6060
7FE0
6060
6060
6060
6060
6060
6060
6060
0000
0000
0000
0000
0000
ENDCHAR
STARTCHAR LATIN CAPITAL LETTER I
ENCODING 73
SWIDTH 500 0
DWIDTH 12 0
BBX 12 24 0 -5
BITMAP
0000
0000
0000
0000
3FC0
0600
0600
0600
0600
0600
0600
0600
0600
0600
0600
0600
0600
0600
3FC0
0000
0000
0000
0000
0000
ENDCHAR
STARTCHAR LATIN CAPITAL LETTER J
ENCODING 74
SWIDTH 500 0
DWIDTH 12 0
BBX 12 24 0 -5
BITMAP
0000
0000
0000
0000
3FC0
0600
0600
0600
0600
0600
0600
0600
0600
0600
0600
0600
0600
0E00
7C00
0000
0000
0000
0000
0000
ENDCHAR
STARTCHAR LATIN CAPITAL LETTER K
ENCODING 75
SWIDTH 500 0
DWIDTH 12 0
BBX 12 24 0 -5
BITMAP
0000
0000
0000
0000
6060
6060
6060
6060
6060
60C0
6180
7F00
6180
60C0
6060
6060
6060
6060
6060
0000
0000
0000
0000
0000
ENDCHAR
STARTCHAR LATIN CAPITAL LETTER L
ENCODING 76
SWIDTH 500 0
DWIDTH 12 0
BBX 12 24 0 -5
BITMAP
0000
0000
0000
0000
6000
6000
6000
6000
6000
6000
6000
6000
6000
6000
6000
6000
6000
3000
1FE0
0000
0000
0000
0000
0000
ENDCHAR
STARTCHAR LATIN CAPITAL LETTER M
ENCODING 77
SWIDTH 500 0
DWIDTH 12 0
BBX 12 24 0 -5
BITMAP
0000
0000
0000
0000
6060
70E0
79E0
6F60
6660
6060
6060
6060
6060
6060
6060
6060
6060
6060
6060
0000
0000
0000
0000
0000
ENDCHAR
STARTCHAR LATIN CAPITAL LETTER N
ENCODING 78
SWIDTH 500 0
DWIDTH 12 0
BBX 12 24 0 -5
BITMAP
0000
0000
0000
0000
6060
7060
7060
7860
7860
6C60
6C60
6660
6660
6360
6360
61E0
61E0
60E0
60E0
0000
0000
0000
0000
0000
ENDCHAR
STARTCHAR LATIN CAPITAL LETTER O
ENCODING 79
SWIDTH 500 0
DWIDTH 12 0
BBX 12 24 0 -5
BITMAP
0000
0000
0000
0000
1F80
30C0
6060
6060
6060
6060
6060
6060
6060
6060
6060
6060
6060
30C0
1F80
0000
0000
0000
0000
0000
ENDCHAR
STARTCHAR LATIN CAPITAL LETTER P
ENCODING 80
SWIDTH 500 0
DWIDTH 12 0
BBX 12 24 0 -5
BITMAP
0000
0000
0000
0000
7F80
60C0
6060
6060
6060
6060
60C0
7F80
6000
6000
6000
6000
6000
6000
6000
0000
0000
0000
0000
0000
ENDCHAR
STARTCHAR LATIN CAPITAL LETTER Q
ENCODING 81
SWIDTH 500 0
DWIDTH 12 0
BBX 12 24 0 -5
BITMAP
0000
0000
0000
0000
1F80
30C0
6060
6060
6060
6060
6060
6060
6060
6060
6660
6660
6360
33C0
1F80
0180
00C0
00C0
0000
0000
ENDCHAR
STARTCHAR LATIN CAPITAL LETTER R
ENCODING 82
SWIDTH 500 0
DWIDTH 12 0
BBX 12 24 0 -5
BITMAP
0000
0000
0000
0000
7F80
60C0
6060
6060
6060
6060
60C0
7F80
60C0
6060
6060
6060
6060
6060
6060
0000
0000
0000
0000
0000
ENDCHAR
STARTCHAR LATIN CAPITAL LETTER S
ENCODING 83
SWIDTH 500 0
DWIDTH 12 0
BBX 12 24 0 -5
BITMAP
0000
0000
0000
0000
1FE0
3000
6000
6000
6000
6000
3000
1F80
00C0
0060
0060
0060
0060
00C0
7F80
0000
0000
0000
0000
0000
ENDCHAR
STARTCHAR LATIN CAPITAL LETTER T
ENCODING 84
SWIDTH 500 0
DWIDTH 12 0
BBX 12 24 0 -5
BITMAP
0000
0000
0000
0000
7FE0
0600
0600
0600
0600
0600
0600
0600
0600
0600
0600
0600
0600
0600
0600
0000
0000
0000
0000
0000
ENDCHAR
STARTCHAR LATIN CAPITAL LETTER U
ENCODING 85
SWIDTH 500 0
DWIDTH 12 0
BBX 12 24 0 -5
BITMAP
0000
0000
0000
0000
6060
6060
6060
6060
6060
6060
6060
6060
6060
6060
6060
6060
6060
3060
1FE0
0000
0000
0000
0000
0000
ENDCHAR
STARTCHAR LATIN CAPITAL LETTER V
ENCODING 86
SWIDTH 500 0
DWIDTH 12 0
BBX 12 24 0 -5
BITMAP
0000
0000
0000
0000
6060
6060
6060
6060
6060
6060
6060
6060
6060
6060
30C0
30C0
1980
0F00
0600
0000
0000
0000
0000
0000
ENDCHAR
STARTCHAR LATIN CAPITAL LETTER W
ENCODING 87
SWIDTH 500 0
DWIDTH 12 0
BBX 12 24 0 -5
BITMAP
0000
0000
0000
0000
6060
6060
6060
6060
6060
6060
6060
6060
6060
6060
6660
6F60
79E0
70E0
6060
0000
0000
0000
0000
0000
ENDCHAR
STARTCHAR LATIN CAPITAL LETTER X
ENCODING 88
SWIDTH 500 0
DWIDTH 12 0
BBX 12 24 0 -5
BITMAP
0000
0000
0000
0000
6060
6060
6060
6060
6060
6060
30C0
1F80
30C0
6060
6060
6060
6060
6060
6060
0000
0000
0000
0000
0000
ENDCHAR
STARTCHAR LATIN CAPITAL LETTER Y
ENCODING 89
SWIDTH 500 0
DWIDTH 12 0
BBX 12 24 0 -5
BITMAP
0000
0000
0000
0000
6060
6060
6060
6060
6060
6060
3060
1FE0
0060
0060
0060
0060
0060
00E0
7FC0
0000
0000
0000
0000
0000
ENDCHAR
STARTCHAR LATIN CAPITAL LETTER Z
ENCODING 90
SWIDTH 500 0
DWIDTH 12 0
BBX 12 24 0 -5
BITMAP
0000
0000
0000
0000
7FE0
0060
0060
0060
00C0
0180
0300
0600
0C00
1800
3000
6000
6000
6000
7FE0
0000
0000
0000
0000
0000
ENDCHAR
STARTCHAR LEFT SQUARE BRACKET
ENCODING 91
SWIDTH 500 0
DWIDTH 12 0
BBX 12 24 0 -5
BITMAP
0000
1FE0
1800
1800
1800
1800
1800
1800
1800
1800
1800
1800
1800
1800
1800
1800
1800
1800
1800
1800
1800
1800
1FE0
0000
ENDCHAR
STARTCHAR REVERSE SOLIDUS
ENCODING 92
SWIDTH 500 0
DWIDTH 12 0
BBX 12 24 0 -5
BITMAP
0000
0000
C000
C000
6000
6000
3000
3000
1800
1800
0C00
0C00
0600
0600
0300
0300
0180
0180
00C0
00C0
0060
0060
0000
0000
ENDCHAR
STARTCHAR RIGHT SQUARE BRACKET
ENCODING 93
SWIDTH 500 0
DWIDTH 12 0
BBX 12 24 0 -5
BITMAP
0000
7F80
0180
0180
0180
0180
0180
0180
0180
0180
0180
0180
0180
0180
0180
0180
0180
0180
0180
0180
0180
0180
7F80
0000
ENDCHAR
STARTCHAR CIRCUMFLEX ACCENT
ENCODING 94
SWIDTH 500 0
DWIDTH 12 0
BBX 12 24 0 -5
BITMAP
0000
0000
0400
0E00
1B00
3180
60C0
C060
0000
0000
0000
0000
0000
0000
0000
0000
0000
0000
0000
0000
0000
0000
0000
0000
ENDCHAR
STARTCHAR LOW LINE
ENCODING 95
SWIDTH 500 0
DWIDTH 12 0
BBX 12 24 0 -5
BITMAP
0000
0000
0000
0000
0000
0000
0000
0000
0000
0000
0000
0000
0000
0000
0000
0000
0000
0000
0000
0000
0000
0000
7FE0
0000
ENDCHAR
STARTCHAR GRAVE ACCENT
ENCODING 96
SWIDTH 500 0
DWIDTH 12 0
BBX 12 24 0 -5
BITMAP
0000
0000
1800
0C00
0600
0300
0000
0000
0000
0000
0000
0000
0000
0000
0000
0000
0000
0000
0000
0000
0000
0000
0000
0000
ENDCHAR
STARTCHAR LATIN SMALL LETTER A
ENCODING 97
SWIDTH 500 0
DWIDTH 12 0
BBX 12 24 0 -5
BITMAP
0000
0000
0000
0000
0000
0000
0000
0000
3F80
00C0
0060
0060
1FE0
3060
6060
6060
6060
3060
1FE0
0000
0000
0000
0000
0000
ENDCHAR
STARTCHAR LATIN SMALL LETTER B
ENCODING 98
SWIDTH 500 0
DWIDTH 12 0
BBX 12 24 0 -5
BITMAP
0000
0000
0000
0000
6000
6000
6000
6000
7F80
60C0
6060
6060
6060
6060
6060
6060
6060
60C0
7F80
0000
0000
0000
0000
0000
ENDCHAR
STARTCHAR LATIN SMALL LETTER C
ENCODING 99
SWIDTH 500 0
DWIDTH 12 0
BBX 12 24 0 -5
BITMAP
0000
0000
0000
0000
0000
0000
0000
0000
1FE0
3000
6000
6000
6000
6000
6000
6000
6000
3000
1FE0
0000
0000
0000
0000
0000
ENDCHAR
STARTCHAR LATIN SMALL LETTER D
ENCODING 100
SWIDTH 500 0
DWIDTH 12 0
BBX 12 24 0 -5
BITMAP
0000
0000
0000
0000
0060
0060
0060
0060
1FE0
3060
6060
6060
6060
6060
6060
6060
6060
3060
1FE0
0000
0000
0000
0000
0000
ENDCHAR
STARTCHAR LATIN SMALL LETTER E
ENCODING 101
SWIDTH 500 0
DWIDTH 12 0
BBX 12 24 0 -5
BITMAP
0000
0000
0000
0000
0000
0000
0000
0000
1FE0
3060
6060
6060
6060
7FE0
6000
6000
6000
3000
1FE0
0000
0000
0000
0000
0000
ENDCHAR
STARTCHAR LATIN SMALL LETTER F
ENCODING 102
SWIDTH 500 0
DWIDTH 12 0
BBX 12 24 0 -5
BITMAP
0000
0000
0000
0000
07C0
0E00
0C00
0C00
0C00
0C00
3F80
0C00
0C00
0C00
0C00
0C00
0C00
0C00
0C00
0000
0000
0000
0000
0000
ENDCHAR
STARTCHAR LATIN SMALL LETTER G
ENCODING 103
SWIDTH 500 0
DWIDTH 12 0
BBX 12 24 0 -5
BITMAP
0000
0000
0000
0000
0000
0000
0000
0000
1FE0
3060
6060
6060
6060
6060
6060
6060
6060
3060
1FC0
00C0
0060
0060
00C0
3F80
ENDCHAR
STARTCHAR LATIN SMALL LETTER H
ENCODING 104
SWIDTH 500 0
DWIDTH 12 0
BBX 12 24 0 -5
BITMAP
0000
0000
0000
0000
6000
6000
6000
6000
7F80
60C0
6060
6060
6060
6060
6060
6060
6060
6060
6060
0000
0000
0000
0000
0000
ENDCHAR
STARTCHAR LATIN SMALL LETTER I
ENCODING 105
SWIDTH 500 0
DWIDTH 12 0
BBX 12 24 0 -5
BITMAP
0000
0000
0000
0000
0600
0600
0000
0000
1E00
0600
0600
0600
0600
0600
0600
0600
0600
0600
0780
0000
0000
0000
0000
0000
ENDCHAR
STARTCHAR LATIN SMALL LETTER J
ENCODING 106
SWIDTH 500 0
DWIDTH 12 0
BBX 12 24 0 -5
BITMAP
0000
0000
0000
0000
0600
0600
0000
0000
0600
0600
0600
0600
0600
0600
0600
0600
0600
0600
0600
0600
0600
0600
0C00
7800
ENDCHAR
STARTCHAR LATIN SMALL LETTER K
ENCODING 107
SWIDTH 500 0
DWIDTH 12 0
BBX 12 24 0 -5
BITMAP
0000
0000
0000
0000
3000
3000
3000
3000
30C0
30C0
3180
3300
3E00
3600
3300
3180
30C0
3060
3060
0000
0000
0000
0000
0000
ENDCHAR
STARTCHAR LATIN SMALL LETTER L
ENCODING 108
SWIDTH 500 0
DWIDTH 12 0
BBX 12 24 0 -5
BITMAP
0000
0000
0000
0000
0C00
0C00
0C00
0C00
0C00
0C00
0C00
0C00
0C00
0C00
0C00
0C00
0C00
0E00
07C0
0000
0000
0000
0000
0000
ENDCHAR
STARTCHAR LATIN SMALL LETTER M
ENCODING 109
SWIDTH 500 0
DWIDTH 12 0
BBX 12 24 0 -5
BITMAP
0000
0000
0000
0000
0000
0000
0000
0000
7980
66C0
6660
6660
6660
6660
6660
6660
6060
6060
6060
0000
0000
0000
0000
0000
ENDCHAR
STARTCHAR LATIN SMALL LETTER N
ENCODING 110
SWIDTH 500 0
DWIDTH 12 0
BBX 12 24 0 -5
BITMAP
0000
0000
0000
0000
0000
0000
0000
0000
7F80
60C0
6060
6060
6060
6060
6060
6060
6060
6060
6060
0000
0000
0000
0000
0000
ENDCHAR
STARTCHAR LATIN SMALL LETTER O
ENCODING 111
SWIDTH 500 0
DWIDTH 12 0
BBX 12 24 0 -5
BITMAP
0000
0000
0000
0000
0000
0000
0000
0000
1F80
30C0
6060
6060
6060
6060
6060
6060
6060
30C0
1F80
0000
0000
0000
0000
0000
ENDCHAR
STARTCHAR LATIN SMALL LETTER P
ENCODING 112
SWIDTH 500 0
DWIDTH 12 0
BBX 12 24 0 -5
BITMAP
0000
0000
0000
0000
0000
0000
0000
0000
7F80
60C0
6060
6060
6060
6060
6060
6060
6060
60C0
7F80
6000
6000
6000
6000
6000
ENDCHAR
STARTCHAR LATIN SMALL LETTER Q
ENCODING 113
SWIDTH 500 0
DWIDTH 12 0
BBX 12 24 0 -5
BITMAP
0000
0000
0000
0000
0000
0000
0000
0000
1FE0
3060
6060
6060
6060
6060
6060
6060
6060
3060
1FE0
0060
0060
0060
0060
0060
ENDCHAR
STARTCHAR LATIN SMALL LETTER R
ENCODING 114
SWIDTH 500 0
DWIDTH 12 0
BBX 12 24 0 -5
BITMAP
0000
0000
0000
0000
0000
0000
0000
0000
1FE0
3060
6000
6000
6000
6000
6000
6000
6000
6000
6000
0000
0000
0000
0000
0000
ENDCHAR
STARTCHAR LATIN SMALL LETTER S
ENCODING 115
SWIDTH 500 0
DWIDTH 12 0
BBX 12 24 0 -5
BITMAP
0000
0000
0000
0000
0000
0000
0000
0000
3FE0
6000
6000
6000
6000
3FC0
0060
0060
0060
0060
7FC0
0000
0000
0000
0000
0000
ENDCHAR
STARTCHAR LATIN SMALL LETTER T
ENCODING 116
SWIDTH 500 0
DWIDTH 12 0
BBX 12 24 0 -5
BITMAP
0000
0000
0000
0000
0C00
0C00
0C00
0C00
3F80
0C00
0C00
0C00
0C00
0C00
0C00
0C00
0C00
0E00
07C0
0000
0000
0000
0000
0000
ENDCHAR
STARTCHAR LATIN SMALL LETTER U
ENCODING 117
SWIDTH 500 0
DWIDTH 12 0
BBX 12 24 0 -5
BITMAP
0000
0000
0000
0000
0000
0000
0000
0000
6060
6060
6060
6060
6060
6060
6060
6060
6060
3060
1FE0
0000
0000
0000
0000
0000
ENDCHAR
STARTCHAR LATIN SMALL LETTER V
ENCODING 118
SWIDTH 500 0
DWIDTH 12 0
BBX 12 24 0 -5
BITMAP
0000
0000
0000
0000
0000
0000
0000
0000
6060
6060
6060
6060
6060
6060
30C0
30C0
1980
0F00
0600
0000
0000
0000
0000
0000
ENDCHAR
STARTCHAR LATIN SMALL LETTER W
ENCODING 119
SWIDTH 500 0
DWIDTH 12 0
BBX 12 24 0 -5
BITMAP
0000
0000
0000
0000
0000
0000
0000
0000
6060
6060
6060
6660
6660
6660
6660
6660
6660
3660
19E0
0000
0000
0000
0000
0000
ENDCHAR
STARTCHAR LATIN SMALL LETTER X
ENCODING 120
SWIDTH 500 0
DWIDTH 12 0
BBX 12 24 0 -5
BITMAP
0000
0000
0000
0000
0000
0000
0000
0000
6060
6060
30C0
1980
0F00
0F00
1980
30C0
30C0
6060
6060
0000
0000
0000
0000
0000
ENDCHAR
STARTCHAR LATIN SMALL LETTER Y
ENCODING 121
SWIDTH 500 0
DWIDTH 12 0
BBX 12 24 0 -5
BITMAP
0000
0000
0000
0000
0000
0000
0000
0000
6060
6060
6060
6060
6060
6060
6060
6060
6060
3060
1FE0
0060
0060
0060
00C0
7F80
ENDCHAR
STARTCHAR LATIN SMALL LETTER Z
ENCODING 122
SWIDTH 500 0
DWIDTH 12 0
BBX 12 24 0 -5
BITMAP
0000
0000
0000
0000
0000
0000
0000
0000
7FE0
0060
00C0
0180
0300
0600
0C00
1800
3000
6000
7FE0
0000
0000
0000
0000
0000
ENDCHAR
STARTCHAR LEFT CURLY BRACKET
ENCODING 123
SWIDTH 500 0
DWIDTH 12 0
BBX 12 24 0 -5
BITMAP
0000
01E0
0300
0600
0600
0600
0600
0600
0600
0600
0C00
3800
3800
0C00
0600
0600
0600
0600
0600
0600
0600
0300
01E0
0000
ENDCHAR
STARTCHAR VERTICAL LINE
ENCODING 124
SWIDTH 500 0
DWIDTH 12 0
BBX 12 24 0 -5
BITMAP
0000
0000
0000
0600
0600
0600
0600
0600
0600
0600
0600
0600
0600
0600
0600
0600
0600
0600
0600
0600
0600
0000
0000
0000
ENDCHAR
STARTCHAR RIGHT CURLY BRACKET
ENCODING 125
SWIDTH 500 0
DWIDTH 12 0
BBX 12 24 0 -5
BITMAP
0000
3C00
0600
0300
0300
0300
0300
0300
0300
0300
0180
00E0
00E0
0180
0300
0300
0300
0300
0300
0300
0300
0600
3C00
0000
ENDCHAR
STARTCHAR TILDE
ENCODING 126
SWIDTH 500 0
DWIDTH 12 0
BBX 12 24 0 -5
BITMAP
0000
0000
0000
0000
0000
0000
0000
0000
0000
0000
3860
6C60
C6C0
C380
0000
0000
0000
0000
0000
0000
0000
0000
0000
0000
ENDCHAR
STARTCHAR <control>
ENCODING 127
SWIDTH 500 0
DWIDTH 12 0
BBX 12 24 0 -5
BITMAP
0000
0000
0000
0000
0000
0000
0000
0000
0000
0000
0000
0000
0000
0000
0000
0000
0000
0000
0000
0000
0000
0000
0000
0000
ENDCHAR
STARTCHAR NO-BREAK SPACE
ENCODING 160
SWIDTH 500 0
DWIDTH 12 0
BBX 12 24 0 -5
BITMAP
0000
0000
0000
0000
0000
0000
0000
0000
0000
0000
0000
0000
0000
0000
0000
0000
0000
0000
0000
0000
0000
0000
0000
0000
ENDCHAR
STARTCHAR INVERTED EXCLAMATION MARK
ENCODING 161
SWIDTH 500 0
DWIDTH 12 0
BBX 12 24 0 -5
BITMAP
0000
0000
0000
0000
0600
0600
0000
0000
0600
0600
0600
0600
0600
0600
0600
0600
0600
0600
0600
0000
0000
0000
0000
0000
ENDCHAR
STARTCHAR CENT SIGN
ENCODING 162
SWIDTH 500 0
DWIDTH 12 0
BBX 12 24 0 -5
BITMAP
0000
0000
0000
0000
0000
0000
0300
0300
1FE0
3300
6300
6300
6300
6300
6300
6300
6300
3300
1FE0
0300
0300
0000
0000
0000
ENDCHAR
STARTCHAR POUND SIGN
ENCODING 163
SWIDTH 500 0
DWIDTH 12 0
BBX 12 24 0 -5
BITMAP
0000
0000
0000
0000
0700
0D80
18C0
18C0
1800
1800
1800
7F80
1800
1800
1800
1800
3000
3000
7FE0
0000
0000
0000
0000
0000
ENDCHAR
STARTCHAR CURRENCY SIGN
ENCODING 164
SWIDTH 500 0
DWIDTH 12 0
BBX 12 24 0 -5
BITMAP
0000
0000
0000
0000
0000
0000
30C0
1980
0F00
1F80
30C0
30C0
30C0
30C0
1F80
0F00
1980
30C0
0000
0000
0000
0000
0000
0000
ENDCHAR
STARTCHAR YEN SIGN
ENCODING 165
SWIDTH 500 0
DWIDTH 12 0
BBX 12 24 0 -5
BITMAP
0000
0000
0000
0000
6060
6060
30C0
30C0
1980
1980
0F00
0F00
0600
3FC0
0600
0600
3FC0
0600
0600
0000
0000
0000
0000
0000
ENDCHAR
STARTCHAR BROKEN BAR
ENCODING 166
SWIDTH 500 0
DWIDTH 12 0
BBX 12 24 0 -5
BITMAP
0000
0000
0000
0600
0600
0600
0600
0600
0600
0600
0600
0000
0000
0600
0600
0600
0600
0600
0600
0600
0600
0000
0000
0000
ENDCHAR
STARTCHAR SECTION SIGN
ENCODING 167
SWIDTH 500 0
DWIDTH 12 0
BBX 12 24 0 -5
BITMAP
0000
0000
0000
0F80
1980
3180
3000
1800
0E00
1F80
30C0
30C0
30C0
30C0
1F80
0700
0180
00C0
18C0
1980
1F00
0000
0000
0000
ENDCHAR
STARTCHAR DIAERESIS
ENCODING 168
SWIDTH 500 0
DWIDTH 12 0
BBX 12 24 0 -5
BITMAP
0000
0000
0000
30C0
30C0
0000
0000
0000
0000
0000
0000
0000
0000
0000
0000
0000
0000
0000
0000
0000
0000
0000
0000
0000
ENDCHAR
STARTCHAR COPYRIGHT SIGN
ENCODING 169
SWIDTH 500 0
DWIDTH 12 0
BBX 12 24 0 -5
BITMAP
0000
0000
0000
0000
0000
0000
0000
1F80
30C0
6060
6760
6C60
6C60
6C60
6C60
6760
6060
30C0
1F80
0000
0000
0000
0000
0000
ENDCHAR
STARTCHAR FEMININE ORDINAL INDICATOR
ENCODING 170
SWIDTH 500 0
DWIDTH 12 0
BBX 12 24 0 -5
BITMAP
0000
0000
0F00
0180
0180
0F80
1980
1980
0F80
0000
1F80
0000
0000
0000
0000
0000
0000
0000
0000
0000
0000
0000
0000
0000
ENDCHAR
STARTCHAR LEFT-POINTING DOUBLE ANGLE QUOTATION MARK
ENCODING 171
SWIDTH 500 0
DWIDTH 12 0
BBX 12 24 0 -5
BITMAP
0000
0000
0000
0000
0000
0000
0000
0000
0000
0660
0CC0
1980
3300
6600
3300
1980
0CC0
0660
0000
0000
0000
0000
0000
0000
ENDCHAR
STARTCHAR NOT SIGN
ENCODING 172
SWIDTH 500 0
DWIDTH 12 0
BBX 12 24 0 -5
BITMAP
0000
0000
0000
0000
0000
0000
0000
0000
0000
7FE0
0060
0060
0060
0060
0060
0000
0000
0000
0000
0000
0000
0000
0000
0000
ENDCHAR
STARTCHAR SOFT HYPHEN
ENCODING 173
SWIDTH 500 0
DWIDTH 12 0
BBX 12 24 0 -5
BITMAP
0000
0000
0000
0000
0000
0000
0000
0000
0000
0000
0000
0000
1F80
0000
0000
0000
0000
0000
0000
0000
0000
0000
0000
0000
ENDCHAR
STARTCHAR REGISTERED SIGN
ENCODING 174
SWIDTH 500 0
DWIDTH 12 0
BBX 12 24 0 -5
BITMAP
0000
0000
0000
0000
0000
0000
0000
1F80
30C0
6060
6E60
6D60
6D60
6E60
6D60
6D60
6060
30C0
1F80
0000
0000
0000
0000
0000
ENDCHAR
STARTCHAR MACRON
ENCODING 175
SWIDTH 500 0
DWIDTH 12 0
BBX 12 24 0 -5
BITMAP
0000
0000
1F80
0000
0000
0000
0000
0000
0000
0000
0000
0000
0000
0000
0000
0000
0000
0000
0000
0000
0000
0000
0000
0000
ENDCHAR
STARTCHAR DEGREE SIGN
ENCODING 176
SWIDTH 500 0
DWIDTH 12 0
BBX 12 24 0 -5
BITMAP
0000
0000
0000
0F00
1980
1980
1980
1980
0F00
0000
0000
0000
0000
0000
0000
0000
0000
0000
0000
0000
0000
0000
0000
0000
ENDCHAR
STARTCHAR PLUS-MINUS SIGN
ENCODING 177
SWIDTH 500 0
DWIDTH 12 0
BBX 12 24 0 -5
BITMAP
0000
0000
0000
0000
0000
0000
0000
0600
0600
0600
3FC0
0600
0600
0600
0000
0000
3FC0
0000
0000
0000
0000
0000
0000
0000
ENDCHAR
STARTCHAR SUPERSCRIPT TWO
ENCODING 178
SWIDTH 500 0
DWIDTH 12 0
BBX 12 24 0 -5
BITMAP
0000
0000
0000
0F00
1980
0180
0300
0600
0C00
1980
1F80
0000
0000
0000
0000
0000
0000
0000
0000
0000
0000
0000
0000
0000
ENDCHAR
STARTCHAR SUPERSCRIPT THREE
ENCODING 179
SWIDTH 500 0
DWIDTH 12 0
BBX 12 24 0 -5
BITMAP
0000
0000
0000
0F00
1980
0180
0700
0180
0180
1980
0F00
0000
0000
0000
0000
0000
0000
0000
0000
0000
0000
0000
0000
0000
ENDCHAR
STARTCHAR ACUTE ACCENT
ENCODING 180
SWIDTH 500 0
DWIDTH 12 0
BBX 12 24 0 -5
BITMAP
0000
0000
0180
0300
0600
0C00
0000
0000
0000
0000
0000
0000
0000
0000
0000
0000
0000
0000
0000
0000
0000
0000
0000
0000
ENDCHAR
STARTCHAR MICRO SIGN
ENCODING 181
SWIDTH 500 0
DWIDTH 12 0
BBX 12 24 0 -5
BITMAP
0000
0000
0000
0000
0000
0000
0000
0000
6180
6180
6180
6180
6180
6180
6180
6180
6180
73C0
6E60
6000
6000
6000
6000
6000
ENDCHAR
STARTCHAR PILCROW SIGN
ENCODING 182
SWIDTH 500 0
DWIDTH 12 0
BBX 12 24 0 -5
BITMAP
0000
0000
0000
0000
1FE0
3660
6660
6660
6660
6660
3660
1E60
0660
0660
0660
0660
0660
0660
0660
0000
0000
0000
0000
0000
ENDCHAR
STARTCHAR MIDDLE DOT
ENCODING 183
SWIDTH 500 0
DWIDTH 12 0
BBX 12 24 0 -5
BITMAP
0000
0000
0000
0000
0000
0000
0000
0000
0000
0000
0000
0600
0600
0000
0000
0000
0000
0000
0000
0000
0000
0000
0000
0000
ENDCHAR
STARTCHAR CEDILLA
ENCODING 184
SWIDTH 500 0
DWIDTH 12 0
BBX 12 24 0 -5
BITMAP
0000
0000
0000
0000
0000
0000
0000
0000
0000
0000
0000
0000
0000
0000
0000
0000
0000
0000
0000
0300
0300
0300
0600
0C00
ENDCHAR
STARTCHAR SUPERSCRIPT ONE
ENCODING 185
SWIDTH 500 0
DWIDTH 12 0
BBX 12 24 0 -5
BITMAP
0000
0000
0000
0600
0E00
1E00
0600
0600
0600
0600
0F00
0000
0000
0000
0000
0000
0000
0000
0000
0000
0000
0000
0000
0000
ENDCHAR
STARTCHAR MASCULINE ORDINAL INDICATOR
ENCODING 186
SWIDTH 500 0
DWIDTH 12 0
BBX 12 24 0 -5
BITMAP
0000
0000
0000
0F00
1980
1980
1980
1980
0F00
0000
1F80
0000
0000
0000
0000
0000
0000
0000
0000
0000
0000
0000
0000
0000
ENDCHAR
STARTCHAR RIGHT-POINTING DOUBLE ANGLE QUOTATION MARK
ENCODING 187
SWIDTH 500 0
DWIDTH 12 0
BBX 12 24 0 -5
BITMAP
0000
0000
0000
0000
0000
0000
0000
0000
0000
6600
3300
1980
0CC0
0660
0CC0
1980
3300
6600
0000
0000
0000
0000
0000
0000
ENDCHAR
STARTCHAR VULGAR FRACTION ONE QUARTER
ENCODING 188
SWIDTH 500 0
DWIDTH 12 0
BBX 12 24 0 -5
BITMAP
0000
0000
1800
3800
7800
1800
1800
1860
18C0
3D80
0300
0600
0C00
1800
3000
6600
0600
06C0
06C0
07E0
00C0
00C0
0000
0000
ENDCHAR
STARTCHAR VULGAR FRACTION ONE HALF
ENCODING 189
SWIDTH 500 0
DWIDTH 12 0
BBX 12 24 0 -5
BITMAP
0000
0000
1800
3800
7800
1800
1800
1860
18C0
3D80
0300
0600
0C00
1800
33C0
6660
0060
00C0
0180
0300
0660
07E0
0000
0000
ENDCHAR
STARTCHAR VULGAR FRACTION THREE QUARTERS
ENCODING 190
SWIDTH 500 0
DWIDTH 12 0
BBX 12 24 0 -5
BITMAP
0000
0000
3C00
6600
0600
1C00
0600
6660
3CC0
0180
0300
0600
0C00
1800
3000
6600
0600
06C0
06C0
07E0
00C0
00C0
0000
0000
ENDCHAR
STARTCHAR INVERTED QUESTION MARK
ENCODING 191
SWIDTH 500 0
DWIDTH 12 0
BBX 12 24 0 -5
BITMAP
0000
0000
0000
0000
0600
0600
0000
0000
0600
0600
0600
0C00
1800
3000
6000
6000
6060
30C0
1F80
0000
0000
0000
0000
0000
ENDCHAR
STARTCHAR LATIN CAPITAL LETTER A WITH GRAVE
ENCODING 192
SWIDTH 500 0
DWIDTH 12 0
BBX 12 24 0 -5
BITMAP
1800
0C00
0600
0000
1F80
30C0
6060
6060
6060
6060
6060
7FE0
6060
6060
6060
6060
6060
6060
6060
0000
0000
0000
0000
0000
ENDCHAR
STARTCHAR LATIN CAPITAL LETTER A WITH ACUTE
ENCODING 193
SWIDTH 500 0
DWIDTH 12 0
BBX 12 24 0 -5
BITMAP
0180
0300
0600
0000
1F80
30C0
6060
6060
6060
6060
6060
7FE0
6060
6060
6060
6060
6060
6060
6060
0000
0000
0000
0000
0000
ENDCHAR
STARTCHAR LATIN CAPITAL LETTER A WITH CIRCUMFLEX
ENCODING 194
SWIDTH 500 0
DWIDTH 12 0
BBX 12 24 0 -5
BITMAP
0F00
1980
30C0
0000
1F80
30C0
6060
6060
6060
6060
6060
7FE0
6060
6060
6060
6060
6060
6060
6060
0000
0000
0000
0000
0000
ENDCHAR
STARTCHAR LATIN CAPITAL LETTER A WITH TILDE
ENCODING 195
SWIDTH 500 0
DWIDTH 12 0
BBX 12 24 0 -5
BITMAP
1C60
3FC0
6380
0000
1F80
30C0
6060
6060
6060
6060
6060
7FE0
6060
6060
6060
6060
6060
6060
6060
0000
0000
0000
0000
0000
ENDCHAR
STARTCHAR LATIN CAPITAL LETTER A WITH DIAERESIS
ENCODING 196
SWIDTH 500 0
DWIDTH 12 0
BBX 12 24 0 -5
BITMAP
0000
30C0
30C0
0000
1F80
30C0
6060
6060
6060
6060
6060
7FE0
6060
6060
6060
6060
6060
6060
6060
0000
0000
0000
0000
0000
ENDCHAR
STARTCHAR LATIN CAPITAL LETTER A WITH RING ABOVE
ENCODING 197
SWIDTH 500 0
DWIDTH 12 0
BBX 12 24 0 -5
BITMAP
0F00
1980
1980
0F00
1F80
30C0
6060
6060
6060
6060
6060
7FE0
6060
6060
6060
6060
6060
6060
6060
0000
0000
0000
0000
0000
ENDCHAR
STARTCHAR LATIN CAPITAL LETTER AE
ENCODING 198
SWIDTH 500 0
DWIDTH 12 0
BBX 12 24 0 -5
BITMAP
0000
0000
0000
0000
1FE0
3300
6300
6300
6300
6300
6300
7FC0
6300
6300
6300
6300
6300
6300
63E0
0000
0000
0000
0000
0000
ENDCHAR
STARTCHAR LATIN CAPITAL LETTER C WITH CEDILLA
ENCODING 199
SWIDTH 500 0
DWIDTH 12 0
BBX 12 24 0 -5
BITMAP
0000
0000
0000
0000
1FE0
3000
6000
6000
6000
6000
6000
6000
6000
6000
6000
6000
6000
3000
1FE0
0300
0300
0300
0600
0C00
ENDCHAR
STARTCHAR LATIN CAPITAL LETTER E WITH GRAVE
ENCODING 200
SWIDTH 500 0
DWIDTH 12 0
BBX 12 24 0 -5
BITMAP
1800
0C00
0600
0000
1FE0
3000
6000
6000
6000
6000
6000
7F80
6000
6000
6000
6000
6000
3000
1FE0
0000
0000
0000
0000
0000
ENDCHAR
STARTCHAR LATIN CAPITAL LETTER E WITH ACUTE
ENCODING 201
SWIDTH 500 0
DWIDTH 12 0
BBX 12 24 0 -5
BITMAP
0180
0300
0600
0000
1FE0
3000
6000
6000
6000
6000
6000
7F80
6000
6000
6000
6000
6000
3000
1FE0
0000
0000
0000
0000
0000
ENDCHAR
STARTCHAR LATIN CAPITAL LETTER E WITH CIRCUMFLEX
ENCODING 202
SWIDTH 500 0
DWIDTH 12 0
BBX 12 24 0 -5
BITMAP
0F00
1980
30C0
0000
1FE0
3000
6000
6000
6000
6000
6000
7F80
6000
6000
6000
6000
6000
3000
1FE0
0000
0000
0000
0000
0000
ENDCHAR
STARTCHAR LATIN CAPITAL LETTER E WITH DIAERESIS
ENCODING 203
SWIDTH 500 0
DWIDTH 12 0
BBX 12 24 0 -5
BITMAP
0000
30C0
30C0
0000
1FE0
3000
6000
6000
6000
6000
6000
7F80
6000
6000
6000
6000
6000
3000
1FE0
0000
0000
0000
0000
0000
ENDCHAR
STARTCHAR LATIN CAPITAL LETTER I WITH GRAVE
ENCODING 204
SWIDTH 500 0
DWIDTH 12 0
BBX 12 24 0 -5
BITMAP
0C00
0600
0300
0000
3FC0
0600
0600
0600
0600
0600
0600
0600
0600
0600
0600
0600
0600
0600
3FC0
0000
0000
0000
0000
0000
ENDCHAR
STARTCHAR LATIN CAPITAL LETTER I WITH ACUTE
ENCODING 205
SWIDTH 500 0
DWIDTH 12 0
BBX 12 24 0 -5
BITMAP
0300
0600
0C00
0000
3FC0
0600
0600
0600
0600
0600
0600
0600
0600
0600
0600
0600
0600
0600
3FC0
0000
0000
0000
0000
0000
ENDCHAR
STARTCHAR LATIN CAPITAL LETTER I WITH CIRCUMFLEX
ENCODING 206
SWIDTH 500 0
DWIDTH 12 0
BBX 12 24 0 -5
BITMAP
0F00
1980
30C0
0000
3FC0
0600
0600
0600
0600
0600
0600
0600
0600
0600
0600
0600
0600
0600
3FC0
0000
0000
0000
0000
0000
ENDCHAR
STARTCHAR LATIN CAPITAL LETTER I WITH DIAERESIS
ENCODING 207
SWIDTH 500 0
DWIDTH 12 0
BBX 12 24 0 -5
BITMAP
0000
30C0
30C0
0000
3FC0
0600
0600
0600
0600
0600
0600
0600
0600
0600
0600
0600
0600
0600
3FC0
0000
0000
0000
0000
0000
ENDCHAR
STARTCHAR LATIN CAPITAL LETTER ETH
ENCODING 208
SWIDTH 500 0
DWIDTH 12 0
BBX 12 24 0 -5
BITMAP
0000
0000
0000
0000
7FC0
60E0
6060
6060
6060
6060
6060
FC60
6060
6060
6060
6060
6060
60E0
7FC0
0000
0000
0000
0000
0000
ENDCHAR
STARTCHAR LATIN CAPITAL LETTER N WITH TILDE
ENCODING 209
SWIDTH 500 0
DWIDTH 12 0
BBX 12 24 0 -5
BITMAP
1C60
3FC0
6380
0000
6060
7060
7060
7860
7860
6C60
6C60
6660
6660
6360
6360
61E0
61E0
60E0
60E0
0000
0000
0000
0000
0000
ENDCHAR
STARTCHAR LATIN CAPITAL LETTER O WITH GRAVE
ENCODING 210
SWIDTH 500 0
DWIDTH 12 0
BBX 12 24 0 -5
BITMAP
1800
0C00
0600
0000
1F80
30C0
6060
6060
6060
6060
6060
6060
6060
6060
6060
6060
6060
30C0
1F80
0000
0000
0000
0000
0000
ENDCHAR
STARTCHAR LATIN CAPITAL LETTER O WITH ACUTE
ENCODING 211
SWIDTH 500 0
DWIDTH 12 0
BBX 12 24 0 -5
BITMAP
0180
0300
0600
0000
1F80
30C0
6060
6060
6060
6060
6060
6060
6060
6060
6060
6060
6060
30C0
1F80
0000
0000
0000
0000
0000
ENDCHAR
STARTCHAR LATIN CAPITAL LETTER O WITH CIRCUMFLEX
ENCODING 212
SWIDTH 500 0
DWIDTH 12 0
BBX 12 24 0 -5
BITMAP
0F00
1980
30C0
0000
1F80
30C0
6060
6060
6060
6060
6060
6060
6060
6060
6060
6060
6060
30C0
1F80
0000
0000
0000
0000
0000
ENDCHAR
STARTCHAR LATIN CAPITAL LETTER O WITH TILDE
ENCODING 213
SWIDTH 500 0
DWIDTH 12 0
BBX 12 24 0 -5
BITMAP
1C60
3FC0
6380
0000
1F80
30C0
6060
6060
6060
6060
6060
6060
6060
6060
6060
6060
6060
30C0
1F80
0000
0000
0000
0000
0000
ENDCHAR
STARTCHAR LATIN CAPITAL LETTER O WITH DIAERESIS
ENCODING 214
SWIDTH 500 0
DWIDTH 12 0
BBX 12 24 0 -5
BITMAP
0000
30C0
30C0
0000
1F80
30C0
6060
6060
6060
6060
6060
6060
6060
6060
6060
6060
6060
30C0
1F80
0000
0000
0000
0000
0000
ENDCHAR
STARTCHAR MULTIPLICATION SIGN
ENCODING 215
SWIDTH 500 0
DWIDTH 12 0
BBX 12 24 0 -5
BITMAP
0000
0000
0000
0000
0000
0000
0000
6060
30C0
1980
0F00
0600
0600
0F00
1980
30C0
6060
0000
0000
0000
0000
0000
0000
0000
ENDCHAR
STARTCHAR LATIN CAPITAL LETTER O WITH STROKE
ENCODING 216
SWIDTH 500 0
DWIDTH 12 0
BBX 12 24 0 -5
BITMAP
0000
0000
0000
0060
1FE0
30C0
60E0
61E0
61E0
6360
6360
6660
6660
6C60
6C60
7860
7860
30C0
3F80
6000
6000
0000
0000
0000
ENDCHAR
STARTCHAR LATIN CAPITAL LETTER U WITH GRAVE
ENCODING 217
SWIDTH 500 0
DWIDTH 12 0
BBX 12 24 0 -5
BITMAP
1800
0C00
0600
0000
6060
6060
6060
6060
6060
6060
6060
6060
6060
6060
6060
6060
6060
3060
1FE0
0000
0000
0000
0000
0000
ENDCHAR
STARTCHAR LATIN CAPITAL LETTER U WITH ACUTE
ENCODING 218
SWIDTH 500 0
DWIDTH 12 0
BBX 12 24 0 -5
BITMAP
0180
0300
0600
0000
6060
6060
6060
6060
6060
6060
6060
6060
6060
6060
6060
6060
6060
3060
1FE0
0000
0000
0000
0000
0000
ENDCHAR
STARTCHAR LATIN CAPITAL LETTER U WITH CIRCUMFLEX
ENCODING 219
SWIDTH 500 0
DWIDTH 12 0
BBX 12 24 0 -5
BITMAP
0F00
1980
30C0
0000
6060
6060
6060
6060
6060
6060
6060
6060
6060
6060
6060
6060
6060
3060
1FE0
0000
0000
0000
0000
0000
ENDCHAR
STARTCHAR LATIN CAPITAL LETTER U WITH DIAERESIS
ENCODING 220
SWIDTH 500 0
DWIDTH 12 0
BBX 12 24 0 -5
BITMAP
0000
30C0
30C0
0000
6060
6060
6060
6060
6060
6060
6060
6060
6060
6060
6060
6060
6060
3060
1FE0
0000
0000
0000
0000
0000
ENDCHAR
STARTCHAR LATIN CAPITAL LETTER Y WITH ACUTE
ENCODING 221
SWIDTH 500 0
DWIDTH 12 0
BBX 12 24 0 -5
BITMAP
0180
0300
0600
0000
6060
6060
6060
6060
6060
6060
3060
1FE0
0060
0060
0060
0060
0060
00E0
7FC0
0000
0000
0000
0000
0000
ENDCHAR
STARTCHAR LATIN CAPITAL LETTER THORN
ENCODING 222
SWIDTH 500 0
DWIDTH 12 0
BBX 12 24 0 -5
BITMAP
0000
0000
0000
0000
0000
6000
6000
6000
7F80
60C0
6060
6060
6060
6060
6060
6060
6060
60C0
7F80
6000
6000
6000
0000
0000
ENDCHAR
STARTCHAR LATIN SMALL LETTER SHARP S
ENCODING 223
SWIDTH 500 0
DWIDTH 12 0
BBX 12 24 0 -5
BITMAP
0000
0000
0000
0000
1E00
3300
6180
6180
6180
6180
6300
6F00
6380
60C0
6060
6060
6060
6860
6CC0
6780
0000
0000
0000
0000
ENDCHAR
STARTCHAR LATIN SMALL LETTER A WITH GRAVE
ENCODING 224
SWIDTH 500 0
DWIDTH 12 0
BBX 12 24 0 -5
BITMAP
0000
0000
1800
0C00
0600
0300
0000
0000
3F80
00C0
0060
0060
1FE0
3060
6060
6060
6060
3060
1FE0
0000
0000
0000
0000
0000
ENDCHAR
STARTCHAR LATIN SMALL LETTER A WITH ACUTE
ENCODING 225
SWIDTH 500 0
DWIDTH 12 0
BBX 12 24 0 -5
BITMAP
0000
0000
0180
0300
0600
0C00
0000
0000
3F80
00C0
0060
0060
1FE0
3060
6060
6060
6060
3060
1FE0
0000
0000
0000
0000
0000
ENDCHAR
STARTCHAR LATIN SMALL LETTER A WITH CIRCUMFLEX
ENCODING 226
SWIDTH 500 0
DWIDTH 12 0
BBX 12 24 0 -5
BITMAP
0000
0000
0600
0F00
1980
30C0
0000
0000
3F80
00C0
0060
0060
1FE0
3060
6060
6060
6060
3060
1FE0
0000
0000
0000
0000
0000
ENDCHAR
STARTCHAR LATIN SMALL LETTER A WITH TILDE
ENCODING 227
SWIDTH 500 0
DWIDTH 12 0
BBX 12 24 0 -5
BITMAP
0000
0000
1860
3C60
66C0
6380
0000
0000
3F80
00C0
0060
0060
1FE0
3060
6060
6060
6060
3060
1FE0
0000
0000
0000
0000
0000
ENDCHAR
STARTCHAR LATIN SMALL LETTER A WITH DIAERESIS
ENCODING 228
SWIDTH 500 0
DWIDTH 12 0
BBX 12 24 0 -5
BITMAP
0000
0000
0000
30C0
30C0
0000
0000
0000
3F80
00C0
0060
0060
1FE0
3060
6060
6060
6060
3060
1FE0
0000
0000
0000
0000
0000
ENDCHAR
STARTCHAR LATIN SMALL LETTER A WITH RING ABOVE
ENCODING 229
SWIDTH 500 0
DWIDTH 12 0
BBX 12 24 0 -5
BITMAP
0000
0000
0F00
1980
1980
0F00
0000
0000
3F80
00C0
0060
0060
1FE0
3060
6060
6060
6060
3060
1FE0
0000
0000
0000
0000
0000
ENDCHAR
STARTCHAR LATIN SMALL LETTER AE
ENCODING 230
SWIDTH 500 0
DWIDTH 12 0
BBX 12 24 0 -5
BITMAP
0000
0000
0000
0000
0000
0000
0000
0000
39E0
0F60
0660
0660
1FE0
3600
6600
6600
6600
3700
1DE0
0000
0000
0000
0000
0000
ENDCHAR
STARTCHAR LATIN SMALL LETTER C WITH CEDILLA
ENCODING 231
SWIDTH 500 0
DWIDTH 12 0
BBX 12 24 0 -5
BITMAP
0000
0000
0000
0000
0000
0000
0000
0000
1FE0
3000
6000
6000
6000
6000
6000
6000
6000
3000
1FE0
0300
0300
0300
0600
0C00
ENDCHAR
STARTCHAR LATIN SMALL LETTER E WITH GRAVE
ENCODING 232
SWIDTH 500 0
DWIDTH 12 0
BBX 12 24 0 -5
BITMAP
0000
0000
1800
0C00
0600
0300
0000
0000
1FE0
3060
6060
6060
6060
7FE0
6000
6000
6000
3000
1FE0
0000
0000
0000
0000
0000
ENDCHAR
STARTCHAR LATIN SMALL LETTER E WITH ACUTE
ENCODING 233
SWIDTH 500 0
DWIDTH 12 0
BBX 12 24 0 -5
BITMAP
0000
0000
0180
0300
0600
0C00
0000
0000
1FE0
3060
6060
6060
6060
7FE0
6000
6000
6000
3000
1FE0
0000
0000
0000
0000
0000
ENDCHAR
STARTCHAR LATIN SMALL LETTER E WITH CIRCUMFLEX
ENCODING 234
SWIDTH 500 0
DWIDTH 12 0
BBX 12 24 0 -5
BITMAP
0000
0000
0600
0F00
1980
30C0
0000
0000
1FE0
3060
6060
6060
6060
7FE0
6000
6000
6000
3000
1FE0
0000
0000
0000
0000
0000
ENDCHAR
STARTCHAR LATIN SMALL LETTER E WITH DIAERESIS
ENCODING 235
SWIDTH 500 0
DWIDTH 12 0
BBX 12 24 0 -5
BITMAP
0000
0000
0000
30C0
30C0
0000
0000
0000
1FE0
3060
6060
6060
6060
7FE0
6000
6000
6000
3000
1FE0
0000
0000
0000
0000
0000
ENDCHAR
STARTCHAR LATIN SMALL LETTER I WITH GRAVE
ENCODING 236
SWIDTH 500 0
DWIDTH 12 0
BBX 12 24 0 -5
BITMAP
0000
0000
1800
0C00
0600
0300
0000
0000
1E00
0600
0600
0600
0600
0600
0600
0600
0600
0600
0780
0000
0000
0000
0000
0000
ENDCHAR
STARTCHAR LATIN SMALL LETTER I WITH ACUTE
ENCODING 237
SWIDTH 500 0
DWIDTH 12 0
BBX 12 24 0 -5
BITMAP
0000
0000
0180
0300
0600
0C00
0000
0000
1E00
0600
0600
0600
0600
0600
0600
0600
0600
0600
0780
0000
0000
0000
0000
0000
ENDCHAR
STARTCHAR LATIN SMALL LETTER I WITH CIRCUMFLEX
ENCODING 238
SWIDTH 500 0
DWIDTH 12 0
BBX 12 24 0 -5
BITMAP
0000
0000
0600
0F00
1980
30C0
0000
0000
1E00
0600
0600
0600
0600
0600
0600
0600
0600
0600
0780
0000
0000
0000
0000
0000
ENDCHAR
STARTCHAR LATIN SMALL LETTER I WITH DIAERESIS
ENCODING 239
SWIDTH 500 0
DWIDTH 12 0
BBX 12 24 0 -5
BITMAP
0000
0000
0000
30C0
30C0
0000
0000
0000
1E00
0600
0600
0600
0600
0600
0600
0600
0600
0600
0780
0000
0000
0000
0000
0000
ENDCHAR
STARTCHAR LATIN SMALL LETTER ETH
ENCODING 240
SWIDTH 500 0
DWIDTH 12 0
BBX 12 24 0 -5
BITMAP
0000
0000
6600
3C00
1800
3C00
6600
0300
1F80
30C0
6060
6060
6060
6060
6060
6060
6060
30C0
1F80
0000
0000
0000
0000
0000
ENDCHAR
STARTCHAR LATIN SMALL LETTER N WITH TILDE
ENCODING 241
SWIDTH 500 0
DWIDTH 12 0
BBX 12 24 0 -5
BITMAP
0000
0000
1860
3C60
66C0
6380
0000
0000
7F80
60C0
6060
6060
6060
6060
6060
6060
6060
6060
6060
0000
0000
0000
0000
0000
ENDCHAR
STARTCHAR LATIN SMALL LETTER O WITH GRAVE
ENCODING 242
SWIDTH 500 0
DWIDTH 12 0
BBX 12 24 0 -5
BITMAP
0000
0000
1800
0C00
0600
0300
0000
0000
1F80
30C0
6060
6060
6060
6060
6060
6060
6060
30C0
1F80
0000
0000
0000
0000
0000
ENDCHAR
STARTCHAR LATIN SMALL LETTER O WITH ACUTE
ENCODING 243
SWIDTH 500 0
DWIDTH 12 0
BBX 12 24 0 -5
BITMAP
0000
0000
0180
0300
0600
0C00
0000
0000
1F80
30C0
6060
6060
6060
6060
6060
6060
6060
30C0
1F80
0000
0000
0000
0000
0000
ENDCHAR
STARTCHAR LATIN SMALL LETTER O WITH CIRCUMFLEX
ENCODING 244
SWIDTH 500 0
DWIDTH 12 0
BBX 12 24 0 -5
BITMAP
0000
0000
0600
0F00
1980
30C0
0000
0000
1F80
30C0
6060
6060
6060
6060
6060
6060
6060
30C0
1F80
0000
0000
0000
0000
0000
ENDCHAR
STARTCHAR LATIN SMALL LETTER O WITH TILDE
ENCODING 245
SWIDTH 500 0
DWIDTH 12 0
BBX 12 24 0 -5
BITMAP
0000
0000
1860
3C60
66C0
6380
0000
0000
1F80
30C0
6060
6060
6060
6060
6060
6060
6060
30C0
1F80
0000
0000
0000
0000
0000
ENDCHAR
STARTCHAR LATIN SMALL LETTER O WITH DIAERESIS
ENCODING 246
SWIDTH 500 0
DWIDTH 12 0
BBX 12 24 0 -5
BITMAP
0000
0000
0000
30C0
30C0
0000
0000
0000
1F80
30C0
6060
6060
6060
6060
6060
6060
6060
30C0
1F80
0000
0000
0000
0000
0000
ENDCHAR
STARTCHAR DIVISION SIGN
ENCODING 247
SWIDTH 500 0
DWIDTH 12 0
BBX 12 24 0 -5
BITMAP
0000
0000
0000
0000
0000
0000
0000
0000
0600
0600
0000
0000
3FC0
0000
0000
0600
0600
0000
0000
0000
0000
0000
0000
0000
ENDCHAR
STARTCHAR LATIN SMALL LETTER O WITH STROKE
ENCODING 248
SWIDTH 500 0
DWIDTH 12 0
BBX 12 24 0 -5
BITMAP
0000
0000
0000
0000
0000
0000
0000
0010
1FB0
30E0
60E0
61E0
6360
6660
6C60
7860
7060
70C0
DF80
8000
0000
0000
0000
0000
ENDCHAR
STARTCHAR LATIN SMALL LETTER U WITH GRAVE
ENCODING 249
SWIDTH 500 0
DWIDTH 12 0
BBX 12 24 0 -5
BITMAP
0000
0000
1800
0C00
0600
0300
0000
0000
6060
6060
6060
6060
6060
6060
6060
6060
6060
3060
1FE0
0000
0000
0000
0000
0000
ENDCHAR
STARTCHAR LATIN SMALL LETTER U WITH ACUTE
ENCODING 250
SWIDTH 500 0
DWIDTH 12 0
BBX 12 24 0 -5
BITMAP
0000
0000
0180
0300
0600
0C00
0000
0000
6060
6060
6060
6060
6060
6060
6060
6060
6060
3060
1FE0
0000
0000
0000
0000
0000
ENDCHAR
STARTCHAR LATIN SMALL LETTER U WITH CIRCUMFLEX
ENCODING 251
SWIDTH 500 0
DWIDTH 12 0
BBX 12 24 0 -5
BITMAP
0000
0000
0600
0F00
1980
30C0
0000
0000
6060
6060
6060
6060
6060
6060
6060
6060
6060
3060
1FE0
0000
0000
0000
0000
0000
ENDCHAR
STARTCHAR LATIN SMALL LETTER U WITH DIAERESIS
ENCODING 252
SWIDTH 500 0
DWIDTH 12 0
BBX 12 24 0 -5
BITMAP
0000
0000
0000
30C0
30C0
0000
0000
0000
6060
6060
6060
6060
6060
6060
6060
6060
6060
3060
1FE0
0000
0000
0000
0000
0000
ENDCHAR
STARTCHAR LATIN SMALL LETTER Y WITH ACUTE
ENCODING 253
SWIDTH 500 0
DWIDTH 12 0
BBX 12 24 0 -5
BITMAP
0000
0000
0180
0300
0600
0C00
0000
0000
6060
6060
6060
6060
6060
6060
6060
6060
6060
3060
1FE0
0060
0060
0060
00C0
7F80
ENDCHAR
STARTCHAR LATIN SMALL LETTER THORN
ENCODING 254
SWIDTH 500 0
DWIDTH 12 0
BBX 12 24 0 -5
BITMAP
0000
0000
0000
6000
6000
6000
6000
6000
7F80
60C0
6060
6060
6060
6060
6060
6060
6060
60C0
7F80
6000
6000
6000
6000
6000
ENDCHAR
STARTCHAR LATIN SMALL LETTER Y WITH DIAERESIS
ENCODING 255
SWIDTH 500 0
DWIDTH 12 0
BBX 12 24 0 -5
BITMAP
0000
0000
0000
30C0
30C0
0000
0000
0000
6060
6060
6060
6060
6060
6060
6060
6060
6060
3060
1FE0
0060
0060
0060
00C0
7F80
ENDCHAR
STARTCHAR LATIN CAPITAL LETTER A WITH MACRON
ENCODING 256
SWIDTH 500 0
DWIDTH 12 0
BBX 12 24 0 -5
BITMAP
0000
3FC0
0000
0000
1F80
30C0
6060
6060
6060
6060
6060
7FE0
6060
6060
6060
6060
6060
6060
6060
0000
0000
0000
0000
0000
ENDCHAR
STARTCHAR LATIN SMALL LETTER A WITH MACRON
ENCODING 257
SWIDTH 500 0
DWIDTH 12 0
BBX 12 24 0 -5
BITMAP
0000
0000
0000
0000
0000
3FC0
0000
0000
3F80
00C0
0060
0060
1FE0
3060
6060
6060
6060
3060
1FE0
0000
0000
0000
0000
0000
ENDCHAR
STARTCHAR LATIN CAPITAL LETTER A WITH BREVE
ENCODING 258
SWIDTH 500 0
DWIDTH 12 0
BBX 12 24 0 -5
BITMAP
1980
1980
0F00
0000
1F80
30C0
6060
6060
6060
6060
6060
7FE0
6060
6060
6060
6060
6060
6060
6060
0000
0000
0000
0000
0000
ENDCHAR
STARTCHAR LATIN SMALL LETTER A WITH BREVE
ENCODING 259
SWIDTH 500 0
DWIDTH 12 0
BBX 12 24 0 -5
BITMAP
0000
0000
0000
1980
1980
0F00
0000
0000
3F80
00C0
0060
0060
1FE0
3060
6060
6060
6060
3060
1FE0
0000
0000
0000
0000
0000
ENDCHAR
STARTCHAR LATIN CAPITAL LETTER A WITH OGONEK
ENCODING 260
SWIDTH 500 0
DWIDTH 12 0
BBX 12 24 0 -5
BITMAP
0000
0000
0000
0000
1F80
30C0
6060
6060
6060
6060
6060
7FE0
6060
6060
6060
6060
6060
6060
6060
00E0
0180
0180
00F0
0000
ENDCHAR
STARTCHAR LATIN SMALL LETTER A WITH OGONEK
ENCODING 261
SWIDTH 500 0
DWIDTH 12 0
BBX 12 24 0 -5
BITMAP
0000
0000
0000
0000
0000
0000
0000
0000
3F80
00C0
0060
0060
1FE0
3060
6060
6060
6060
3060
1FE0
00C0
0180
0180
00F0
0000
ENDCHAR
STARTCHAR LATIN CAPITAL LETTER C WITH ACUTE
ENCODING 262
SWIDTH 500 0
DWIDTH 12 0
BBX 12 24 0 -5
BITMAP
0180
0300
0600
0000
1FE0
3000
6000
6000
6000
6000
6000
6000
6000
6000
6000
6000
6000
3000
1FE0
0000
0000
0000
0000
0000
ENDCHAR
STARTCHAR LATIN SMALL LETTER C WITH ACUTE
ENCODING 263
SWIDTH 500 0
DWIDTH 12 0
BBX 12 24 0 -5
BITMAP
0000
0000
0180
0300
0600
0C00
0000
0000
1FE0
3000
6000
6000
6000
6000
6000
6000
6000
3000
1FE0
0000
0000
0000
0000
0000
ENDCHAR
STARTCHAR LATIN CAPITAL LETTER C WITH CIRCUMFLEX
ENCODING 264
SWIDTH 500 0
DWIDTH 12 0
BBX 12 24 0 -5
BITMAP
0F00
1980
30C0
0000
1FE0
3000
6000
6000
6000
6000
6000
6000
6000
6000
6000
6000
6000
3000
1FE0
0000
0000
0000
0000
0000
ENDCHAR
STARTCHAR LATIN SMALL LETTER C WITH CIRCUMFLEX
ENCODING 265
SWIDTH 500 0
DWIDTH 12 0
BBX 12 24 0 -5
BITMAP
0000
0000
0600
0F00
1980
30C0
0000
0000
1FE0
3000
6000
6000
6000
6000
6000
6000
6000
3000
1FE0
0000
0000
0000
0000
0000
ENDCHAR
STARTCHAR LATIN CAPITAL LETTER C WITH DOT ABOVE
ENCODING 266
SWIDTH 500 0
DWIDTH 12 0
BBX 12 24 0 -5
BITMAP
0000
0600
0600
0000
1FE0
3000
6000
6000
6000
6000
6000
6000
6000
6000
6000
6000
6000
3000
1FE0
0000
0000
0000
0000
0000
ENDCHAR
STARTCHAR LATIN SMALL LETTER C WITH DOT ABOVE
ENCODING 267
SWIDTH 500 0
DWIDTH 12 0
BBX 12 24 0 -5
BITMAP
0000
0000
0000
0600
0600
0000
0000
0000
1FE0
3000
6000
6000
6000
6000
6000
6000
6000
3000
1FE0
0000
0000
0000
0000
0000
ENDCHAR
STARTCHAR LATIN CAPITAL LETTER C WITH CARON
ENCODING 268
SWIDTH 500 0
DWIDTH 12 0
BBX 12 24 0 -5
BITMAP
30C0
1980
0F00
0000
1FE0
3000
6000
6000
6000
6000
6000
6000
6000
6000
6000
6000
6000
3000
1FE0
0000
0000
0000
0000
0000
ENDCHAR
STARTCHAR LATIN SMALL LETTER C WITH CARON
ENCODING 269
SWIDTH 500 0
DWIDTH 12 0
BBX 12 24 0 -5
BITMAP
0000
0000
30C0
1980
0F00
0600
0000
0000
1FE0
3000
6000
6000
6000
6000
6000
6000
6000
3000
1FE0
0000
0000
0000
0000
0000
ENDCHAR
STARTCHAR LATIN CAPITAL LETTER D WITH CARON
ENCODING 270
SWIDTH 500 0
DWIDTH 12 0
BBX 12 24 0 -5
BITMAP
30C0
1980
0F00
0000
7F80
60C0
6060
6060
6060
6060
6060
6060
6060
6060
6060
6060
6060
60C0
7F80
0000
0000
0000
0000
0000
ENDCHAR
STARTCHAR LATIN SMALL LETTER D WITH CARON
ENCODING 271
SWIDTH 500 0
DWIDTH 12 0
BBX 12 24 0 -5
BITMAP
30C0
1980
0F00
0000
0060
0060
0060
0060
1FE0
3060
6060
6060
6060
6060
6060
6060
6060
3060
1FE0
0000
0000
0000
0000
0000
ENDCHAR
STARTCHAR LATIN CAPITAL LETTER D WITH STROKE
ENCODING 272
SWIDTH 500 0
DWIDTH 12 0
BBX 12 24 0 -5
BITMAP
0000
0000
0000
0000
7FC0
60E0
6060
6060
6060
6060
6060
FC60
6060
6060
6060
6060
6060
60E0
7FC0
0000
0000
0000
0000
0000
ENDCHAR
STARTCHAR LATIN SMALL LETTER D WITH STROKE
ENCODING 273
SWIDTH 500 0
DWIDTH 12 0
BBX 12 24 0 -5
BITMAP
0000
0000
0000
0000
0060
03F0
0060
0060
1FE0
3060
6060
6060
6060
6060
6060
6060
6060
3060
1FE0
0000
0000
0000
0000
0000
ENDCHAR
STARTCHAR LATIN CAPITAL LETTER E WITH MACRON
ENCODING 274
SWIDTH 500 0
DWIDTH 12 0
BBX 12 24 0 -5
BITMAP
0000
3FC0
0000
0000
1FE0
3000
6000
6000
6000
6000
6000
7F80
6000
6000
6000
6000
6000
3000
1FE0
0000
0000
0000
0000
0000
ENDCHAR
STARTCHAR LATIN SMALL LETTER E WITH MACRON
ENCODING 275
SWIDTH 500 0
DWIDTH 12 0
BBX 12 24 0 -5
BITMAP
0000
0000
0000
0000
0000
3FC0
0000
0000
1FE0
3060
6060
6060
6060
7FE0
6000
6000
6000
3000
1FE0
0000
0000
0000
0000
0000
ENDCHAR
STARTCHAR LATIN CAPITAL LETTER E WITH BREVE
ENCODING 276
SWIDTH 500 0
DWIDTH 12 0
BBX 12 24 0 -5
BITMAP
1980
1980
0F00
0000
1FE0
3000
6000
6000
6000
6000
6000
7F80
6000
6000
6000
6000
6000
3000
1FE0
0000
0000
0000
0000
0000
ENDCHAR
STARTCHAR LATIN SMALL LETTER E WITH BREVE
ENCODING 277
SWIDTH 500 0
DWIDTH 12 0
BBX 12 24 0 -5
BITMAP
0000
0000
0000
1980
1980
0F00
0000
0000
1FE0
3060
6060
6060
6060
7FE0
6000
6000
6000
3000
1FE0
0000
0000
0000
0000
0000
ENDCHAR
STARTCHAR LATIN CAPITAL LETTER E WITH DOT ABOVE
ENCODING 278
SWIDTH 500 0
DWIDTH 12 0
BBX 12 24 0 -5
BITMAP
0000
0600
0600
0000
1FE0
3000
6000
6000
6000
6000
6000
7F80
6000
6000
6000
6000
6000
3000
1FE0
0000
0000
0000
0000
0000
ENDCHAR
STARTCHAR LATIN SMALL LETTER E WITH DOT ABOVE
ENCODING 279
SWIDTH 500 0
DWIDTH 12 0
BBX 12 24 0 -5
BITMAP
0000
0000
0000
0600
0600
0000
0000
0000
1FE0
3060
6060
6060
6060
7FE0
6000
6000
6000
3000
1FE0
0000
0000
0000
0000
0000
ENDCHAR
STARTCHAR LATIN CAPITAL LETTER E WITH OGONEK
ENCODING 280
SWIDTH 500 0
DWIDTH 12 0
BBX 12 24 0 -5
BITMAP
0000
0000
0000
0000
1FE0
3000
6000
6000
6000
6000
6000
7F80
6000
6000
6000
6000
6000
3000
1FE0
00C0
0180
0180
00F0
0000
ENDCHAR
STARTCHAR LATIN SMALL LETTER E WITH OGONEK
ENCODING 281
SWIDTH 500 0
DWIDTH 12 0
BBX 12 24 0 -5
BITMAP
0000
0000
0000
0000
0000
0000
0000
0000
1FE0
3060
6060
6060
6060
7FE0
6000
6000
6000
3000
1FE0
00C0
0180
0180
00F0
0000
ENDCHAR
STARTCHAR LATIN CAPITAL LETTER E WITH CARON
ENCODING 282
SWIDTH 500 0
DWIDTH 12 0
BBX 12 24 0 -5
BITMAP
30C0
1980
0F00
0000
1FE0
3000
6000
6000
6000
6000
6000
7F80
6000
6000
6000
6000
6000
3000
1FE0
0000
0000
0000
0000
0000
ENDCHAR
STARTCHAR LATIN SMALL LETTER E WITH CARON
ENCODING 283
SWIDTH 500 0
DWIDTH 12 0
BBX 12 24 0 -5
BITMAP
0000
0000
30C0
1980
0F00
0600
0000
0000
1FE0
3060
6060
6060
6060
7FE0
6000
6000
6000
3000
1FE0
0000
0000
0000
0000
0000
ENDCHAR
STARTCHAR LATIN CAPITAL LETTER G WITH CIRCUMFLEX
ENCODING 284
SWIDTH 500 0
DWIDTH 12 0
BBX 12 24 0 -5
BITMAP
0F00
1980
30C0
0000
1FE0
3000
6000
6000
6000
6000
6000
63E0
6060
6060
6060
6060
6060
3060
1FE0
0000
0000
0000
0000
0000
ENDCHAR
STARTCHAR LATIN SMALL LETTER G WITH CIRCUMFLEX
ENCODING 285
SWIDTH 500 0
DWIDTH 12 0
BBX 12 24 0 -5
BITMAP
0000
0000
0600
0F00
1980
30C0
0000
0000
1FE0
3060
6060
6060
6060
6060
6060
6060
6060
3060
1FC0
00C0
0060
0060
00C0
3F80
ENDCHAR
STARTCHAR LATIN CAPITAL LETTER G WITH BREVE
ENCODING 286
SWIDTH 500 0
DWIDTH 12 0
BBX 12 24 0 -5
BITMAP
1980
1980
0F00
0000
1FE0
3000
6000
6000
6000
6000
6000
63E0
6060
6060
6060
6060
6060
3060
1FE0
0000
0000
0000
0000
0000
ENDCHAR
STARTCHAR LATIN SMALL LETTER G WITH BREVE
ENCODING 287
SWIDTH 500 0
DWIDTH 12 0
BBX 12 24 0 -5
BITMAP
0000
0000
0000
1980
1980
0F00
0000
0000
1FE0
3060
6060
6060
6060
6060
6060
6060
6060
3060
1FC0
00C0
0060
0060
00C0
3F80
ENDCHAR
STARTCHAR LATIN CAPITAL LETTER G WITH DOT ABOVE
ENCODING 288
SWIDTH 500 0
DWIDTH 12 0
BBX 12 24 0 -5
BITMAP
0000
0600
0600
0000
1FE0
3000
6000
6000
6000
6000
6000
63E0
6060
6060
6060
6060
6060
3060
1FE0
0000
0000
0000
0000
0000
ENDCHAR
STARTCHAR LATIN SMALL LETTER G WITH DOT ABOVE
ENCODING 289
SWIDTH 500 0
DWIDTH 12 0
BBX 12 24 0 -5
BITMAP
0000
0000
0000
0600
0600
0000
0000
0000
1FE0
3060
6060
6060
6060
6060
6060
6060
6060
3060
1FC0
00C0
0060
0060
00C0
3F80
ENDCHAR
STARTCHAR LATIN CAPITAL LETTER G WITH CEDILLA
ENCODING 290
SWIDTH 500 0
DWIDTH 12 0
BBX 12 24 0 -5
BITMAP
0000
0000
0000
0000
1FE0
3000
6000
6000
6000
6000
6000
63E0
6060
6060
6060
6060
6060
3060
1FE0
0300
0300
0300
0600
0C00
ENDCHAR
STARTCHAR LATIN SMALL LETTER G WITH CEDILLA
ENCODING 291
SWIDTH 500 0
DWIDTH 12 0
BBX 12 24 0 -5
BITMAP
0000
0300
0300
0300
0600
0C00
0000
0000
1FE0
3060
6060
6060
6060
6060
6060
6060
6060
3060
1FC0
00C0
0060
0060
00C0
3F80
ENDCHAR
STARTCHAR LATIN CAPITAL LETTER H WITH CIRCUMFLEX
ENCODING 292
SWIDTH 500 0
DWIDTH 12 0
BBX 12 24 0 -5
BITMAP
0F00
1980
30C0
0000
6060
6060
6060
6060
6060
6060
6060
7FE0
6060
6060
6060
6060
6060
6060
6060
0000
0000
0000
0000
0000
ENDCHAR
STARTCHAR LATIN SMALL LETTER H WITH CIRCUMFLEX
ENCODING 293
SWIDTH 500 0
DWIDTH 12 0
BBX 12 24 0 -5
BITMAP
0F00
1980
30C0
0000
6000
6000
6000
6000
7F80
60C0
6060
6060
6060
6060
6060
6060
6060
6060
6060
0000
0000
0000
0000
0000
ENDCHAR
STARTCHAR LATIN CAPITAL LETTER H WITH STROKE
ENCODING 294
SWIDTH 500 0
DWIDTH 12 0
BBX 12 24 0 -5
BITMAP
0000
0000
0000
0000
6060
6060
FFF0
6060
6060
6060
6060
7FE0
6060
6060
6060
6060
6060
6060
6060
0000
0000
0000
0000
0000
ENDCHAR
STARTCHAR LATIN SMALL LETTER H WITH STROKE
ENCODING 295
SWIDTH 500 0
DWIDTH 12 0
BBX 12 24 0 -5
BITMAP
0000
0000
0000
0000
6000
FC00
6000
6000
7F80
60C0
6060
6060
6060
6060
6060
6060
6060
6060
6060
0000
0000
0000
0000
0000
ENDCHAR
STARTCHAR LATIN CAPITAL LETTER I WITH TILDE
ENCODING 296
SWIDTH 500 0
DWIDTH 12 0
BBX 12 24 0 -5
BITMAP
1C60
3FC0
6380
0000
3FC0
0600
0600
0600
0600
0600
0600
0600
0600
0600
0600
0600
0600
0600
3FC0
0000
0000
0000
0000
0000
ENDCHAR
STARTCHAR LATIN SMALL LETTER I WITH TILDE
ENCODING 297
SWIDTH 500 0
DWIDTH 12 0
BBX 12 24 0 -5
BITMAP
0000
0000
1860
3C60
66C0
6380
0000
0000
1E00
0600
0600
0600
0600
0600
0600
0600
0600
0600
0780
0000
0000
0000
0000
0000
ENDCHAR
STARTCHAR LATIN CAPITAL LETTER I WITH MACRON
ENCODING 298
SWIDTH 500 0
DWIDTH 12 0
BBX 12 24 0 -5
BITMAP
0000
3FC0
0000
0000
3FC0
0600
0600
0600
0600
0600
0600
0600
0600
0600
0600
0600
0600
0600
3FC0
0000
0000
0000
0000
0000
ENDCHAR
STARTCHAR LATIN SMALL LETTER I WITH MACRON
ENCODING 299
SWIDTH 500 0
DWIDTH 12 0
BBX 12 24 0 -5
BITMAP
0000
0000
0000
0000
0000
3FC0
0000
0000
1E00
0600
0600
0600
0600
0600
0600
0600
0600
0600
0780
0000
0000
0000
0000
0000
ENDCHAR
STARTCHAR LATIN CAPITAL LETTER I WITH BREVE
ENCODING 300
SWIDTH 500 0
DWIDTH 12 0
BBX 12 24 0 -5
BITMAP
1980
1980
0F00
0000
3FC0
0600
0600
0600
0600
0600
0600
0600
0600
0600
0600
0600
0600
0600
3FC0
0000
0000
0000
0000
0000
ENDCHAR
STARTCHAR LATIN SMALL LETTER I WITH BREVE
ENCODING 301
SWIDTH 500 0
DWIDTH 12 0
BBX 12 24 0 -5
BITMAP
0000
0000
0000
1980
1980
0F00
0000
0000
1E00
0600
0600
0600
0600
0600
0600
0600
0600
0600
0780
0000
0000
0000
0000
0000
ENDCHAR
STARTCHAR LATIN CAPITAL LETTER I WITH OGONEK
ENCODING 302
SWIDTH 500 0
DWIDTH 12 0
BBX 12 24 0 -5
BITMAP
0000
0000
0000
0000
3FC0
0600
0600
0600
0600
0600
0600
0600
0600
0600
0600
0600
0600
0600
3FC0
0180
0300
0300
01E0
0000
ENDCHAR
STARTCHAR LATIN SMALL LETTER I WITH OGONEK
ENCODING 303
SWIDTH 500 0
DWIDTH 12 0
BBX 12 24 0 -5
BITMAP
0000
0000
0000
0000
0600
0600
0000
0000
1E00
0600
0600
0600
0600
0600
0600
0600
0600
0600
0780
0300
0600
0600
03C0
0000
ENDCHAR
STARTCHAR LATIN CAPITAL LETTER I WITH DOT ABOVE
ENCODING 304
SWIDTH 500 0
DWIDTH 12 0
BBX 12 24 0 -5
BITMAP
0000
0600
0600
0000
3FC0
0600
0600
0600
0600
0600
0600
0600
0600
0600
0600
0600
0600
0600
3FC0
0000
0000
0000
0000
0000
ENDCHAR
STARTCHAR LATIN SMALL LETTER DOTLESS I
ENCODING 305
SWIDTH 500 0
DWIDTH 12 0
BBX 12 24 0 -5
BITMAP
0000
0000
0000
0000
0000
0000
0000
0000
1E00
0600
0600
0600
0600
0600
0600
0600
0600
0600
0780
0000
0000
0000
0000
0000
ENDCHAR
STARTCHAR LATIN CAPITAL LIGATURE IJ
ENCODING 306
SWIDTH 500 0
DWIDTH 12 0
BBX 12 24 0 -5
BITMAP
0000
0000
0000
0000
F1E0
60C0
60C0
60C0
60C0
60C0
60C0
60C0
60C0
60C0
60C0
60C0
60C0
61C0
F780
0000
0000
0000
0000
0000
ENDCHAR
STARTCHAR LATIN SMALL LIGATURE IJ
ENCODING 307
SWIDTH 500 0
DWIDTH 12 0
BBX 12 24 0 -5
BITMAP
0000
0000
0000
0000
30C0
30C0
0000
0000
F0C0
30C0
30C0
30C0
30C0
30C0
30C0
30C0
30C0
30C0
3CC0
00C0
00C0
00C0
0180
0F00
ENDCHAR
STARTCHAR LATIN CAPITAL LETTER J WITH CIRCUMFLEX
ENCODING 308
SWIDTH 500 0
DWIDTH 12 0
BBX 12 24 0 -5
BITMAP
0F00
1980
30C0
0000
3FC0
0600
0600
0600
0600
0600
0600
0600
0600
0600
0600
0600
0600
0E00
7C00
0000
0000
0000
0000
0000
ENDCHAR
STARTCHAR LATIN SMALL LETTER J WITH CIRCUMFLEX
ENCODING 309
SWIDTH 500 0
DWIDTH 12 0
BBX 12 24 0 -5
BITMAP
0000
0000
0600
0F00
1980
30C0
0000
0000
0600
0600
0600
0600
0600
0600
0600
0600
0600
0600
0600
0600
0600
0600
0C00
7800
ENDCHAR
STARTCHAR LATIN CAPITAL LETTER K WITH CEDILLA
ENCODING 310
SWIDTH 500 0
DWIDTH 12 0
BBX 12 24 0 -5
BITMAP
0000
0000
0000
0000
6060
6060
6060
6060
6060
60C0
6180
7F00
6180
60C0
6060
6060
6060
6060
6060
0600
0600
0600
0C00
1800
ENDCHAR
STARTCHAR LATIN SMALL LETTER K WITH CEDILLA
ENCODING 311
SWIDTH 500 0
DWIDTH 12 0
BBX 12 24 0 -5
BITMAP
0000
0000
0000
0000
3000
3000
3000
3000
30C0
30C0
3180
3300
3E00
3600
3300
3180
30C0
3060
3060
0300
0300
0300
0600
0C00
ENDCHAR
STARTCHAR LATIN SMALL LETTER KRA
ENCODING 312
SWIDTH 500 0
DWIDTH 12 0
BBX 12 24 0 -5
BITMAP
0000
0000
0000
0000
0000
0000
0000
0000
30C0
30C0
3180
3300
3600
3C00
3600
3300
3180
30C0
30C0
0000
0000
0000
0000
0000
ENDCHAR
STARTCHAR LATIN CAPITAL LETTER L WITH ACUTE
ENCODING 313
SWIDTH 500 0
DWIDTH 12 0
BBX 12 24 0 -5
BITMAP
0180
0300
0600
0000
6000
6000
6000
6000
6000
6000
6000
6000
6000
6000
6000
6000
6000
3000
1FE0
0000
0000
0000
0000
0000
ENDCHAR
STARTCHAR LATIN SMALL LETTER L WITH ACUTE
ENCODING 314
SWIDTH 500 0
DWIDTH 12 0
BBX 12 24 0 -5
BITMAP
0180
0300
0600
0000
0C00
0C00
0C00
0C00
0C00
0C00
0C00
0C00
0C00
0C00
0C00
0C00
0C00
0E00
07C0
0000
0000
0000
0000
0000
ENDCHAR
STARTCHAR LATIN CAPITAL LETTER L WITH CEDILLA
ENCODING 315
SWIDTH 500 0
DWIDTH 12 0
BBX 12 24 0 -5
BITMAP
0000
0000
0000
0000
6000
6000
6000
6000
6000
6000
6000
6000
6000
6000
6000
6000
6000
3000
1FE0
0300
0300
0300
0600
0C00
ENDCHAR
STARTCHAR LATIN SMALL LETTER L WITH CEDILLA
ENCODING 316
SWIDTH 500 0
DWIDTH 12 0
BBX 12 24 0 -5
BITMAP
0000
0000
0000
0000
0C00
0C00
0C00
0C00
0C00
0C00
0C00
0C00
0C00
0C00
0C00
0C00
0C00
0E00
07C0
0300
0300
0300
0600
0C00
ENDCHAR
STARTCHAR LATIN CAPITAL LETTER L WITH CARON
ENCODING 317
SWIDTH 500 0
DWIDTH 12 0
BBX 12 24 0 -5
BITMAP
30C0
1980
0F00
0000
6000
6000
6000
6000
6000
6000
6000
6000
6000
6000
6000
6000
6000
3000
1FE0
0000
0000
0000
0000
0000
ENDCHAR
STARTCHAR LATIN SMALL LETTER L WITH CARON
ENCODING 318
SWIDTH 500 0
DWIDTH 12 0
BBX 12 24 0 -5
BITMAP
30C0
1980
0F00
0000
0C00
0C00
0C00
0C00
0C00
0C00
0C00
0C00
0C00
0C00
0C00
0C00
0C00
0E00
07C0
0000
0000
0000
0000
0000
ENDCHAR
STARTCHAR LATIN CAPITAL LETTER L WITH MIDDLE DOT
ENCODING 319
SWIDTH 500 0
DWIDTH 12 0
BBX 12 24 0 -5
BITMAP
0000
0000
0000
0000
6000
6000
6000
6000
6000
6000
6000
6180
6180
6000
6000
6000
6000
3000
1FE0
0000
0000
0000
0000
0000
ENDCHAR
STARTCHAR LATIN SMALL LETTER L WITH MIDDLE DOT
ENCODING 320
SWIDTH 500 0
DWIDTH 12 0
BBX 12 24 0 -5
BITMAP
0000
0000
0000
0000
0C00
0C00
0C00
0C00
0C00
0C00
0C00
0CC0
0CC0
0C00
0C00
0C00
0C00
0E00
07C0
0000
0000
0000
0000
0000
ENDCHAR
STARTCHAR LATIN CAPITAL LETTER L WITH STROKE
ENCODING 321
SWIDTH 500 0
DWIDTH 12 0
BBX 12 24 0 -5
BITMAP
0000
0000
0000
0000
6000
6000
6000
6000
6C00
7800
7000
6000
E000
E000
6000
6000
6000
3000
1FE0
0000
0000
0000
0000
0000
ENDCHAR
STARTCHAR LATIN SMALL LETTER L WITH STROKE
ENCODING 322
SWIDTH 500 0
DWIDTH 12 0
BBX 12 24 0 -5
BITMAP
0000
0000
0000
0000
0C00
0C00
0C00
0C00
0D80
0F00
0E00
0C00
1C00
1C00
0C00
0C00
0C00
0E00
07C0
0000
0000
0000
0000
0000
ENDCHAR
STARTCHAR LATIN CAPITAL LETTER N WITH ACUTE
ENCODING 323
SWIDTH 500 0
DWIDTH 12 0
BBX 12 24 0 -5
BITMAP
0300
0600
0C00
0000
6060
7060
7060
7860
7860
6C60
6C60
6660
6660
6360
6360
61E0
61E0
60E0
60E0
0000
0000
0000
0000
0000
ENDCHAR
STARTCHAR LATIN SMALL LETTER N WITH ACUTE
ENCODING 324
SWIDTH 500 0
DWIDTH 12 0
BBX 12 24 0 -5
BITMAP
0000
0000
0180
0300
0600
0C00
0000
0000
7F80
60C0
6060
6060
6060
6060
6060
6060
6060
6060
6060
0000
0000
0000
0000
0000
ENDCHAR
STARTCHAR LATIN CAPITAL LETTER N WITH CEDILLA
ENCODING 325
SWIDTH 500 0
DWIDTH 12 0
BBX 12 24 0 -5
BITMAP
0000
0000
0000
0000
6060
7060
7060
7860
7860
6C60
6C60
6660
6660
6360
6360
61E0
61E0
60E0
60E0
0600
0600
0600
0C00
1800
ENDCHAR
STARTCHAR LATIN SMALL LETTER N WITH CEDILLA
ENCODING 326
SWIDTH 500 0
DWIDTH 12 0
BBX 12 24 0 -5
BITMAP
0000
0000
0000
0000
0000
0000
0000
0000
7F80
60C0
6060
6060
6060
6060
6060
6060
6060
6060
6060
0600
0600
0600
0C00
1800
ENDCHAR
STARTCHAR LATIN CAPITAL LETTER N WITH CARON
ENCODING 327
SWIDTH 500 0
DWIDTH 12 0
BBX 12 24 0 -5
BITMAP
30C0
1980
0F00
0000
6060
7060
7060
7860
7860
6C60
6C60
6660
6660
6360
6360
61E0
61E0
60E0
60E0
0000
0000
0000
0000
0000
ENDCHAR
STARTCHAR LATIN SMALL LETTER N WITH CARON
ENCODING 328
SWIDTH 500 0
DWIDTH 12 0
BBX 12 24 0 -5
BITMAP
0000
0000
30C0
1980
0F00
0600
0000
0000
7F80
60C0
6060
6060
6060
6060
6060
6060
6060
6060
6060
0000
0000
0000
0000
0000
ENDCHAR
STARTCHAR LATIN SMALL LETTER N PRECEDED BY APOSTROPHE
ENCODING 329
SWIDTH 500 0
DWIDTH 12 0
BBX 12 24 0 -5
BITMAP
0000
3000
3000
3000
6000
C000
0000
0000
7F80
60C0
6060
6060
6060
6060
6060
6060
6060
6060
6060
0000
0000
0000
0000
0000
ENDCHAR
STARTCHAR LATIN CAPITAL LETTER ENG
ENCODING 330
SWIDTH 500 0
DWIDTH 12 0
BBX 12 24 0 -5
BITMAP
0000
0000
0000
0000
6060
7060
7060
7860
7860
6C60
6C60
6660
6660
6360
6360
61E0
61E0
60E0
60E0
0060
0060
00C0
0380
0000
ENDCHAR
STARTCHAR LATIN SMALL LETTER ENG
ENCODING 331
SWIDTH 500 0
DWIDTH 12 0
BBX 12 24 0 -5
BITMAP
0000
0000
0000
0000
0000
0000
0000
0000
7F80
60C0
6060
6060
6060
6060
6060
6060
6060
6060
6060
0060
0060
00C0
0380
0000
ENDCHAR
STARTCHAR LATIN CAPITAL LETTER O WITH MACRON
ENCODING 332
SWIDTH 500 0
DWIDTH 12 0
BBX 12 24 0 -5
BITMAP
0000
3FC0
0000
0000
1F80
30C0
6060
6060
6060
6060
6060
6060
6060
6060
6060
6060
6060
30C0
1F80
0000
0000
0000
0000
0000
ENDCHAR
STARTCHAR LATIN SMALL LETTER O WITH MACRON
ENCODING 333
SWIDTH 500 0
DWIDTH 12 0
BBX 12 24 0 -5
BITMAP
0000
0000
0000
0000
0000
3FC0
0000
0000
1F80
30C0
6060
6060
6060
6060
6060
6060
6060
30C0
1F80
0000
0000
0000
0000
0000
ENDCHAR
STARTCHAR LATIN CAPITAL LETTER O WITH BREVE
ENCODING 334
SWIDTH 500 0
DWIDTH 12 0
BBX 12 24 0 -5
BITMAP
1980
1980
0F00
0000
1F80
30C0
6060
6060
6060
6060
6060
6060
6060
6060
6060
6060
6060
30C0
1F80
0000
0000
0000
0000
0000
ENDCHAR
STARTCHAR LATIN SMALL LETTER O WITH BREVE
ENCODING 335
SWIDTH 500 0
DWIDTH 12 0
BBX 12 24 0 -5
BITMAP
0000
0000
0000
1980
1980
0F00
0000
0000
1F80
30C0
6060
6060
6060
6060
6060
6060
6060
30C0
1F80
0000
0000
0000
0000
0000
ENDCHAR
STARTCHAR LATIN CAPITAL LETTER O WITH DOUBLE ACUTE
ENCODING 336
SWIDTH 500 0
DWIDTH 12 0
BBX 12 24 0 -5
BITMAP
0660
0CC0
1980
0000
1F80
30C0
6060
6060
6060
6060
6060
6060
6060
6060
6060
6060
6060
30C0
1F80
0000
0000
0000
0000
0000
ENDCHAR
STARTCHAR LATIN SMALL LETTER O WITH DOUBLE ACUTE
ENCODING 337
SWIDTH 500 0
DWIDTH 12 0
BBX 12 24 0 -5
BITMAP
0000
0000
0660
0CC0
1980
3300
0000
0000
1F80
30C0
6060
6060
6060
6060
6060
6060
6060
30C0
1F80
0000
0000
0000
0000
0000
ENDCHAR
STARTCHAR LATIN CAPITAL LIGATURE OE
ENCODING 338
SWIDTH 500 0
DWIDTH 12 0
BBX 12 24 0 -5
BITMAP
0000
0000
0000
0000
1FE0
3300
6300
6300
6300
6300
6300
63C0
6300
6300
6300
6300
6300
3300
1FE0
0000
0000
0000
0000
0000
ENDCHAR
STARTCHAR LATIN SMALL LIGATURE OE
ENCODING 339
SWIDTH 500 0
DWIDTH 12 0
BBX 12 24 0 -5
BITMAP
0000
0000
0000
0000
0000
0000
0000
0000
1DE0
3760
6660
6660
67E0
6600
6600
6600
6600
3700
1DE0
0000
0000
0000
0000
0000
ENDCHAR
STARTCHAR LATIN CAPITAL LETTER R WITH ACUTE
ENCODING 340
SWIDTH 500 0
DWIDTH 12 0
BBX 12 24 0 -5
BITMAP
0180
0300
0600
0000
7F80
60C0
6060
6060
6060
6060
60C0
7F80
60C0
6060
6060
6060
6060
6060
6060
0000
0000
0000
0000
0000
ENDCHAR
STARTCHAR LATIN SMALL LETTER R WITH ACUTE
ENCODING 341
SWIDTH 500 0
DWIDTH 12 0
BBX 12 24 0 -5
BITMAP
0000
0000
0180
0300
0600
0C00
0000
0000
1FE0
3060
6000
6000
6000
6000
6000
6000
6000
6000
6000
0000
0000
0000
0000
0000
ENDCHAR
STARTCHAR LATIN CAPITAL LETTER R WITH CEDILLA
ENCODING 342
SWIDTH 500 0
DWIDTH 12 0
BBX 12 24 0 -5
BITMAP
0000
0000
0000
0000
7F80
60C0
6060
6060
6060
6060
60C0
7F80
60C0
6060
6060
6060
6060
6060
6060
0600
0600
0600
0C00
1800
ENDCHAR
STARTCHAR LATIN SMALL LETTER R WITH CEDILLA
ENCODING 343
SWIDTH 500 0
DWIDTH 12 0
BBX 12 24 0 -5
BITMAP
0000
0000
0000
0000
0000
0000
0000
0000
1FE0
3060
6000
6000
6000
6000
6000
6000
6000
6000
6000
0600
0600
0600
0C00
1800
ENDCHAR
STARTCHAR LATIN CAPITAL LETTER R WITH CARON
ENCODING 344
SWIDTH 500 0
DWIDTH 12 0
BBX 12 24 0 -5
BITMAP
30C0
1980
0F00
0000
7F80
60C0
6060
6060
6060
6060
60C0
7F80
60C0
6060
6060
6060
6060
6060
6060
0000
0000
0000
0000
0000
ENDCHAR
STARTCHAR LATIN SMALL LETTER R WITH CARON
ENCODING 345
SWIDTH 500 0
DWIDTH 12 0
BBX 12 24 0 -5
BITMAP
0000
0000
30C0
1980
0F00
0600
0000
0000
1FE0
3060
6000
6000
6000
6000
6000
6000
6000
6000
6000
0000
0000
0000
0000
0000
ENDCHAR
STARTCHAR LATIN CAPITAL LETTER S WITH ACUTE
ENCODING 346
SWIDTH 500 0
DWIDTH 12 0
BBX 12 24 0 -5
BITMAP
0180
0300
0600
0000
1FE0
3000
6000
6000
6000
6000
3000
1F80
00C0
0060
0060
0060
0060
00C0
7F80
0000
0000
0000
0000
0000
ENDCHAR
STARTCHAR LATIN SMALL LETTER S WITH ACUTE
ENCODING 347
SWIDTH 500 0
DWIDTH 12 0
BBX 12 24 0 -5
BITMAP
0000
0000
0180
0300
0600
0C00
0000
0000
3FE0
6000
6000
6000
6000
3FC0
0060
0060
0060
0060
7FC0
0000
0000
0000
0000
0000
ENDCHAR
STARTCHAR LATIN CAPITAL LETTER S WITH CIRCUMFLEX
ENCODING 348
SWIDTH 500 0
DWIDTH 12 0
BBX 12 24 0 -5
BITMAP
0F00
1980
30C0
0000
1FE0
3000
6000
6000
6000
6000
3000
1F80
00C0
0060
0060
0060
0060
00C0
7F80
0000
0000
0000
0000
0000
ENDCHAR
STARTCHAR LATIN SMALL LETTER S WITH CIRCUMFLEX
ENCODING 349
SWIDTH 500 0
DWIDTH 12 0
BBX 12 24 0 -5
BITMAP
0000
0000
0600
0F00
1980
30C0
0000
0000
3FE0
6000
6000
6000
6000
3FC0
0060
0060
0060
0060
7FC0
0000
0000
0000
0000
0000
ENDCHAR
STARTCHAR LATIN CAPITAL LETTER S WITH CEDILLA
ENCODING 350
SWIDTH 500 0
DWIDTH 12 0
BBX 12 24 0 -5
BITMAP
0000
0000
0000
0000
1FE0
3000
6000
6000
6000
6000
3000
1F80
00C0
0060
0060
0060
0060
00C0
7F80
0600
0600
0600
0C00
1800
ENDCHAR
STARTCHAR LATIN SMALL LETTER S WITH CEDILLA
ENCODING 351
SWIDTH 500 0
DWIDTH 12 0
BBX 12 24 0 -5
BITMAP
0000
0000
0000
0000
0000
0000
0000
0000
3FE0
6000
6000
6000
6000
3FC0
0060
0060
0060
0060
7FC0
0600
0600
0600
0C00
1800
ENDCHAR
STARTCHAR LATIN CAPITAL LETTER S WITH CARON
ENCODING 352
SWIDTH 500 0
DWIDTH 12 0
BBX 12 24 0 -5
BITMAP
30C0
1980
0F00
0000
1FE0
3000
6000
6000
6000
6000
3000
1F80
00C0
0060
0060
0060
0060
00C0
7F80
0000
0000
0000
0000
0000
ENDCHAR
STARTCHAR LATIN SMALL LETTER S WITH CARON
ENCODING 353
SWIDTH 500 0
DWIDTH 12 0
BBX 12 24 0 -5
BITMAP
0000
0000
30C0
1980
0F00
0600
0000
0000
3FE0
6000
6000
6000
6000
3FC0
0060
0060
0060
0060
7FC0
0000
0000
0000
0000
0000
ENDCHAR
STARTCHAR LATIN CAPITAL LETTER T WITH CEDILLA
ENCODING 354
SWIDTH 500 0
DWIDTH 12 0
BBX 12 24 0 -5
BITMAP
0000
0000
0000
0000
7FE0
0600
0600
0600
0600
0600
0600
0600
0600
0600
0600
0600
0600
0600
0600
0300
0300
0300
0600
0C00
ENDCHAR
STARTCHAR LATIN SMALL LETTER T WITH CEDILLA
ENCODING 355
SWIDTH 500 0
DWIDTH 12 0
BBX 12 24 0 -5
BITMAP
0000
0000
0000
0000
0C00
0C00
0C00
0C00
3F80
0C00
0C00
0C00
0C00
0C00
0C00
0C00
0C00
0E00
07C0
0300
0300
0300
0600
0C00
ENDCHAR
STARTCHAR LATIN CAPITAL LETTER T WITH CARON
ENCODING 356
SWIDTH 500 0
DWIDTH 12 0
BBX 12 24 0 -5
BITMAP
30C0
1980
0F00
0000
7FE0
0600
0600
0600
0600
0600
0600
0600
0600
0600
0600
0600
0600
0600
0600
0000
0000
0000
0000
0000
ENDCHAR
STARTCHAR LATIN SMALL LETTER T WITH CARON
ENCODING 357
SWIDTH 500 0
DWIDTH 12 0
BBX 12 24 0 -5
BITMAP
30C0
1980
0F00
0000
0C00
0C00
0C00
0C00
3F80
0C00
0C00
0C00
0C00
0C00
0C00
0C00
0C00
0E00
07C0
0000
0000
0000
0000
0000
ENDCHAR
STARTCHAR LATIN CAPITAL LETTER T WITH STROKE
ENCODING 358
SWIDTH 500 0
DWIDTH 12 0
BBX 12 24 0 -5
BITMAP
0000
0000
0000
0000
7FE0
0600
0600
0600
0600
0600
0600
1F80
0600
0600
0600
0600
0600
0600
0600
0000
0000
0000
0000
0000
ENDCHAR
STARTCHAR LATIN SMALL LETTER T WITH STROKE
ENCODING 359
SWIDTH 500 0
DWIDTH 12 0
BBX 12 24 0 -5
BITMAP
0000
0000
0000
0000
0C00
0C00
0C00
0C00
3F80
0C00
0C00
3F80
0C00
0C00
0C00
0C00
0C00
0E00
07C0
0000
0000
0000
0000
0000
ENDCHAR
STARTCHAR LATIN CAPITAL LETTER U WITH TILDE
ENCODING 360
SWIDTH 500 0
DWIDTH 12 0
BBX 12 24 0 -5
BITMAP
1C60
3FC0
6380
0000
6060
6060
6060
6060
6060
6060
6060
6060
6060
6060
6060
6060
6060
3060
1FE0
0000
0000
0000
0000
0000
ENDCHAR
STARTCHAR LATIN SMALL LETTER U WITH TILDE
ENCODING 361
SWIDTH 500 0
DWIDTH 12 0
BBX 12 24 0 -5
BITMAP
0000
0000
1860
3C60
66C0
6380
0000
0000
6060
6060
6060
6060
6060
6060
6060
6060
6060
3060
1FE0
0000
0000
0000
0000
0000
ENDCHAR
STARTCHAR LATIN CAPITAL LETTER U WITH MACRON
ENCODING 362
SWIDTH 500 0
DWIDTH 12 0
BBX 12 24 0 -5
BITMAP
0000
3FC0
0000
0000
6060
6060
6060
6060
6060
6060
6060
6060
6060
6060
6060
6060
6060
3060
1FE0
0000
0000
0000
0000
0000
ENDCHAR
STARTCHAR LATIN SMALL LETTER U WITH MACRON
ENCODING 363
SWIDTH 500 0
DWIDTH 12 0
BBX 12 24 0 -5
BITMAP
0000
0000
0000
0000
0000
3FC0
0000
0000
6060
6060
6060
6060
6060
6060
6060
6060
6060
3060
1FE0
0000
0000
0000
0000
0000
ENDCHAR
STARTCHAR LATIN CAPITAL LETTER U WITH BREVE
ENCODING 364
SWIDTH 500 0
DWIDTH 12 0
BBX 12 24 0 -5
BITMAP
1980
1980
0F00
0000
6060
6060
6060
6060
6060
6060
6060
6060
6060
6060
6060
6060
6060
3060
1FE0
0000
0000
0000
0000
0000
ENDCHAR
STARTCHAR LATIN SMALL LETTER U WITH BREVE
ENCODING 365
SWIDTH 500 0
DWIDTH 12 0
BBX 12 24 0 -5
BITMAP
0000
0000
0000
1980
1980
0F00
0000
0000
6060
6060
6060
6060
6060
6060
6060
6060
6060
3060
1FE0
0000
0000
0000
0000
0000
ENDCHAR
STARTCHAR LATIN CAPITAL LETTER U WITH RING ABOVE
ENCODING 366
SWIDTH 500 0
DWIDTH 12 0
BBX 12 24 0 -5
BITMAP
0F00
1980
1980
0F00
6060
6060
6060
6060
6060
6060
6060
6060
6060
6060
6060
6060
6060
3060
1FE0
0000
0000
0000
0000
0000
ENDCHAR
STARTCHAR LATIN SMALL LETTER U WITH RING ABOVE
ENCODING 367
SWIDTH 500 0
DWIDTH 12 0
BBX 12 24 0 -5
BITMAP
0000
0000
0F00
1980
1980
0F00
0000
0000
6060
6060
6060
6060
6060
6060
6060
6060
6060
3060
1FE0
0000
0000
0000
0000
0000
ENDCHAR
STARTCHAR LATIN CAPITAL LETTER U WITH DOUBLE ACUTE
ENCODING 368
SWIDTH 500 0
DWIDTH 12 0
BBX 12 24 0 -5
BITMAP
0660
0CC0
1980
0000
6060
6060
6060
6060
6060
6060
6060
6060
6060
6060
6060
6060
6060
3060
1FE0
0000
0000
0000
0000
0000
ENDCHAR
STARTCHAR LATIN SMALL LETTER U WITH DOUBLE ACUTE
ENCODING 369
SWIDTH 500 0
DWIDTH 12 0
BBX 12 24 0 -5
BITMAP
0000
0000
0660
0CC0
1980
3300
0000
0000
6060
6060
6060
6060
6060
6060
6060
6060
6060
3060
1FE0
0000
0000
0000
0000
0000
ENDCHAR
STARTCHAR LATIN CAPITAL LETTER U WITH OGONEK
ENCODING 370
SWIDTH 500 0
DWIDTH 12 0
BBX 12 24 0 -5
BITMAP
0000
0000
0000
0000
6060
6060
6060
6060
6060
6060
6060
6060
6060
6060
6060
6060
6060
3060
1FE0
00C0
0180
0180
00F0
0000
ENDCHAR
STARTCHAR LATIN SMALL LETTER U WITH OGONEK
ENCODING 371
SWIDTH 500 0
DWIDTH 12 0
BBX 12 24 0 -5
BITMAP
0000
0000
0000
0000
0000
0000
0000
0000
6060
6060
6060
6060
6060
6060
6060
6060
6060
3060
1FE0
00C0
0180
0180
00F0
0000
ENDCHAR
STARTCHAR LATIN CAPITAL LETTER W WITH CIRCUMFLEX
ENCODING 372
SWIDTH 500 0
DWIDTH 12 0
BBX 12 24 0 -5
BITMAP
0F00
1980
30C0
0000
6060
6060
6060
6060
6060
6060
6060
6060
6060
6060
6660
6F60
79E0
70E0
6060
0000
0000
0000
0000
0000
ENDCHAR
STARTCHAR LATIN SMALL LETTER W WITH CIRCUMFLEX
ENCODING 373
SWIDTH 500 0
DWIDTH 12 0
BBX 12 24 0 -5
BITMAP
0000
0000
0600
0F00
1980
30C0
0000
0000
6060
6060
6060
6660
6660
6660
6660
6660
6660
3660
19E0
0000
0000
0000
0000
0000
ENDCHAR
STARTCHAR LATIN CAPITAL LETTER Y WITH CIRCUMFLEX
ENCODING 374
SWIDTH 500 0
DWIDTH 12 0
BBX 12 24 0 -5
BITMAP
0F00
1980
30C0
0000
6060
6060
6060
6060
6060
6060
3060
1FE0
0060
0060
0060
0060
0060
00E0
7FC0
0000
0000
0000
0000
0000
ENDCHAR
STARTCHAR LATIN SMALL LETTER Y WITH CIRCUMFLEX
ENCODING 375
SWIDTH 500 0
DWIDTH 12 0
BBX 12 24 0 -5
BITMAP
0000
0000
0600
0F00
1980
30C0
0000
0000
6060
6060
6060
6060
6060
6060
6060
6060
6060
3060
1FE0
0060
0060
0060
00C0
7F80
ENDCHAR
STARTCHAR LATIN CAPITAL LETTER Y WITH DIAERESIS
ENCODING 376
SWIDTH 500 0
DWIDTH 12 0
BBX 12 24 0 -5
BITMAP
0000
30C0
30C0
0000
6060
6060
6060
6060
6060
6060
3060
1FE0
0060
0060
0060
0060
0060
00E0
7FC0
0000
0000
0000
0000
0000
ENDCHAR
STARTCHAR LATIN CAPITAL LETTER Z WITH ACUTE
ENCODING 377
SWIDTH 500 0
DWIDTH 12 0
BBX 12 24 0 -5
BITMAP
0180
0300
0600
0000
7FE0
0060
0060
0060
00C0
0180
0300
0600
0C00
1800
3000
6000
6000
6000
7FE0
0000
0000
0000
0000
0000
ENDCHAR
STARTCHAR LATIN SMALL LETTER Z WITH ACUTE
ENCODING 378
SWIDTH 500 0
DWIDTH 12 0
BBX 12 24 0 -5
BITMAP
0000
0000
0180
0300
0600
0C00
0000
0000
7FE0
0060
00C0
0180
0300
0600
0C00
1800
3000
6000
7FE0
0000
0000
0000
0000
0000
ENDCHAR
STARTCHAR LATIN CAPITAL LETTER Z WITH DOT ABOVE
ENCODING 379
SWIDTH 500 0
DWIDTH 12 0
BBX 12 24 0 -5
BITMAP
0000
0600
0600
0000
7FE0
0060
0060
0060
00C0
0180
0300
0600
0C00
1800
3000
6000
6000
6000
7FE0
0000
0000
0000
0000
0000
ENDCHAR
STARTCHAR LATIN SMALL LETTER Z WITH DOT ABOVE
ENCODING 380
SWIDTH 500 0
DWIDTH 12 0
BBX 12 24 0 -5
BITMAP
0000
0000
0000
0600
0600
0000
0000
0000
7FE0
0060
00C0
0180
0300
0600
0C00
1800
3000
6000
7FE0
0000
0000
0000
0000
0000
ENDCHAR
STARTCHAR LATIN CAPITAL LETTER Z WITH CARON
ENCODING 381
SWIDTH 500 0
DWIDTH 12 0
BBX 12 24 0 -5
BITMAP
30C0
1980
0F00
0000
7FE0
0060
0060
0060
00C0
0180
0300
0600
0C00
1800
3000
6000
6000
6000
7FE0
0000
0000
0000
0000
0000
ENDCHAR
STARTCHAR LATIN SMALL LETTER Z WITH CARON
ENCODING 382
SWIDTH 500 0
DWIDTH 12 0
BBX 12 24 0 -5
BITMAP
0000
0000
30C0
1980
0F00
0600
0000
0000
7FE0
0060
00C0
0180
0300
0600
0C00
1800
3000
6000
7FE0
0000
0000
0000
0000
0000
ENDCHAR
STARTCHAR LATIN SMALL LETTER LONG S
ENCODING 383
SWIDTH 500 0
DWIDTH 12 0
BBX 12 24 0 -5
BITMAP
0000
0000
0000
0000
07C0
0E00
0C00
0C00
3C00
0C00
0C00
0C00
0C00
0C00
0C00
0C00
0C00
0C00
0C00
0000
0000
0000
0000
0000
ENDCHAR
STARTCHAR LATIN CAPITAL LETTER A WITH CARON
ENCODING 461
SWIDTH 500 0
DWIDTH 12 0
BBX 12 24 0 -5
BITMAP
30C0
1980
0F00
0000
1F80
30C0
6060
6060
6060
6060
6060
7FE0
6060
6060
6060
6060
6060
6060
6060
0000
0000
0000
0000
0000
ENDCHAR
STARTCHAR LATIN SMALL LETTER A WITH CARON
ENCODING 462
SWIDTH 500 0
DWIDTH 12 0
BBX 12 24 0 -5
BITMAP
0000
0000
30C0
1980
0F00
0600
0000
0000
3F80
00C0
0060
0060
1FE0
3060
6060
6060
6060
3060
1FE0
0000
0000
0000
0000
0000
ENDCHAR
STARTCHAR LATIN CAPITAL LETTER I WITH CARON
ENCODING 463
SWIDTH 500 0
DWIDTH 12 0
BBX 12 24 0 -5
BITMAP
30C0
1980
0F00
0000
3FC0
0600
0600
0600
0600
0600
0600
0600
0600
0600
0600
0600
0600
0600
3FC0
0000
0000
0000
0000
0000
ENDCHAR
STARTCHAR LATIN SMALL LETTER I WITH CARON
ENCODING 464
SWIDTH 500 0
DWIDTH 12 0
BBX 12 24 0 -5
BITMAP
0000
0000
30C0
1980
0F00
0600
0000
0000
1E00
0600
0600
0600
0600
0600
0600
0600
0600
0600
0780
0000
0000
0000
0000
0000
ENDCHAR
STARTCHAR LATIN CAPITAL LETTER O WITH CARON
ENCODING 465
SWIDTH 500 0
DWIDTH 12 0
BBX 12 24 0 -5
BITMAP
30C0
1980
0F00
0000
1F80
30C0
6060
6060
6060
6060
6060
6060
6060
6060
6060
6060
6060
30C0
1F80
0000
0000
0000
0000
0000
ENDCHAR
STARTCHAR LATIN SMALL LETTER O WITH CARON
ENCODING 466
SWIDTH 500 0
DWIDTH 12 0
BBX 12 24 0 -5
BITMAP
0000
0000
30C0
1980
0F00
0600
0000
0000
1F80
30C0
6060
6060
6060
6060
6060
6060
6060
30C0
1F80
0000
0000
0000
0000
0000
ENDCHAR
STARTCHAR LATIN CAPITAL LETTER U WITH CARON
ENCODING 467
SWIDTH 500 0
DWIDTH 12 0
BBX 12 24 0 -5
BITMAP
30C0
1980
0F00
0000
6060
6060
6060
6060
6060
6060
6060
6060
6060
6060
6060
6060
6060
3060
1FE0
0000
0000
0000
0000
0000
ENDCHAR
STARTCHAR LATIN SMALL LETTER U WITH CARON
ENCODING 468
SWIDTH 500 0
DWIDTH 12 0
BBX 12 24 0 -5
BITMAP
0000
0000
30C0
1980
0F00
0600
0000
0000
6060
6060
6060
6060
6060
6060
6060
6060
6060
3060
1FE0
0000
0000
0000
0000
0000
ENDCHAR
STARTCHAR LATIN CAPITAL LETTER AE WITH MACRON
ENCODING 482
SWIDTH 500 0
DWIDTH 12 0
BBX 12 24 0 -5
BITMAP
0000
3FC0
0000
0000
1FE0
3300
6300
6300
6300
6300
6300
7FC0
6300
6300
6300
6300
6300
6300
63E0
0000
0000
0000
0000
0000
ENDCHAR
STARTCHAR LATIN SMALL LETTER AE WITH MACRON
ENCODING 483
SWIDTH 500 0
DWIDTH 12 0
BBX 12 24 0 -5
BITMAP
0000
0000
0000
0000
0000
3FC0
0000
0000
39E0
0F60
0660
0660
1FE0
3600
6600
6600
6600
3700
1DE0
0000
0000
0000
0000
0000
ENDCHAR
STARTCHAR LATIN CAPITAL LETTER G WITH CARON
ENCODING 486
SWIDTH 500 0
DWIDTH 12 0
BBX 12 24 0 -5
BITMAP
30C0
1980
0F00
0000
1FE0
3000
6000
6000
6000
6000
6000
63E0
6060
6060
6060
6060
6060
3060
1FE0
0000
0000
0000
0000
0000
ENDCHAR
STARTCHAR LATIN SMALL LETTER G WITH CARON
ENCODING 487
SWIDTH 500 0
DWIDTH 12 0
BBX 12 24 0 -5
BITMAP
0000
0000
30C0
1980
0F00
0600
0000
0000
1FE0
3060
6060
6060
6060
6060
6060
6060
6060
3060
1FC0
00C0
0060
0060
00C0
3F80
ENDCHAR
STARTCHAR LATIN CAPITAL LETTER K WITH CARON
ENCODING 488
SWIDTH 500 0
DWIDTH 12 0
BBX 12 24 0 -5
BITMAP
30C0
1980
0F00
0000
6060
6060
6060
6060
6060
60C0
6180
7F00
6180
60C0
6060
6060
6060
6060
6060
0000
0000
0000
0000
0000
ENDCHAR
STARTCHAR LATIN SMALL LETTER K WITH CARON
ENCODING 489
SWIDTH 500 0
DWIDTH 12 0
BBX 12 24 0 -5
BITMAP
30C0
1980
0F00
0000
3000
3000
3000
3000
30C0
30C0
3180
3300
3E00
3600
3300
3180
30C0
3060
3060
0000
0000
0000
0000
0000
ENDCHAR
STARTCHAR LATIN CAPITAL LETTER O WITH OGONEK
ENCODING 490
SWIDTH 500 0
DWIDTH 12 0
BBX 12 24 0 -5
BITMAP
0000
0000
0000
0000
1F80
30C0
6060
6060
6060
6060
6060
6060
6060
6060
6060
6060
6060
30C0
1F80
0600
0C00
0C00
0780
0000
ENDCHAR
STARTCHAR LATIN SMALL LETTER O WITH OGONEK
ENCODING 491
SWIDTH 500 0
DWIDTH 12 0
BBX 12 24 0 -5
BITMAP
0000
0000
0000
0000
0000
0000
0000
0000
1F80
30C0
6060
6060
6060
6060
6060
6060
6060
30C0
1F80
0600
0C00
0C00
0780
0000
ENDCHAR
STARTCHAR LATIN CAPITAL LETTER O WITH OGONEK AND MACRON
ENCODING 492
SWIDTH 500 0
DWIDTH 12 0
BBX 12 24 0 -5
BITMAP
0000
3FC0
0000
0000
1F80
30C0
6060
6060
6060
6060
6060
6060
6060
6060
6060
6060
6060
30C0
1F80
0600
0C00
0C00
0780
0000
ENDCHAR
STARTCHAR LATIN SMALL LETTER O WITH OGONEK AND MACRON
ENCODING 493
SWIDTH 500 0
DWIDTH 12 0
BBX 12 24 0 -5
BITMAP
0000
0000
0000
0000
0000
3FC0
0000
0000
1F80
30C0
6060
6060
6060
6060
6060
6060
6060
30C0
1F80
0600
0C00
0C00
0780
0000
ENDCHAR
STARTCHAR LATIN SMALL LETTER J WITH CARON
ENCODING 496
SWIDTH 500 0
DWIDTH 12 0
BBX 12 24 0 -5
BITMAP
0000
0000
30C0
1980
0F00
0600
0000
0000
0600
0600
0600
0600
0600
0600
0600
0600
0600
0600
0600
0600
0600
0600
0C00
7800
ENDCHAR
STARTCHAR LATIN CAPITAL LETTER G WITH ACUTE
ENCODING 500
SWIDTH 500 0
DWIDTH 12 0
BBX 12 24 0 -5
BITMAP
0180
0300
0600
0000
1FE0
3000
6000
6000
6000
6000
6000
63E0
6060
6060
6060
6060
6060
3060
1FE0
0000
0000
0000
0000
0000
ENDCHAR
STARTCHAR LATIN SMALL LETTER G WITH ACUTE
ENCODING 501
SWIDTH 500 0
DWIDTH 12 0
BBX 12 24 0 -5
BITMAP
0000
0000
0180
0300
0600
0C00
0000
0000
1FE0
3060
6060
6060
6060
6060
6060
6060
6060
3060
1FC0
00C0
0060
0060
00C0
3F80
ENDCHAR
STARTCHAR LATIN CAPITAL LETTER AE WITH ACUTE
ENCODING 508
SWIDTH 500 0
DWIDTH 12 0
BBX 12 24 0 -5
BITMAP
0180
0300
0600
0000
1FE0
3300
6300
6300
6300
6300
6300
7FC0
6300
6300
6300
6300
6300
6300
63E0
0000
0000
0000
0000
0000
ENDCHAR
STARTCHAR LATIN SMALL LETTER AE WITH ACUTE
ENCODING 509
SWIDTH 500 0
DWIDTH 12 0
BBX 12 24 0 -5
BITMAP
0000
0000
0180
0300
0600
0C00
0000
0000
39E0
0F60
0660
0660
1FE0
3600
6600
6600
6600
3700
1DE0
0000
0000
0000
0000
0000
ENDCHAR
STARTCHAR LATIN CAPITAL LETTER O WITH STROKE AND ACUTE
ENCODING 510
SWIDTH 500 0
DWIDTH 12 0
BBX 12 24 0 -5
BITMAP
0180
0300
0600
0060
1FE0
30C0
60E0
61E0
61E0
6360
6360
6660
6660
6C60
6C60
7860
7860
30C0
3F80
6000
6000
0000
0000
0000
ENDCHAR
STARTCHAR LATIN SMALL LETTER O WITH STROKE AND ACUTE
ENCODING 511
SWIDTH 500 0
DWIDTH 12 0
BBX 12 24 0 -5
BITMAP
0000
0000
0180
0300
0600
0C00
0000
0010
1FB0
30E0
60E0
61E0
6360
6660
6C60
7860
7060
70C0
DF80
8000
0000
0000
0000
0000
ENDCHAR
STARTCHAR LATIN CAPITAL LETTER A WITH DOUBLE GRAVE
ENCODING 512
SWIDTH 500 0
DWIDTH 12 0
BBX 12 24 0 -5
BITMAP
6600
3300
1980
0000
1F80
30C0
6060
6060
6060
6060
6060
7FE0
6060
6060
6060
6060
6060
6060
6060
0000
0000
0000
0000
0000
ENDCHAR
STARTCHAR LATIN SMALL LETTER A WITH DOUBLE GRAVE
ENCODING 513
SWIDTH 500 0
DWIDTH 12 0
BBX 12 24 0 -5
BITMAP
0000
0000
6600
3300
1980
0CC0
0000
0000
3F80
00C0
0060
0060
1FE0
3060
6060
6060
6060
3060
1FE0
0000
0000
0000
0000
0000
ENDCHAR
STARTCHAR LATIN CAPITAL LETTER A WITH INVERTED BREVE
ENCODING 514
SWIDTH 500 0
DWIDTH 12 0
BBX 12 24 0 -5
BITMAP
0F00
1980
1980
0000
1F80
30C0
6060
6060
6060
6060
6060
7FE0
6060
6060
6060
6060
6060
6060
6060
0000
0000
0000
0000
0000
ENDCHAR
STARTCHAR LATIN SMALL LETTER A WITH INVERTED BREVE
ENCODING 515
SWIDTH 500 0
DWIDTH 12 0
BBX 12 24 0 -5
BITMAP
0000
0000
0000
0F00
1980
1980
0000
0000
3F80
00C0
0060
0060
1FE0
3060
6060
6060
6060
3060
1FE0
0000
0000
0000
0000
0000
ENDCHAR
STARTCHAR LATIN CAPITAL LETTER E WITH DOUBLE GRAVE
ENCODING 516
SWIDTH 500 0
DWIDTH 12 0
BBX 12 24 0 -5
BITMAP
6600
3300
1980
0000
1FE0
3000
6000
6000
6000
6000
6000
7F80
6000
6000
6000
6000
6000
3000
1FE0
0000
0000
0000
0000
0000
ENDCHAR
STARTCHAR LATIN SMALL LETTER E WITH DOUBLE GRAVE
ENCODING 517
SWIDTH 500 0
DWIDTH 12 0
BBX 12 24 0 -5
BITMAP
0000
0000
6600
3300
1980
0CC0
0000
0000
1FE0
3060
6060
6060
6060
7FE0
6000
6000
6000
3000
1FE0
0000
0000
0000
0000
0000
ENDCHAR
STARTCHAR LATIN CAPITAL LETTER E WITH INVERTED BREVE
ENCODING 518
SWIDTH 500 0
DWIDTH 12 0
BBX 12 24 0 -5
BITMAP
0F00
1980
1980
0000
1FE0
3000
6000
6000
6000
6000
6000
7F80
6000
6000
6000
6000
6000
3000
1FE0
0000
0000
0000
0000
0000
ENDCHAR
STARTCHAR LATIN SMALL LETTER E WITH INVERTED BREVE
ENCODING 519
SWIDTH 500 0
DWIDTH 12 0
BBX 12 24 0 -5
BITMAP
0000
0000
0000
0F00
1980
1980
0000
0000
1FE0
3060
6060
6060
6060
7FE0
6000
6000
6000
3000
1FE0
0000
0000
0000
0000
0000
ENDCHAR
STARTCHAR LATIN CAPITAL LETTER I WITH DOUBLE GRAVE
ENCODING 520
SWIDTH 500 0
DWIDTH 12 0
BBX 12 24 0 -5
BITMAP
6600
3300
1980
0000
3FC0
0600
0600
0600
0600
0600
0600
0600
0600
0600
0600
0600
0600
0600
3FC0
0000
0000
0000
0000
0000
ENDCHAR
STARTCHAR LATIN SMALL LETTER I WITH DOUBLE GRAVE
ENCODING 521
SWIDTH 500 0
DWIDTH 12 0
BBX 12 24 0 -5
BITMAP
0000
0000
6600
3300
1980
0CC0
0000
0000
1E00
0600
0600
0600
0600
0600
0600
0600
0600
0600
0780
0000
0000
0000
0000
0000
ENDCHAR
STARTCHAR LATIN CAPITAL LETTER I WITH INVERTED BREVE
ENCODING 522
SWIDTH 500 0
DWIDTH 12 0
BBX 12 24 0 -5
BITMAP
0F00
1980
1980
0000
3FC0
0600
0600
0600
0600
0600
0600
0600
0600
0600
0600
0600
0600
0600
3FC0
0000
0000
0000
0000
0000
ENDCHAR
STARTCHAR LATIN SMALL LETTER I WITH INVERTED BREVE
ENCODING 523
SWIDTH 500 0
DWIDTH 12 0
BBX 12 24 0 -5
BITMAP
0000
0000
0000
0F00
1980
1980
0000
0000
1E00
0600
0600
0600
0600
0600
0600
0600
0600
0600
0780
0000
0000
0000
0000
0000
ENDCHAR
STARTCHAR LATIN CAPITAL LETTER O WITH DOUBLE GRAVE
ENCODING 524
SWIDTH 500 0
DWIDTH 12 0
BBX 12 24 0 -5
BITMAP
6600
3300
1980
0000
1F80
30C0
6060
6060
6060
6060
6060
6060
6060
6060
6060
6060
6060
30C0
1F80
0000
0000
0000
0000
0000
ENDCHAR
STARTCHAR LATIN SMALL LETTER O WITH DOUBLE GRAVE
ENCODING 525
SWIDTH 500 0
DWIDTH 12 0
BBX 12 24 0 -5
BITMAP
0000
0000
6600
3300
1980
0CC0
0000
0000
1F80
30C0
6060
6060
6060
6060
6060
6060
6060
30C0
1F80
0000
0000
0000
0000
0000
ENDCHAR
STARTCHAR LATIN CAPITAL LETTER O WITH INVERTED BREVE
ENCODING 526
SWIDTH 500 0
DWIDTH 12 0
BBX 12 24 0 -5
BITMAP
0F00
1980
1980
0000
1F80
30C0
6060
6060
6060
6060
6060
6060
6060
6060
6060
6060
6060
30C0
1F80
0000
0000
0000
0000
0000
ENDCHAR
STARTCHAR LATIN SMALL LETTER O WITH INVERTED BREVE
ENCODING 527
SWIDTH 500 0
DWIDTH 12 0
BBX 12 24 0 -5
BITMAP
0000
0000
0000
0F00
1980
1980
0000
0000
1F80
30C0
6060
6060
6060
6060
6060
6060
6060
30C0
1F80
0000
0000
0000
0000
0000
ENDCHAR
STARTCHAR LATIN CAPITAL LETTER R WITH DOUBLE GRAVE
ENCODING 528
SWIDTH 500 0
DWIDTH 12 0
BBX 12 24 0 -5
BITMAP
6600
3300
1980
0000
7F80
60C0
6060
6060
6060
6060
60C0
7F80
60C0
6060
6060
6060
6060
6060
6060
0000
0000
0000
0000
0000
ENDCHAR
STARTCHAR LATIN SMALL LETTER R WITH DOUBLE GRAVE
ENCODING 529
SWIDTH 500 0
DWIDTH 12 0
BBX 12 24 0 -5
BITMAP
0000
0000
6600
3300
1980
0CC0
0000
0000
1FE0
3060
6000
6000
6000
6000
6000
6000
6000
6000
6000
0000
0000
0000
0000
0000
ENDCHAR
STARTCHAR LATIN CAPITAL LETTER R WITH INVERTED BREVE
ENCODING 530
SWIDTH 500 0
DWIDTH 12 0
BBX 12 24 0 -5
BITMAP
0F00
1980
1980
0000
7F80
60C0
6060
6060
6060
6060
60C0
7F80
60C0
6060
6060
6060
6060
6060
6060
0000
0000
0000
0000
0000
ENDCHAR
STARTCHAR LATIN SMALL LETTER R WITH INVERTED BREVE
ENCODING 531
SWIDTH 500 0
DWIDTH 12 0
BBX 12 24 0 -5
BITMAP
0000
0000
0000
0F00
1980
1980
0000
0000
1FE0
3060
6000
6000
6000
6000
6000
6000
6000
6000
6000
0000
0000
0000
0000
0000
ENDCHAR
STARTCHAR LATIN CAPITAL LETTER U WITH DOUBLE GRAVE
ENCODING 532
SWIDTH 500 0
DWIDTH 12 0
BBX 12 24 0 -5
BITMAP
6600
3300
1980
0000
6060
6060
6060
6060
6060
6060
6060
6060
6060
6060
6060
6060
6060
3060
1FE0
0000
0000
0000
0000
0000
ENDCHAR
STARTCHAR LATIN SMALL LETTER U WITH DOUBLE GRAVE
ENCODING 533
SWIDTH 500 0
DWIDTH 12 0
BBX 12 24 0 -5
BITMAP
0000
0000
6600
3300
1980
0CC0
0000
0000
6060
6060
6060
6060
6060
6060
6060
6060
6060
3060
1FE0
0000
0000
0000
0000
0000
ENDCHAR
STARTCHAR LATIN CAPITAL LETTER U WITH INVERTED BREVE
ENCODING 534
SWIDTH 500 0
DWIDTH 12 0
BBX 12 24 0 -5
BITMAP
0F00
1980
1980
0000
6060
6060
6060
6060
6060
6060
6060
6060
6060
6060
6060
6060
6060
3060
1FE0
0000
0000
0000
0000
0000
ENDCHAR
STARTCHAR LATIN SMALL LETTER U WITH INVERTED BREVE
ENCODING 535
SWIDTH 500 0
DWIDTH 12 0
BBX 12 24 0 -5
BITMAP
0000
0000
0000
0F00
1980
1980
0000
0000
6060
6060
6060
6060
6060
6060
6060
6060
6060
3060
1FE0
0000
0000
0000
0000
0000
ENDCHAR
STARTCHAR LATIN CAPITAL LETTER H WITH CARON
ENCODING 542
SWIDTH 500 0
DWIDTH 12 0
BBX 12 24 0 -5
BITMAP
30C0
1980
0F00
0000
6060
6060
6060
6060
6060
6060
6060
7FE0
6060
6060
6060
6060
6060
6060
6060
0000
0000
0000
0000
0000
ENDCHAR
STARTCHAR LATIN SMALL LETTER H WITH CARON
ENCODING 543
SWIDTH 500 0
DWIDTH 12 0
BBX 12 24 0 -5
BITMAP
30C0
1980
0F00
0000
6000
6000
6000
6000
7F80
60C0
6060
6060
6060
6060
6060
6060
6060
6060
6060
0000
0000
0000
0000
0000
ENDCHAR
STARTCHAR LATIN CAPITAL LETTER A WITH DOT ABOVE
ENCODING 550
SWIDTH 500 0
DWIDTH 12 0
BBX 12 24 0 -5
BITMAP
0000
0600
0600
0000
1F80
30C0
6060
6060
6060
6060
6060
7FE0
6060
6060
6060
6060
6060
6060
6060
0000
0000
0000
0000
0000
ENDCHAR
STARTCHAR LATIN SMALL LETTER A WITH DOT ABOVE
ENCODING 551
SWIDTH 500 0
DWIDTH 12 0
BBX 12 24 0 -5
BITMAP
0000
0000
0000
0600
0600
0000
0000
0000
3F80
00C0
0060
0060
1FE0
3060
6060
6060
6060
3060
1FE0
0000
0000
0000
0000
0000
ENDCHAR
STARTCHAR LATIN CAPITAL LETTER E WITH CEDILLA
ENCODING 552
SWIDTH 500 0
DWIDTH 12 0
BBX 12 24 0 -5
BITMAP
0000
0000
0000
0000
1FE0
3000
6000
6000
6000
6000
6000
7F80
6000
6000
6000
6000
6000
3000
1FE0
0300
0300
0300
0600
0C00
ENDCHAR
STARTCHAR LATIN SMALL LETTER E WITH CEDILLA
ENCODING 553
SWIDTH 500 0
DWIDTH 12 0
BBX 12 24 0 -5
BITMAP
0000
0000
0000
0000
0000
0000
0000
0000
1FE0
3060
6060
6060
6060
7FE0
6000
6000
6000
3000
1FE0
0300
0300
0300
0600
0C00
ENDCHAR
STARTCHAR LATIN CAPITAL LETTER O WITH DOT ABOVE
ENCODING 558
SWIDTH 500 0
DWIDTH 12 0
BBX 12 24 0 -5
BITMAP
0000
0600
0600
0000
1F80
30C0
6060
6060
6060
6060
6060
6060
6060
6060
6060
6060
6060
30C0
1F80
0000
0000
0000
0000
0000
ENDCHAR
STARTCHAR LATIN SMALL LETTER O WITH DOT ABOVE
ENCODING 559
SWIDTH 500 0
DWIDTH 12 0
BBX 12 24 0 -5
BITMAP
0000
0000
0000
0600
0600
0000
0000
0000
1F80
30C0
6060
6060
6060
6060
6060
6060
6060
30C0
1F80
0000
0000
0000
0000
0000
ENDCHAR
STARTCHAR BREVE
ENCODING 728
SWIDTH 500 0
DWIDTH 12 0
BBX 12 24 0 -5
BITMAP
30C0
1980
0F00
0000
0000
0000
0000
0000
0000
0000
0000
0000
0000
0000
0000
0000
0000
0000
0000
0000
0000
0000
0000
0000
ENDCHAR
STARTCHAR DOT ABOVE
ENCODING 729
SWIDTH 500 0
DWIDTH 12 0
BBX 12 24 0 -5
BITMAP
0000
0600
0600
0000
0000
0000
0000
0000
0000
0000
0000
0000
0000
0000
0000
0000
0000
0000
0000
0000
0000
0000
0000
0000
ENDCHAR
STARTCHAR OGONEK
ENCODING 731
SWIDTH 500 0
DWIDTH 12 0
BBX 12 24 0 -5
BITMAP
0000
0000
0000
0000
0000
0000
0000
0000
0000
0000
0000
0000
0000
0000
0000
0000
0000
0000
0000
00C0
0180
0180
00F0
0000
ENDCHAR
STARTCHAR SMALL TILDE
ENCODING 732
SWIDTH 500 0
DWIDTH 12 0
BBX 12 24 0 -5
BITMAP
1C60
3FC0
6380
0000
0000
0000
0000
0000
0000
0000
0000
0000
0000
0000
0000
0000
0000
0000
0000
0000
0000
0000
0000
0000
ENDCHAR
STARTCHAR DOUBLE ACUTE ACCENT
ENCODING 733
SWIDTH 500 0
DWIDTH 12 0
BBX 12 24 0 -5
BITMAP
0660
0CC0
1980
0000
0000
0000
0000
0000
0000
0000
0000
0000
0000
0000
0000
0000
0000
0000
0000
0000
0000
0000
0000
0000
ENDCHAR
STARTCHAR COMBINING BREVE
ENCODING 774
SWIDTH 500 0
DWIDTH 12 0
BBX 12 24 0 -5
BITMAP
1980
1980
0F00
0000
0000
0000
0000
0000
0000
0000
0000
0000
0000
0000
0000
0000
0000
0000
0000
0000
0000
0000
0000
0000
ENDCHAR
STARTCHAR COMBINING DIAERESIS
ENCODING 776
SWIDTH 500 0
DWIDTH 12 0
BBX 12 24 0 -5
BITMAP
0000
30C0
30C0
0000
0000
0000
0000
0000
0000
0000
0000
0000
0000
0000
0000
0000
0000
0000
0000
0000
0000
0000
0000
0000
ENDCHAR
STARTCHAR CYRILLIC CAPITAL LETTER IO
ENCODING 1025
SWIDTH 500 0
DWIDTH 12 0
BBX 12 24 0 -5
BITMAP
0000
30C0
30C0
0000
1FE0
3000
6000
6000
6000
6000
6000
7F80
6000
6000
6000
6000
6000
3000
1FE0
0000
0000
0000
0000
0000
ENDCHAR
STARTCHAR CYRILLIC CAPITAL LETTER BYELORUSSIAN-UKRAINIAN I
ENCODING 1030
SWIDTH 500 0
DWIDTH 12 0
BBX 12 24 0 -5
BITMAP
0000
0000
0000
0000
3FC0
0600
0600
0600
0600
0600
0600
0600
0600
0600
0600
0600
0600
0600
3FC0
0000
0000
0000
0000
0000
ENDCHAR
STARTCHAR CYRILLIC CAPITAL LETTER YI
ENCODING 1031
SWIDTH 500 0
DWIDTH 12 0
BBX 12 24 0 -5
BITMAP
0000
30C0
30C0
0000
3FC0
0600
0600
0600
0600
0600
0600
0600
0600
0600
0600
0600
0600
0600
3FC0
0000
0000
0000
0000
0000
ENDCHAR
STARTCHAR CYRILLIC CAPITAL LETTER SHORT U
ENCODING 1038
SWIDTH 500 0
DWIDTH 12 0
BBX 12 24 0 -5
BITMAP
1980
1980
0F00
0000
6060
6060
6060
6060
6060
6060
3060
1FE0
0060
0060
0060
0060
0060
00E0
7FC0
0000
0000
0000
0000
0000
ENDCHAR
STARTCHAR CYRILLIC CAPITAL LETTER A
ENCODING 1040
SWIDTH 500 0
DWIDTH 12 0
BBX 12 24 0 -5
BITMAP
0000
0000
0000
0000
1F80
30C0
6060
6060
6060
6060
6060
7FE0
6060
6060
6060
6060
6060
6060
6060
0000
0000
0000
0000
0000
ENDCHAR
STARTCHAR CYRILLIC CAPITAL LETTER BE
ENCODING 1041
SWIDTH 500 0
DWIDTH 12 0
BBX 12 24 0 -5
BITMAP
0000
0000
0000
0000
7F80
6000
6000
6000
6000
6000
6000
7F80
60C0
6060
6060
6060
6060
60C0
7F80
0000
0000
0000
0000
0000
ENDCHAR
STARTCHAR CYRILLIC CAPITAL LETTER VE
ENCODING 1042
SWIDTH 500 0
DWIDTH 12 0
BBX 12 24 0 -5
BITMAP
0000
0000
0000
0000
7F80
60C0
6060
6060
6060
6060
60C0
7F80
60C0
6060
6060
6060
6060
60C0
7F80
0000
0000
0000
0000
0000
ENDCHAR
STARTCHAR CYRILLIC CAPITAL LETTER GHE
ENCODING 1043
SWIDTH 500 0
DWIDTH 12 0
BBX 12 24 0 -5
BITMAP
0000
0000
0000
0000
1FE0
3000
6000
6000
6000
6000
6000
6000
6000
6000
6000
6000
6000
6000
6000
0000
0000
0000
0000
0000
ENDCHAR
STARTCHAR CYRILLIC CAPITAL LETTER DE
ENCODING 1044
SWIDTH 500 0
DWIDTH 12 0
BBX 12 24 0 -5
BITMAP
0000
0000
0000
0000
0FC0
18C0
30C0
30C0
30C0
30C0
30C0
30C0
30C0
30C0
30C0
30C0
3FC0
6060
6060
0000
0000
0000
0000
0000
ENDCHAR
STARTCHAR CYRILLIC CAPITAL LETTER IE
ENCODING 1045
SWIDTH 500 0
DWIDTH 12 0
BBX 12 24 0 -5
BITMAP
0000
0000
0000
0000
1FE0
3000
6000
6000
6000
6000
6000
7F80
6000
6000
6000
6000
6000
3000
1FE0
0000
0000
0000
0000
0000
ENDCHAR
STARTCHAR CYRILLIC CAPITAL LETTER ZHE
ENCODING 1046
SWIDTH 500 0
DWIDTH 12 0
BBX 12 24 0 -5
BITMAP
0000
0000
0000
0000
6660
6660
6660
6660
6660
6660
36C0
1F80
36C0
6660
6660
6660
6660
6660
6660
0000
0000
0000
0000
0000
ENDCHAR
STARTCHAR CYRILLIC CAPITAL LETTER ZE
ENCODING 1047
SWIDTH 500 0
DWIDTH 12 0
BBX 12 24 0 -5
BITMAP
0000
0000
0000
0000
7F80
00C0
0060
0060
0060
00C0
1F80
00C0
0060
0060
0060
0060
0060
00C0
7F80
0000
0000
0000
0000
0000
ENDCHAR
STARTCHAR CYRILLIC CAPITAL LETTER I
ENCODING 1048
SWIDTH 500 0
DWIDTH 12 0
BBX 12 24 0 -5
BITMAP
0000
0000
0000
0000
6060
60E0
60E0
61E0
61E0
6360
6360
6660
6660
6C60
6C60
7860
7860
7060
7060
0000
0000
0000
0000
0000
ENDCHAR
STARTCHAR CYRILLIC CAPITAL LETTER SHORT I
ENCODING 1049
SWIDTH 500 0
DWIDTH 12 0
BBX 12 24 0 -5
BITMAP
1980
1980
0F00
0000
6060
60E0
60E0
61E0
61E0
6360
6360
6660
6660
6C60
6C60
7860
7860
7060
7060
0000
0000
0000
0000
0000
ENDCHAR
STARTCHAR CYRILLIC CAPITAL LETTER KA
ENCODING 1050
SWIDTH 500 0
DWIDTH 12 0
BBX 12 24 0 -5
BITMAP
0000
0000
0000
0000
6060
6060
6060
6060
6060
60C0
6180
7F00
6180
60C0
6060
6060
6060
6060
6060
0000
0000
0000
0000
0000
ENDCHAR
STARTCHAR CYRILLIC CAPITAL LETTER EL
ENCODING 1051
SWIDTH 500 0
DWIDTH 12 0
BBX 12 24 0 -5
BITMAP
0000
0000
0000
0000
1FE0
3060
6060
6060
6060
6060
6060
6060
6060
6060
6060
6060
6060
6060
6060
0000
0000
0000
0000
0000
ENDCHAR
STARTCHAR CYRILLIC CAPITAL LETTER EM
ENCODING 1052
SWIDTH 500 0
DWIDTH 12 0
BBX 12 24 0 -5
BITMAP
0000
0000
0000
0000
6060
70E0
79E0
6F60
6660
6060
6060
6060
6060
6060
6060
6060
6060
6060
6060
0000
0000
0000
0000
0000
ENDCHAR
STARTCHAR CYRILLIC CAPITAL LETTER EN
ENCODING 1053
SWIDTH 500 0
DWIDTH 12 0
BBX 12 24 0 -5
BITMAP
0000
0000
0000
0000
6060
6060
6060
6060
6060
6060
6060
7FE0
6060
6060
6060
6060
6060
6060
6060
0000
0000
0000
0000
0000
ENDCHAR
STARTCHAR CYRILLIC CAPITAL LETTER O
ENCODING 1054
SWIDTH 500 0
DWIDTH 12 0
BBX 12 24 0 -5
BITMAP
0000
0000
0000
0000
1F80
30C0
6060
6060
6060
6060
6060
6060
6060
6060
6060
6060
6060
30C0
1F80
0000
0000
0000
0000
0000
ENDCHAR
STARTCHAR CYRILLIC CAPITAL LETTER PE
ENCODING 1055
SWIDTH 500 0
DWIDTH 12 0
BBX 12 24 0 -5
BITMAP
0000
0000
0000
0000
7FE0
6060
6060
6060
6060
6060
6060
6060
6060
6060
6060
6060
6060
6060
6060
0000
0000
0000
0000
0000
ENDCHAR
STARTCHAR CYRILLIC CAPITAL LETTER ER
ENCODING 1056
SWIDTH 500 0
DWIDTH 12 0
BBX 12 24 0 -5
BITMAP
0000
0000
0000
0000
7F80
60C0
6060
6060
6060
6060
60C0
7F80
6000
6000
6000
6000
6000
6000
6000
0000
0000
0000
0000
0000
ENDCHAR
STARTCHAR CYRILLIC CAPITAL LETTER ES
ENCODING 1057
SWIDTH 500 0
DWIDTH 12 0
BBX 12 24 0 -5
BITMAP
0000
0000
0000
0000
1FE0
3000
6000
6000
6000
6000
6000
6000
6000
6000
6000
6000
6000
3000
1FE0
0000
0000
0000
0000
0000
ENDCHAR
STARTCHAR CYRILLIC CAPITAL LETTER TE
ENCODING 1058
SWIDTH 500 0
DWIDTH 12 0
BBX 12 24 0 -5
BITMAP
0000
0000
0000
0000
7FE0
0600
0600
0600
0600
0600
0600
0600
0600
0600
0600
0600
0600
0600
0600
0000
0000
0000
0000
0000
ENDCHAR
STARTCHAR CYRILLIC CAPITAL LETTER U
ENCODING 1059
SWIDTH 500 0
DWIDTH 12 0
BBX 12 24 0 -5
BITMAP
0000
0000
0000
0000
6060
6060
6060
6060
6060
6060
3060
1FE0
0060
0060
0060
0060
0060
00E0
7FC0
0000
0000
0000
0000
0000
ENDCHAR
STARTCHAR CYRILLIC CAPITAL LETTER EF
ENCODING 1060
SWIDTH 500 0
DWIDTH 12 0
BBX 12 24 0 -5
BITMAP
0000
0000
0000
0000
0600
0600
1F80
36C0
6660
6660
6660
6660
6660
6660
6660
36C0
1F80
0600
0600
0000
0000
0000
0000
0000
ENDCHAR
STARTCHAR CYRILLIC CAPITAL LETTER HA
ENCODING 1061
SWIDTH 500 0
DWIDTH 12 0
BBX 12 24 0 -5
BITMAP
0000
0000
0000
0000
6060
6060
6060
6060
6060
6060
30C0
1F80
30C0
6060
6060
6060
6060
6060
6060
0000
0000
0000
0000
0000
ENDCHAR
STARTCHAR CYRILLIC CAPITAL LETTER TSE
ENCODING 1062
SWIDTH 500 0
DWIDTH 12 0
BBX 12 24 0 -5
BITMAP
0000
0000
0000
0000
6060
6060
6060
6060
6060
6060
6060
6060
6060
6060
6060
6060
6060
3060
1FF0
0030
0030
0030
0060
00C0
ENDCHAR
STARTCHAR CYRILLIC CAPITAL LETTER CHE
ENCODING 1063
SWIDTH 500 0
DWIDTH 12 0
BBX 12 24 0 -5
BITMAP
0000
0000
0000
0000
6060
6060
6060
6060
6060
6060
3060
1FE0
0060
0060
0060
0060
0060
0060
0060
0000
0000
0000
0000
0000
ENDCHAR
STARTCHAR CYRILLIC CAPITAL LETTER SHA
ENCODING 1064
SWIDTH 500 0
DWIDTH 12 0
BBX 12 24 0 -5
BITMAP
0000
0000
0000
0000
6660
6660
6660
6660
6660
6660
6660
6660
6660
6660
6660
6660
6660
36C0
1F80
0000
0000
0000
0000
0000
ENDCHAR
STARTCHAR CYRILLIC CAPITAL LETTER SHCHA
ENCODING 1065
SWIDTH 500 0
DWIDTH 12 0
BBX 12 24 0 -5
BITMAP
0000
0000
0000
0000
6660
6660
6660
6660
6660
6660
6660
6660
6660
6660
6660
6660
6660
3660
1FF0
0030
0030
0030
0060
00C0
ENDCHAR
STARTCHAR CYRILLIC CAPITAL LETTER HARD SIGN
ENCODING 1066
SWIDTH 500 0
DWIDTH 12 0
BBX 12 24 0 -5
BITMAP
0000
0000
0000
0000
F800
1800
1800
1800
1800
1800
1800
1F80
18C0
1860
1860
1860
1860
18C0
1F80
0000
0000
0000
0000
0000
ENDCHAR
STARTCHAR CYRILLIC CAPITAL LETTER YERU
ENCODING 1067
SWIDTH 500 0
DWIDTH 12 0
BBX 12 24 0 -5
BITMAP
0000
0000
0000
0000
6060
6060
6060
6060
6060
6060
6060
7C60
6660
6360
6360
6360
6360
6660
7C60
0000
0000
0000
0000
0000
ENDCHAR
STARTCHAR CYRILLIC CAPITAL LETTER SOFT SIGN
ENCODING 1068
SWIDTH 500 0
DWIDTH 12 0
BBX 12 24 0 -5
BITMAP
0000
0000
0000
0000
1800
1800
1800
1800
1800
1800
1800
1F80
18C0
1860
1860
1860
1860
18C0
1F80
0000
0000
0000
0000
0000
ENDCHAR
STARTCHAR CYRILLIC CAPITAL LETTER E
ENCODING 1069
SWIDTH 500 0
DWIDTH 12 0
BBX 12 24 0 -5
BITMAP
0000
0000
0000
0000
7F80
00C0
0060
0060
0060
0060
0060
1FE0
0060
0060
0060
0060
0060
00C0
7F80
0000
0000
0000
0000
0000
ENDCHAR
STARTCHAR CYRILLIC CAPITAL LETTER YU
ENCODING 1070
SWIDTH 500 0
DWIDTH 12 0
BBX 12 24 0 -5
BITMAP
0000
0000
0000
0000
6380
66C0
6C60
6C60
6C60
6C60
6C60
7C60
6C60
6C60
6C60
6C60
6C60
66C0
6380
0000
0000
0000
0000
0000
ENDCHAR
STARTCHAR CYRILLIC CAPITAL LETTER YA
ENCODING 1071
SWIDTH 500 0
DWIDTH 12 0
BBX 12 24 0 -5
BITMAP
0000
0000
0000
0000
1FE0
3060
6060
6060
6060
6060
3060
1FE0
3060
6060
6060
6060
6060
6060
6060
0000
0000
0000
0000
0000
ENDCHAR
STARTCHAR CYRILLIC SMALL LETTER A
ENCODING 1072
SWIDTH 500 0
DWIDTH 12 0
BBX 12 24 0 -5
BITMAP
0000
0000
0000
0000
0000
0000
0000
0000
3F80
00C0
0060
0060
1FE0
3060
6060
6060
6060
3060
1FE0
0000
0000
0000
0000
0000
ENDCHAR
STARTCHAR CYRILLIC SMALL LETTER BE
ENCODING 1073
SWIDTH 500 0
DWIDTH 12 0
BBX 12 24 0 -5
BITMAP
0000
0000
0000
0000
0000
0000
0000
0000
1FC0
3000
6000
6000
7F80
60C0
6060
6060
6060
30C0
1F80
0000
0000
0000
0000
0000
ENDCHAR
STARTCHAR CYRILLIC SMALL LETTER VE
ENCODING 1074
SWIDTH 500 0
DWIDTH 12 0
BBX 12 24 0 -5
BITMAP
0000
0000
0000
0000
1C00
3600
6300
6300
6300
6300
7600
7F80
60C0
6060
6060
6060
6060
30C0
1F80
0000
0000
0000
0000
0000
ENDCHAR
STARTCHAR CYRILLIC SMALL LETTER GHE
ENCODING 1075
SWIDTH 500 0
DWIDTH 12 0
BBX 12 24 0 -5
BITMAP
0000
0000
0000
0000
0000
0000
0000
0000
7FC0
0060
0060
0060
0060
3FC0
6000
6000
6000
6000
3FE0
0000
0000
0000
0000
0000
ENDCHAR
STARTCHAR CYRILLIC SMALL LETTER DE
ENCODING 1076
SWIDTH 500 0
DWIDTH 12 0
BBX 12 24 0 -5
BITMAP
0000
0000
0000
0000
0000
0000
0000
0000
1FE0
3060
6060
6060
6060
6060
6060
6060
6060
3060
1FE0
0060
0060
0060
00C0
3F80
ENDCHAR
STARTCHAR CYRILLIC SMALL LETTER IE
ENCODING 1077
SWIDTH 500 0
DWIDTH 12 0
BBX 12 24 0 -5
BITMAP
0000
0000
0000
0000
0000
0000
0000
0000
1FE0
3060
6060
6060
6060
7FE0
6000
6000
6000
3000
1FE0
0000
0000
0000
0000
0000
ENDCHAR
STARTCHAR CYRILLIC SMALL LETTER ZHE
ENCODING 1078
SWIDTH 500 0
DWIDTH 12 0
BBX 12 24 0 -5
BITMAP
0000
0000
0000
0000
0000
0000
0000
0000
6660
6660
36C0
1F80
0F00
0F00
1F80
36C0
36C0
6660
6660
0000
0000
0000
0000
0000
ENDCHAR
STARTCHAR CYRILLIC SMALL LETTER ZE
ENCODING 1079
SWIDTH 500 0
DWIDTH 12 0
BBX 12 24 0 -5
BITMAP
0000
0000
0000
0000
0000
0000
0000
0000
7F80
00C0
0060
0060
00C0
1F80
00C0
0060
0060
00C0
7F80
0000
0000
0000
0000
0000
ENDCHAR
STARTCHAR CYRILLIC SMALL LETTER I
ENCODING 1080
SWIDTH 500 0
DWIDTH 12 0
BBX 12 24 0 -5
BITMAP
0000
0000
0000
0000
0000
0000
0000
0000
6060
6060
6060
6060
6060
6060
6060
6060
6060
3060
1FE0
0000
0000
0000
0000
0000
ENDCHAR
STARTCHAR CYRILLIC SMALL LETTER SHORT I
ENCODING 1081
SWIDTH 500 0
DWIDTH 12 0
BBX 12 24 0 -5
BITMAP
0000
0000
0000
1980
1980
0F00
0000
0000
6060
6060
6060
6060
6060
6060
6060
6060
6060
3060
1FE0
0000
0000
0000
0000
0000
ENDCHAR
STARTCHAR CYRILLIC SMALL LETTER KA
ENCODING 1082
SWIDTH 500 0
DWIDTH 12 0
BBX 12 24 0 -5
BITMAP
0000
0000
0000
0000
0000
0000
0000
0000
30C0
30C0
3180
3300
3600
3E00
3300
3180
30C0
3060
3060
0000
0000
0000
0000
0000
ENDCHAR
STARTCHAR CYRILLIC SMALL LETTER EL
ENCODING 1083
SWIDTH 500 0
DWIDTH 12 0
BBX 12 24 0 -5
BITMAP
0000
0000
0000
0000
0000
0000
0000
0000
1FE0
3060
6060
6060
6060
6060
6060
6060
6060
6060
6060
0000
0000
0000
0000
0000
ENDCHAR
STARTCHAR CYRILLIC SMALL LETTER EM
ENCODING 1084
SWIDTH 500 0
DWIDTH 12 0
BBX 12 24 0 -5
BITMAP
0000
0000
0000
0000
0000
0000
0000
0000
6060
70E0
79E0
6F60
6660
6060
6060
6060
6060
6060
6060
0000
0000
0000
0000
0000
ENDCHAR
STARTCHAR CYRILLIC SMALL LETTER EN
ENCODING 1085
SWIDTH 500 0
DWIDTH 12 0
BBX 12 24 0 -5
BITMAP
0000
0000
0000
0000
0000
0000
0000
0000
6060
6060
6060
6060
6060
7FE0
6060
6060
6060
6060
6060
0000
0000
0000
0000
0000
ENDCHAR
STARTCHAR CYRILLIC SMALL LETTER O
ENCODING 1086
SWIDTH 500 0
DWIDTH 12 0
BBX 12 24 0 -5
BITMAP
0000
0000
0000
0000
0000
0000
0000
0000
1F80
30C0
6060
6060
6060
6060
6060
6060
6060
30C0
1F80
0000
0000
0000
0000
0000
ENDCHAR
STARTCHAR CYRILLIC SMALL LETTER PE
ENCODING 1087
SWIDTH 500 0
DWIDTH 12 0
BBX 12 24 0 -5
BITMAP
0000
0000
0000
0000
0000
0000
0000
0000
7F80
60C0
6060
6060
6060
6060
6060
6060
6060
6060
6060
0000
0000
0000
0000
0000
ENDCHAR
STARTCHAR CYRILLIC SMALL LETTER ER
ENCODING 1088
SWIDTH 500 0
DWIDTH 12 0
BBX 12 24 0 -5
BITMAP
0000
0000
0000
0000
0000
0000
0000
0000
7F80
60C0
6060
6060
6060
6060
6060
6060
6060
60C0
7F80
6000
6000
6000
6000
6000
ENDCHAR
STARTCHAR CYRILLIC SMALL LETTER ES
ENCODING 1089
SWIDTH 500 0
DWIDTH 12 0
BBX 12 24 0 -5
BITMAP
0000
0000
0000
0000
0000
0000
0000
0000
1FE0
3000
6000
6000
6000
6000
6000
6000
6000
3000
1FE0
0000
0000
0000
0000
0000
ENDCHAR
STARTCHAR CYRILLIC SMALL LETTER TE
ENCODING 1090
SWIDTH 500 0
DWIDTH 12 0
BBX 12 24 0 -5
BITMAP
0000
0000
0000
0000
0000
0000
0000
0000
7980
66C0
6660
6660
6660
6660
6660
6660
6060
6060
6060
0000
0000
0000
0000
0000
ENDCHAR
STARTCHAR CYRILLIC SMALL LETTER U
ENCODING 1091
SWIDTH 500 0
DWIDTH 12 0
BBX 12 24 0 -5
BITMAP
0000
0000
0000
0000
0000
0000
0000
0000
6060
6060
6060
6060
6060
6060
6060
6060
6060
3060
1FE0
0060
0060
0060
00C0
7F80
ENDCHAR
STARTCHAR CYRILLIC SMALL LETTER EF
ENCODING 1092
SWIDTH 500 0
DWIDTH 12 0
BBX 12 24 0 -5
BITMAP
0000
0000
0000
0000
0000
0000
0000
0000
1F80
36C0
6660
6660
6660
6660
6660
6660
6660
36C0
1F80
0600
0600
0600
0000
0000
ENDCHAR
STARTCHAR CYRILLIC SMALL LETTER HA
ENCODING 1093
SWIDTH 500 0
DWIDTH 12 0
BBX 12 24 0 -5
BITMAP
0000
0000
0000
0000
0000
0000
0000
0000
6060
6060
30C0
1980
0F00
0F00
1980
30C0
30C0
6060
6060
0000
0000
0000
0000
0000
ENDCHAR
STARTCHAR CYRILLIC SMALL LETTER TSE
ENCODING 1094
SWIDTH 500 0
DWIDTH 12 0
BBX 12 24 0 -5
BITMAP
0000
0000
0000
0000
0000
0000
0000
0000
6060
6060
6060
6060
6060
6060
6060
6060
6060
3060
1FF0
0030
0030
0030
0060
00C0
ENDCHAR
STARTCHAR CYRILLIC SMALL LETTER CHE
ENCODING 1095
SWIDTH 500 0
DWIDTH 12 0
BBX 12 24 0 -5
BITMAP
0000
0000
0000
0000
0000
0000
0000
0000
6060
6060
6060
6060
6060
3060
1FE0
0060
0060
0060
0060
0000
0000
0000
0000
0000
ENDCHAR
STARTCHAR CYRILLIC SMALL LETTER SHA
ENCODING 1096
SWIDTH 500 0
DWIDTH 12 0
BBX 12 24 0 -5
BITMAP
0000
0000
0000
0000
0000
0000
0000
0000
6060
6060
6060
6660
6660
6660
6660
6660
6660
3660
19E0
0000
0000
0000
0000
0000
ENDCHAR
STARTCHAR CYRILLIC SMALL LETTER SHCHA
ENCODING 1097
SWIDTH 500 0
DWIDTH 12 0
BBX 12 24 0 -5
BITMAP
0000
0000
0000
0000
0000
0000
0000
0000
6060
6060
6060
6660
6660
6660
6660
6660
6660
3660
19F0
0030
0030
0030
0060
00C0
ENDCHAR
STARTCHAR CYRILLIC SMALL LETTER HARD SIGN
ENCODING 1098
SWIDTH 500 0
DWIDTH 12 0
BBX 12 24 0 -5
BITMAP
0000
0000
0000
0000
0000
0000
0000
0000
F800
1800
1800
1800
1F80
18C0
1860
1860
1860
18C0
1F80
0000
0000
0000
0000
0000
ENDCHAR
STARTCHAR CYRILLIC SMALL LETTER YERU
ENCODING 1099
SWIDTH 500 0
DWIDTH 12 0
BBX 12 24 0 -5
BITMAP
0000
0000
0000
0000
0000
0000
0000
0000
6060
6060
6060
6060
7C60
6660
6360
6360
6360
6660
7C60
0000
0000
0000
0000
0000
ENDCHAR
STARTCHAR CYRILLIC SMALL LETTER SOFT SIGN
ENCODING 1100
SWIDTH 500 0
DWIDTH 12 0
BBX 12 24 0 -5
BITMAP
0000
0000
0000
0000
0000
0000
0000
0000
1800
1800
1800
1800
1F80
18C0
1860
1860
1860
18C0
1F80
0000
0000
0000
0000
0000
ENDCHAR
STARTCHAR CYRILLIC SMALL LETTER E
ENCODING 1101
SWIDTH 500 0
DWIDTH 12 0
BBX 12 24 0 -5
BITMAP
0000
0000
0000
0000
0000
0000
0000
0000
7F80
00C0
0060
0060
0060
1FE0
0060
0060
0060
00C0
7F80
0000
0000
0000
0000
0000
ENDCHAR
STARTCHAR CYRILLIC SMALL LETTER YU
ENCODING 1102
SWIDTH 500 0
DWIDTH 12 0
BBX 12 24 0 -5
BITMAP
0000
0000
0000
0000
0000
0000
0000
0000
6380
66C0
6C60
6C60
6C60
7C60
6C60
6C60
6C60
66C0
6380
0000
0000
0000
0000
0000
ENDCHAR
STARTCHAR CYRILLIC SMALL LETTER YA
ENCODING 1103
SWIDTH 500 0
DWIDTH 12 0
BBX 12 24 0 -5
BITMAP
0000
0000
0000
0000
0000
0000
0000
0000
1FE0
3060
6060
6060
3060
1FE0
3060
6060
6060
6060
6060
0000
0000
0000
0000
0000
ENDCHAR
STARTCHAR CYRILLIC SMALL LETTER IO
ENCODING 1105
SWIDTH 500 0
DWIDTH 12 0
BBX 12 24 0 -5
BITMAP
0000
0000
0000
30C0
30C0
0000
0000
0000
1FE0
3060
6060
6060
6060
7FE0
6000
6000
6000
3000
1FE0
0000
0000
0000
0000
0000
ENDCHAR
STARTCHAR CYRILLIC SMALL LETTER BYELORUSSIAN-UKRAINIAN I
ENCODING 1110
SWIDTH 500 0
DWIDTH 12 0
BBX 12 24 0 -5
BITMAP
0000
0000
0000
0000
0600
0600
0000
0000
1E00
0600
0600
0600
0600
0600
0600
0600
0600
0600
0780
0000
0000
0000
0000
0000
ENDCHAR
STARTCHAR CYRILLIC SMALL LETTER YI
ENCODING 1111
SWIDTH 500 0
DWIDTH 12 0
BBX 12 24 0 -5
BITMAP
0000
0000
0000
30C0
30C0
0000
0000
0000
1E00
0600
0600
0600
0600
0600
0600
0600
0600
0600
0780
0000
0000
0000
0000
0000
ENDCHAR
STARTCHAR CYRILLIC SMALL LETTER SHORT U
ENCODING 1118
SWIDTH 500 0
DWIDTH 12 0
BBX 12 24 0 -5
BITMAP
0000
0000
0000
1980
1980
0F00
0000
0000
6060
6060
6060
6060
6060
6060
6060
6060
6060
3060
1FE0
0060
0060
0060
00C0
7F80
ENDCHAR
STARTCHAR CYRILLIC CAPITAL LETTER GHE WITH UPTURN
ENCODING 1168
SWIDTH 500 0
DWIDTH 12 0
BBX 12 24 0 -5
BITMAP
0000
0000
0000
0000
0060
0060
00C0
1F80
3000
6000
6000
6000
6000
6000
6000
6000
6000
6000
6000
0000
0000
0000
0000
0000
ENDCHAR
STARTCHAR CYRILLIC SMALL LETTER GHE WITH UPTURN
ENCODING 1169
SWIDTH 500 0
DWIDTH 12 0
BBX 12 24 0 -5
BITMAP
0000
0000
0000
0000
0000
0000
0000
0000
0060
0060
00C0
1F80
3000
6000
6000
6000
6000
6000
6000
0000
0000
0000
0000
0000
ENDCHAR
STARTCHAR DOUBLE VERTICAL LINE
ENCODING 8214
SWIDTH 500 0
DWIDTH 12 0
BBX 12 24 0 -5
BITMAP
0000
0000
0000
1980
1980
1980
1980
1980
1980
1980
1980
1980
1980
1980
1980
1980
1980
1980
1980
1980
1980
0000
0000
0000
ENDCHAR
STARTCHAR LEFT SINGLE QUOTATION MARK
ENCODING 8216
SWIDTH 500 0
DWIDTH 12 0
BBX 12 24 0 -5
BITMAP
0000
0000
0600
0600
0600
0600
0600
0600
0600
0000
0000
0000
0000
0000
0000
0000
0000
0000
0000
0000
0000
0000
0000
0000
ENDCHAR
STARTCHAR RIGHT SINGLE QUOTATION MARK
ENCODING 8217
SWIDTH 500 0
DWIDTH 12 0
BBX 12 24 0 -5
BITMAP
0000
0000
0600
0600
0600
0600
0600
0600
0600
0000
0000
0000
0000
0000
0000
0000
0000
0000
0000
0000
0000
0000
0000
0000
ENDCHAR
STARTCHAR LEFT DOUBLE QUOTATION MARK
ENCODING 8220
SWIDTH 500 0
DWIDTH 12 0
BBX 12 24 0 -5
BITMAP
0000
0000
30C0
30C0
30C0
30C0
30C0
30C0
30C0
0000
0000
0000
0000
0000
0000
0000
0000
0000
0000
0000
0000
0000
0000
0000
ENDCHAR
STARTCHAR RIGHT DOUBLE QUOTATION MARK
ENCODING 8221
SWIDTH 500 0
DWIDTH 12 0
BBX 12 24 0 -5
BITMAP
0000
0000
30C0
30C0
30C0
30C0
30C0
30C0
30C0
0000
0000
0000
0000
0000
0000
0000
0000
0000
0000
0000
0000
0000
0000
0000
ENDCHAR
STARTCHAR BULLET
ENCODING 8226
SWIDTH 500 0
DWIDTH 12 0
BBX 12 24 0 -5
BITMAP
0000
0000
0000
0000
0000
0000
0000
0000
0000
0F00
1F80
1F80
1F80
1F80
0F00
0000
0000
0000
0000
0000
0000
0000
0000
0000
ENDCHAR
STARTCHAR HORIZONTAL ELLIPSIS
ENCODING 8230
SWIDTH 500 0
DWIDTH 12 0
BBX 12 24 0 -5
BITMAP
0000
0000
0000
0000
0000
0000
0000
0000
0000
0000
0000
0000
0000
0000
0000
0000
0000
6660
6660
0000
0000
0000
0000
0000
ENDCHAR
STARTCHAR SINGLE LEFT-POINTING ANGLE QUOTATION MARK
ENCODING 8249
SWIDTH 500 0
DWIDTH 12 0
BBX 12 24 0 -5
BITMAP
0000
0000
0000
0000
0000
0000
0000
0000
0000
0300
0600
0C00
1800
3000
1800
0C00
0600
0300
0000
0000
0000
0000
0000
0000
ENDCHAR
STARTCHAR SINGLE RIGHT-POINTING ANGLE QUOTATION MARK
ENCODING 8250
SWIDTH 500 0
DWIDTH 12 0
BBX 12 24 0 -5
BITMAP
0000
0000
0000
0000
0000
0000
0000
0000
0000
0C00
0600
0300
0180
00C0
0180
0300
0600
0C00
0000
0000
0000
0000
0000
0000
ENDCHAR
STARTCHAR DOUBLE EXCLAMATION MARK
ENCODING 8252
SWIDTH 500 0
DWIDTH 12 0
BBX 12 24 0 -5
BITMAP
0000
0000
0000
0000
30C0
30C0
30C0
30C0
30C0
30C0
30C0
30C0
30C0
30C0
30C0
0000
0000
30C0
30C0
0000
0000
0000
0000
0000
ENDCHAR
STARTCHAR SUPERSCRIPT LATIN SMALL LETTER N
ENCODING 8319
SWIDTH 500 0
DWIDTH 12 0
BBX 12 24 0 -5
BITMAP
0000
0000
0000
1F00
1980
1980
1980
1980
1980
1980
1980
0000
0000
0000
0000
0000
0000
0000
0000
0000
0000
0000
0000
0000
ENDCHAR
STARTCHAR EURO SIGN
ENCODING 8364
SWIDTH 500 0
DWIDTH 12 0
BBX 12 24 0 -5
BITMAP
0000
0000
0000
0000
0780
0CC0
1860
1860
3000
3000
FF00
3000
3000
FF00
3000
3000
1860
1860
0CC0
0780
0000
0000
0000
0000
ENDCHAR
STARTCHAR ALMOST EQUAL TO
ENCODING 8776
SWIDTH 500 0
DWIDTH 12 0
BBX 12 24 0 -5
BITMAP
0000
0000
0000
0000
0000
0000
0000
0000
1C60
36C0
6380
0000
0000
1C60
36C0
6380
0000
0000
0000
0000
0000
0000
0000
0000
ENDCHAR
STARTCHAR REVERSED NOT SIGN
ENCODING 8976
SWIDTH 500 0
DWIDTH 12 0
BBX 12 24 0 -5
BITMAP
0000
0000
0000
0000
0000
0000
0000
0000
0000
7FE0
6000
6000
6000
6000
6000
0000
0000
0000
0000
0000
0000
0000
0000
0000
ENDCHAR
STARTCHAR TURNED NOT SIGN
ENCODING 8985
SWIDTH 500 0
DWIDTH 12 0
BBX 12 24 0 -5
BITMAP
0000
0000
0000
0000
0000
0000
0000
0000
0000
6000
6000
6000
6000
6000
7FE0
0000
0000
0000
0000
0000
0000
0000
0000
0000
ENDCHAR
STARTCHAR BOX DRAWINGS LIGHT HORIZONTAL
ENCODING 9472
SWIDTH 500 0
DWIDTH 12 0
BBX 12 24 0 -5
BITMAP
0000
0000
0000
0000
0000
0000
0000
0000
0000
0000
0000
FFF0
FFF0
0000
0000
0000
0000
0000
0000
0000
0000
0000
0000
0000
ENDCHAR
STARTCHAR BOX DRAWINGS HEAVY HORIZONTAL
ENCODING 9473
SWIDTH 500 0
DWIDTH 12 0
BBX 12 24 0 -5
BITMAP
0000
0000
0000
0000
0000
0000
0000
0000
0000
0000
FFF0
FFF0
FFF0
FFF0
0000
0000
0000
0000
0000
0000
0000
0000
0000
0000
ENDCHAR
STARTCHAR BOX DRAWINGS LIGHT VERTICAL
ENCODING 9474
SWIDTH 500 0
DWIDTH 12 0
BBX 12 24 0 -5
BITMAP
0600
0600
0600
0600
0600
0600
0600
0600
0600
0600
0600
0600
0600
0600
0600
0600
0600
0600
0600
0600
0600
0600
0600
0600
ENDCHAR
STARTCHAR BOX DRAWINGS HEAVY VERTICAL
ENCODING 9475
SWIDTH 500 0
DWIDTH 12 0
BBX 12 24 0 -5
BITMAP
0F00
0F00
0F00
0F00
0F00
0F00
0F00
0F00
0F00
0F00
0F00
0F00
0F00
0F00
0F00
0F00
0F00
0F00
0F00
0F00
0F00
0F00
0F00
0F00
ENDCHAR
STARTCHAR BOX DRAWINGS LIGHT TRIPLE DASH HORIZONTAL
ENCODING 9476
SWIDTH 500 0
DWIDTH 12 0
BBX 12 24 0 -5
BITMAP
0000
0000
0000
0000
0000
0000
0000
0000
0000
0000
0000
6660
6660
0000
0000
0000
0000
0000
0000
0000
0000
0000
0000
0000
ENDCHAR
STARTCHAR BOX DRAWINGS HEAVY TRIPLE DASH HORIZONTAL
ENCODING 9477
SWIDTH 500 0
DWIDTH 12 0
BBX 12 24 0 -5
BITMAP
0000
0000
0000
0000
0000
0000
0000
0000
0000
0000
6660
6660
6660
6660
0000
0000
0000
0000
0000
0000
0000
0000
0000
0000
ENDCHAR
STARTCHAR BOX DRAWINGS LIGHT TRIPLE DASH VERTICAL
ENCODING 9478
SWIDTH 500 0
DWIDTH 12 0
BBX 12 24 0 -5
BITMAP
0000
0000
0600
0600
0600
0600
0000
0000
0000
0000
0600
0600
0600
0600
0000
0000
0000
0000
0600
0600
0600
0600
0000
0000
ENDCHAR
STARTCHAR BOX DRAWINGS HEAVY TRIPLE DASH VERTICAL
ENCODING 9479
SWIDTH 500 0
DWIDTH 12 0
BBX 12 24 0 -5
BITMAP
0000
0000
0F00
0F00
0F00
0F00
0000
0000
0000
0000
0F00
0F00
0F00
0F00
0000
0000
0000
0000
0F00
0F00
0F00
0F00
0000
0000
ENDCHAR
STARTCHAR BOX DRAWINGS LIGHT QUADRUPLE DASH HORIZONTAL
ENCODING 9480
SWIDTH 500 0
DWIDTH 12 0
BBX 12 24 0 -5
BITMAP
0000
0000
0000
0000
0000
0000
0000
0000
0000
0000
0000
DB60
DB60
0000
0000
0000
0000
0000
0000
0000
0000
0000
0000
0000
ENDCHAR
STARTCHAR BOX DRAWINGS HEAVY QUADRUPLE DASH HORIZONTAL
ENCODING 9481
SWIDTH 500 0
DWIDTH 12 0
BBX 12 24 0 -5
BITMAP
0000
0000
0000
0000
0000
0000
0000
0000
0000
0000
DB60
DB60
DB60
DB60
0000
0000
0000
0000
0000
0000
0000
0000
0000
0000
ENDCHAR
STARTCHAR BOX DRAWINGS LIGHT QUADRUPLE DASH VERTICAL
ENCODING 9482
SWIDTH 500 0
DWIDTH 12 0
BBX 12 24 0 -5
BITMAP
0000
0600
0600
0600
0600
0000
0000
0600
0600
0600
0600
0000
0000
0600
0600
0600
0600
0000
0000
0600
0600
0600
0600
0000
ENDCHAR
STARTCHAR BOX DRAWINGS HEAVY QUADRUPLE DASH VERTICAL
ENCODING 9483
SWIDTH 500 0
DWIDTH 12 0
BBX 12 24 0 -5
BITMAP
0000
0F00
0F00
0F00
0F00
0000
0000
0F00
0F00
0F00
0F00
0000
0000
0F00
0F00
0F00
0F00
0000
0000
0F00
0F00
0F00
0F00
0000
ENDCHAR
STARTCHAR BOX DRAWINGS LIGHT DOWN AND RIGHT
ENCODING 9484
SWIDTH 500 0
DWIDTH 12 0
BBX 12 24 0 -5
BITMAP
0000
0000
0000
0000
0000
0000
0000
0000
0000
0000
0000
07F0
07F0
0600
0600
0600
0600
0600
0600
0600
0600
0600
0600
0600
ENDCHAR
STARTCHAR BOX DRAWINGS DOWN LIGHT AND RIGHT HEAVY
ENCODING 9485
SWIDTH 500 0
DWIDTH 12 0
BBX 12 24 0 -5
BITMAP
0000
0000
0000
0000
0000
0000
0000
0000
0000
0000
07F0
07F0
07F0
07F0
0600
0600
0600
0600
0600
0600
0600
0600
0600
0600
ENDCHAR
STARTCHAR BOX DRAWINGS DOWN HEAVY AND RIGHT LIGHT
ENCODING 9486
SWIDTH 500 0
DWIDTH 12 0
BBX 12 24 0 -5
BITMAP
0000
0000
0000
0000
0000
0000
0000
0000
0000
0000
0000
0FF0
0FF0
0F00
0F00
0F00
0F00
0F00
0F00
0F00
0F00
0F00
0F00
0F00
ENDCHAR
STARTCHAR BOX DRAWINGS HEAVY DOWN AND RIGHT
ENCODING 9487
SWIDTH 500 0
DWIDTH 12 0
BBX 12 24 0 -5
BITMAP
0000
0000
0000
0000
0000
0000
0000
0000
0000
0000
0FF0
0FF0
0FF0
0FF0
0F00
0F00
0F00
0F00
0F00
0F00
0F00
0F00
0F00
0F00
ENDCHAR
STARTCHAR BOX DRAWINGS LIGHT DOWN AND LEFT
ENCODING 9488
SWIDTH 500 0
DWIDTH 12 0
BBX 12 24 0 -5
BITMAP
0000
0000
0000
0000
0000
0000
0000
0000
0000
0000
0000
FE00
FE00
0600
0600
0600
0600
0600
0600
0600
0600
0600
0600
0600
ENDCHAR
STARTCHAR BOX DRAWINGS DOWN LIGHT AND LEFT HEAVY
ENCODING 9489
SWIDTH 500 0
DWIDTH 12 0
BBX 12 24 0 -5
BITMAP
0000
0000
0000
0000
0000
0000
0000
0000
0000
0000
FE00
FE00
FE00
FE00
0600
0600
0600
0600
0600
0600
0600
0600
0600
0600
ENDCHAR
STARTCHAR BOX DRAWINGS DOWN HEAVY AND LEFT LIGHT
ENCODING 9490
SWIDTH 500 0
DWIDTH 12 0
BBX 12 24 0 -5
BITMAP
0000
0000
0000
0000
0000
0000
0000
0000
0000
0000
0000
FF00
FF00
0F00
0F00
0F00
0F00
0F00
0F00
0F00
0F00
0F00
0F00
0F00
ENDCHAR
STARTCHAR BOX DRAWINGS HEAVY DOWN AND LEFT
ENCODING 9491
SWIDTH 500 0
DWIDTH 12 0
BBX 12 24 0 -5
BITMAP
0000
0000
0000
0000
0000
0000
0000
0000
0000
0000
FF00
FF00
FF00
FF00
0F00
0F00
0F00
0F00
0F00
0F00
0F00
0F00
0F00
0F00
ENDCHAR
STARTCHAR BOX DRAWINGS LIGHT UP AND RIGHT
ENCODING 9492
SWIDTH 500 0
DWIDTH 12 0
BBX 12 24 0 -5
BITMAP
0600
0600
0600
0600
0600
0600
0600
0600
0600
0600
0600
07F0
07F0
0000
0000
0000
0000
0000
0000
0000
0000
0000
0000
0000
ENDCHAR
STARTCHAR BOX DRAWINGS UP LIGHT AND RIGHT HEAVY
ENCODING 9493
SWIDTH 500 0
DWIDTH 12 0
BBX 12 24 0 -5
BITMAP
0600
0600
0600
0600
0600
0600
0600
0600
0600
0600
07F0
07F0
07F0
07F0
0000
0000
0000
0000
0000
0000
0000
0000
0000
0000
ENDCHAR
STARTCHAR BOX DRAWINGS UP HEAVY AND RIGHT LIGHT
ENCODING 9494
SWIDTH 500 0
DWIDTH 12 0
BBX 12 24 0 -5
BITMAP
0F00
0F00
0F00
0F00
0F00
0F00
0F00
0F00
0F00
0F00
0F00
0FF0
0FF0
0000
0000
0000
0000
0000
0000
0000
0000
0000
0000
0000
ENDCHAR
STARTCHAR BOX DRAWINGS HEAVY UP AND RIGHT
ENCODING 9495
SWIDTH 500 0
DWIDTH 12 0
BBX 12 24 0 -5
BITMAP
0F00
0F00
0F00
0F00
0F00
0F00
0F00
0F00
0F00
0F00
0FF0
0FF0
0FF0
0FF0
0000
0000
0000
0000
0000
0000
0000
0000
0000
0000
ENDCHAR
STARTCHAR BOX DRAWINGS LIGHT UP AND LEFT
ENCODING 9496
SWIDTH 500 0
DWIDTH 12 0
BBX 12 24 0 -5
BITMAP
0600
0600
0600
0600
0600
0600
0600
0600
0600
0600
0600
FE00
FE00
0000
0000
0000
0000
0000
0000
0000
0000
0000
0000
0000
ENDCHAR
STARTCHAR BOX DRAWINGS UP LIGHT AND LEFT HEAVY
ENCODING 9497
SWIDTH 500 0
DWIDTH 12 0
BBX 12 24 0 -5
BITMAP
0600
0600
0600
0600
0600
0600
0600
0600
0600
0600
FE00
FE00
FE00
FE00
0000
0000
0000
0000
0000
0000
0000
0000
0000
0000
ENDCHAR
STARTCHAR BOX DRAWINGS UP HEAVY AND LEFT LIGHT
ENCODING 9498
SWIDTH 500 0
DWIDTH 12 0
BBX 12 24 0 -5
BITMAP
0F00
0F00
0F00
0F00
0F00
0F00
0F00
0F00
0F00
0F00
0F00
FF00
FF00
0000
0000
0000
0000
0000
0000
0000
0000
0000
0000
0000
ENDCHAR
STARTCHAR BOX DRAWINGS HEAVY UP AND LEFT
ENCODING 9499
SWIDTH 500 0
DWIDTH 12 0
BBX 12 24 0 -5
BITMAP
0F00
0F00
0F00
0F00
0F00
0F00
0F00
0F00
0F00
0F00
FF00
FF00
FF00
FF00
0000
0000
0000
0000
0000
0000
0000
0000
0000
0000
ENDCHAR
STARTCHAR BOX DRAWINGS LIGHT VERTICAL AND RIGHT
ENCODING 9500
SWIDTH 500 0
DWIDTH 12 0
BBX 12 24 0 -5
BITMAP
0600
0600
0600
0600
0600
0600
0600
0600
0600
0600
0600
07F0
07F0
0600
0600
0600
0600
0600
0600
0600
0600
0600
0600
0600
ENDCHAR
STARTCHAR BOX DRAWINGS VERTICAL LIGHT AND RIGHT HEAVY
ENCODING 9501
SWIDTH 500 0
DWIDTH 12 0
BBX 12 24 0 -5
BITMAP
0600
0600
0600
0600
0600
0600
0600
0600
0600
0600
07F0
07F0
07F0
07F0
0600
0600
0600
0600
0600
0600
0600
0600
0600
0600
ENDCHAR
STARTCHAR BOX DRAWINGS UP HEAVY AND RIGHT DOWN LIGHT
ENCODING 9502
SWIDTH 500 0
DWIDTH 12 0
BBX 12 24 0 -5
BITMAP
0F00
0F00
0F00
0F00
0F00
0F00
0F00
0F00
0F00
0F00
0F00
0FF0
0FF0
0600
0600
0600
0600
0600
0600
0600
0600
0600
0600
0600
ENDCHAR
STARTCHAR BOX DRAWINGS DOWN HEAVY AND RIGHT UP LIGHT
ENCODING 9503
SWIDTH 500 0
DWIDTH 12 0
BBX 12 24 0 -5
BITMAP
0600
0600
0600
0600
0600
0600
0600
0600
0600
0600
0600
0FF0
0FF0
0F00
0F00
0F00
0F00
0F00
0F00
0F00
0F00
0F00
0F00
0F00
ENDCHAR
STARTCHAR BOX DRAWINGS VERTICAL HEAVY AND RIGHT LIGHT
ENCODING 9504
SWIDTH 500 0
DWIDTH 12 0
BBX 12 24 0 -5
BITMAP
0F00
0F00
0F00
0F00
0F00
0F00
0F00
0F00
0F00
0F00
0F00
0FF0
0FF0
0F00
0F00
0F00
0F00
0F00
0F00
0F00
0F00
0F00
0F00
0F00
ENDCHAR
STARTCHAR BOX DRAWINGS DOWN LIGHT AND RIGHT UP HEAVY
ENCODING 9505
SWIDTH 500 0
DWIDTH 12 0
BBX 12 24 0 -5
BITMAP
0F00
0F00
0F00
0F00
0F00
0F00
0F00
0F00
0F00
0F00
0FF0
0FF0
0FF0
0FF0
0600
0600
0600
0600
0600
0600
0600
0600
0600
0600
ENDCHAR
STARTCHAR BOX DRAWINGS UP LIGHT AND RIGHT DOWN HEAVY
ENCODING 9506
SWIDTH 500 0
DWIDTH 12 0
BBX 12 24 0 -5
BITMAP
0600
0600
0600
0600
0600
0600
0600
0600
0600
0600
0FF0
0FF0
0FF0
0FF0
0F00
0F00
0F00
0F00
0F00
0F00
0F00
0F00
0F00
0F00
ENDCHAR
STARTCHAR BOX DRAWINGS HEAVY VERTICAL AND RIGHT
ENCODING 9507
SWIDTH 500 0
DWIDTH 12 0
BBX 12 24 0 -5
BITMAP
0F00
0F00
0F00
0F00
0F00
0F00
0F00
0F00
0F00
0F00
0FF0
0FF0
0FF0
0FF0
0F00
0F00
0F00
0F00
0F00
0F00
0F00
0F00
0F00
0F00
ENDCHAR
STARTCHAR BOX DRAWINGS LIGHT VERTICAL AND LEFT
ENCODING 9508
SWIDTH 500 0
DWIDTH 12 0
BBX 12 24 0 -5
BITMAP
0600
0600
0600
0600
0600
0600
0600
0600
0600
0600
0600
FE00
FE00
0600
0600
0600
0600
0600
0600
0600
0600
0600
0600
0600
ENDCHAR
STARTCHAR BOX DRAWINGS VERTICAL LIGHT AND LEFT HEAVY
ENCODING 9509
SWIDTH 500 0
DWIDTH 12 0
BBX 12 24 0 -5
BITMAP
0600
0600
0600
0600
0600
0600
0600
0600
0600
0600
FE00
FE00
FE00
FE00
0600
0600
0600
0600
0600
0600
0600
0600
0600
0600
ENDCHAR
STARTCHAR BOX DRAWINGS UP HEAVY AND LEFT DOWN LIGHT
ENCODING 9510
SWIDTH 500 0
DWIDTH 12 0
BBX 12 24 0 -5
BITMAP
0F00
0F00
0F00
0F00
0F00
0F00
0F00
0F00
0F00
0F00
0F00
FF00
FF00
0600
0600
0600
0600
0600
0600
0600
0600
0600
0600
0600
ENDCHAR
STARTCHAR BOX DRAWINGS DOWN HEAVY AND LEFT UP LIGHT
ENCODING 9511
SWIDTH 500 0
DWIDTH 12 0
BBX 12 24 0 -5
BITMAP
0600
0600
0600
0600
0600
0600
0600
0600
0600
0600
0600
FF00
FF00
0F00
0F00
0F00
0F00
0F00
0F00
0F00
0F00
0F00
0F00
0F00
ENDCHAR
STARTCHAR BOX DRAWINGS VERTICAL HEAVY AND LEFT LIGHT
ENCODING 9512
SWIDTH 500 0
DWIDTH 12 0
BBX 12 24 0 -5
BITMAP
0F00
0F00
0F00
0F00
0F00
0F00
0F00
0F00
0F00
0F00
0F00
FF00
FF00
0F00
0F00
0F00
0F00
0F00
0F00
0F00
0F00
0F00
0F00
0F00
ENDCHAR
STARTCHAR BOX DRAWINGS DOWN LIGHT AND LEFT UP HEAVY
ENCODING 9513
SWIDTH 500 0
DWIDTH 12 0
BBX 12 24 0 -5
BITMAP
0F00
0F00
0F00
0F00
0F00
0F00
0F00
0F00
0F00
0F00
FF00
FF00
FF00
FF00
0600
0600
0600
0600
0600
0600
0600
0600
0600
0600
ENDCHAR
STARTCHAR BOX DRAWINGS UP LIGHT AND LEFT DOWN HEAVY
ENCODING 9514
SWIDTH 500 0
DWIDTH 12 0
BBX 12 24 0 -5
BITMAP
0600
0600
0600
0600
0600
0600
0600
0600
0600
0600
FF00
FF00
FF00
FF00
0F00
0F00
0F00
0F00
0F00
0F00
0F00
0F00
0F00
0F00
ENDCHAR
STARTCHAR BOX DRAWINGS HEAVY VERTICAL AND LEFT
ENCODING 9515
SWIDTH 500 0
DWIDTH 12 0
BBX 12 24 0 -5
BITMAP
0F00
0F00
0F00
0F00
0F00
0F00
0F00
0F00
0F00
0F00
FF00
FF00
FF00
FF00
0F00
0F00
0F00
0F00
0F00
0F00
0F00
0F00
0F00
0F00
ENDCHAR
STARTCHAR BOX DRAWINGS LIGHT DOWN AND HORIZONTAL
ENCODING 9516
SWIDTH 500 0
DWIDTH 12 0
BBX 12 24 0 -5
BITMAP
0000
0000
0000
0000
0000
0000
0000
0000
0000
0000
0000
FFF0
FFF0
0600
0600
0600
0600
0600
0600
0600
0600
0600
0600
0600
ENDCHAR
STARTCHAR BOX DRAWINGS LEFT HEAVY AND RIGHT DOWN LIGHT
ENCODING 9517
SWIDTH 500 0
DWIDTH 12 0
BBX 12 24 0 -5
BITMAP
0000
0000
0000
0000
0000
0000
0000
0000
0000
0000
FE00
FFF0
FFF0
FE00
0600
0600
0600
0600
0600
0600
0600
0600
0600
0600
ENDCHAR
STARTCHAR BOX DRAWINGS RIGHT HEAVY AND LEFT DOWN LIGHT
ENCODING 9518
SWIDTH 500 0
DWIDTH 12 0
BBX 12 24 0 -5
BITMAP
0000
0000
0000
0000
0000
0000
0000
0000
0000
0000
07F0
FFF0
FFF0
07F0
0600
0600
0600
0600
0600
0600
0600
0600
0600
0600
ENDCHAR
STARTCHAR BOX DRAWINGS DOWN LIGHT AND HORIZONTAL HEAVY
ENCODING 9519
SWIDTH 500 0
DWIDTH 12 0
BBX 12 24 0 -5
BITMAP
0000
0000
0000
0000
0000
0000
0000
0000
0000
0000
FFF0
FFF0
FFF0
FFF0
0600
0600
0600
0600
0600
0600
0600
0600
0600
0600
ENDCHAR
STARTCHAR BOX DRAWINGS DOWN HEAVY AND HORIZONTAL LIGHT
ENCODING 9520
SWIDTH 500 0
DWIDTH 12 0
BBX 12 24 0 -5
BITMAP
0000
0000
0000
0000
0000
0000
0000
0000
0000
0000
0000
FFF0
FFF0
0F00
0F00
0F00
0F00
0F00
0F00
0F00
0F00
0F00
0F00
0F00
ENDCHAR
STARTCHAR BOX DRAWINGS RIGHT LIGHT AND LEFT DOWN HEAVY
ENCODING 9521
SWIDTH 500 0
DWIDTH 12 0
BBX 12 24 0 -5
BITMAP
0000
0000
0000
0000
0000
0000
0000
0000
0000
0000
FF00
FFF0
FFF0
FF00
0F00
0F00
0F00
0F00
0F00
0F00
0F00
0F00
0F00
0F00
ENDCHAR
STARTCHAR BOX DRAWINGS LEFT LIGHT AND RIGHT DOWN HEAVY
ENCODING 9522
SWIDTH 500 0
DWIDTH 12 0
BBX 12 24 0 -5
BITMAP
0000
0000
0000
0000
0000
0000
0000
0000
0000
0000
0FF0
FFF0
FFF0
0FF0
0F00
0F00
0F00
0F00
0F00
0F00
0F00
0F00
0F00
0F00
ENDCHAR
STARTCHAR BOX DRAWINGS HEAVY DOWN AND HORIZONTAL
ENCODING 9523
SWIDTH 500 0
DWIDTH 12 0
BBX 12 24 0 -5
BITMAP
0000
0000
0000
0000
0000
0000
0000
0000
0000
0000
FFF0
FFF0
FFF0
FFF0
0F00
0F00
0F00
0F00
0F00
0F00
0F00
0F00
0F00
0F00
ENDCHAR
STARTCHAR BOX DRAWINGS LIGHT UP AND HORIZONTAL
ENCODING 9524
SWIDTH 500 0
DWIDTH 12 0
BBX 12 24 0 -5
BITMAP
0600
0600
0600
0600
0600
0600
0600
0600
0600
0600
0600
FFF0
FFF0
0000
0000
0000
0000
0000
0000
0000
0000
0000
0000
0000
ENDCHAR
STARTCHAR BOX DRAWINGS LEFT HEAVY AND RIGHT UP LIGHT
ENCODING 9525
SWIDTH 500 0
DWIDTH 12 0
BBX 12 24 0 -5
BITMAP
0600
0600
0600
0600
0600
0600
0600
0600
0600
0600
FE00
FFF0
FFF0
FE00
0000
0000
0000
0000
0000
0000
0000
0000
0000
0000
ENDCHAR
STARTCHAR BOX DRAWINGS RIGHT HEAVY AND LEFT UP LIGHT
ENCODING 9526
SWIDTH 500 0
DWIDTH 12 0
BBX 12 24 0 -5
BITMAP
0600
0600
0600
0600
0600
0600
0600
0600
0600
0600
07F0
FFF0
FFF0
07F0
0000
0000
0000
0000
0000
0000
0000
0000
0000
0000
ENDCHAR
STARTCHAR BOX DRAWINGS UP LIGHT AND HORIZONTAL HEAVY
ENCODING 9527
SWIDTH 500 0
DWIDTH 12 0
BBX 12 24 0 -5
BITMAP
0600
0600
0600
0600
0600
0600
0600
0600
0600
0600
FFF0
FFF0
FFF0
FFF0
0000
0000
0000
0000
0000
0000
0000
0000
0000
0000
ENDCHAR
STARTCHAR BOX DRAWINGS UP HEAVY AND HORIZONTAL LIGHT
ENCODING 9528
SWIDTH 500 0
DWIDTH 12 0
BBX 12 24 0 -5
BITMAP
0F00
0F00
0F00
0F00
0F00
0F00
0F00
0F00
0F00
0F00
0F00
FFF0
FFF0
0000
0000
0000
0000
0000
0000
0000
0000
0000
0000
0000
ENDCHAR
STARTCHAR BOX DRAWINGS RIGHT LIGHT AND LEFT UP HEAVY
ENCODING 9529
SWIDTH 500 0
DWIDTH 12 0
BBX 12 24 0 -5
BITMAP
0F00
0F00
0F00
0F00
0F00
0F00
0F00
0F00
0F00
0F00
FF00
FFF0
FFF0
FF00
0000
0000
0000
0000
0000
0000
0000
0000
0000
0000
ENDCHAR
STARTCHAR BOX DRAWINGS LEFT LIGHT AND RIGHT UP HEAVY
ENCODING 9530
SWIDTH 500 0
DWIDTH 12 0
BBX 12 24 0 -5
BITMAP
0F00
0F00
0F00
0F00
0F00
0F00
0F00
0F00
0F00
0F00
0FF0
FFF0
FFF0
0FF0
0000
0000
0000
0000
0000
0000
0000
0000
0000
0000
ENDCHAR
STARTCHAR BOX DRAWINGS HEAVY UP AND HORIZONTAL
ENCODING 9531
SWIDTH 500 0
DWIDTH 12 0
BBX 12 24 0 -5
BITMAP
0F00
0F00
0F00
0F00
0F00
0F00
0F00
0F00
0F00
0F00
FFF0
FFF0
FFF0
FFF0
0000
0000
0000
0000
0000
0000
0000
0000
0000
0000
ENDCHAR
STARTCHAR BOX DRAWINGS LIGHT VERTICAL AND HORIZONTAL
ENCODING 9532
SWIDTH 500 0
DWIDTH 12 0
BBX 12 24 0 -5
BITMAP
0600
0600
0600
0600
0600
0600
0600
0600
0600
0600
0600
FFF0
FFF0
0600
0600
0600
0600
0600
0600
0600
0600
0600
0600
0600
ENDCHAR
STARTCHAR BOX DRAWINGS LEFT HEAVY AND RIGHT VERTICAL LIGHT
ENCODING 9533
SWIDTH 500 0
DWIDTH 12 0
BBX 12 24 0 -5
BITMAP
0600
0600
0600
0600
0600
0600
0600
0600
0600
0600
FE00
FFF0
FFF0
FE00
0600
0600
0600
0600
0600
0600
0600
0600
0600
0600
ENDCHAR
STARTCHAR BOX DRAWINGS RIGHT HEAVY AND LEFT VERTICAL LIGHT
ENCODING 9534
SWIDTH 500 0
DWIDTH 12 0
BBX 12 24 0 -5
BITMAP
0600
0600
0600
0600
0600
0600
0600
0600
0600
0600
07F0
FFF0
FFF0
07F0
0600
0600
0600
0600
0600
0600
0600
0600
0600
0600
ENDCHAR
STARTCHAR BOX DRAWINGS VERTICAL LIGHT AND HORIZONTAL HEAVY
ENCODING 9535
SWIDTH 500 0
DWIDTH 12 0
BBX 12 24 0 -5
BITMAP
0600
0600
0600
0600
0600
0600
0600
0600
0600
0600
FFF0
FFF0
FFF0
FFF0
0600
0600
0600
0600
0600
0600
0600
0600
0600
0600
ENDCHAR
STARTCHAR BOX DRAWINGS UP HEAVY AND DOWN HORIZONTAL LIGHT
ENCODING 9536
SWIDTH 500 0
DWIDTH 12 0
BBX 12 24 0 -5
BITMAP
0F00
0F00
0F00
0F00
0F00
0F00
0F00
0F00
0F00
0F00
0F00
FFF0
FFF0
0600
0600
0600
0600
0600
0600
0600
0600
0600
0600
0600
ENDCHAR
STARTCHAR BOX DRAWINGS DOWN HEAVY AND UP HORIZONTAL LIGHT
ENCODING 9537
SWIDTH 500 0
DWIDTH 12 0
BBX 12 24 0 -5
BITMAP
0600
0600
0600
0600
0600
0600
0600
0600
0600
0600
0600
FFF0
FFF0
0F00
0F00
0F00
0F00
0F00
0F00
0F00
0F00
0F00
0F00
0F00
ENDCHAR
STARTCHAR BOX DRAWINGS VERTICAL HEAVY AND HORIZONTAL LIGHT
ENCODING 9538
SWIDTH 500 0
DWIDTH 12 0
BBX 12 24 0 -5
BITMAP
0F00
0F00
0F00
0F00
0F00
0F00
0F00
0F00
0F00
0F00
0F00
FFF0
FFF0
0F00
0F00
0F00
0F00
0F00
0F00
0F00
0F00
0F00
0F00
0F00
ENDCHAR
STARTCHAR BOX DRAWINGS LEFT UP HEAVY AND RIGHT DOWN LIGHT
ENCODING 9539
SWIDTH 500 0
DWIDTH 12 0
BBX 12 24 0 -5
BITMAP
0F00
0F00
0F00
0F00
0F00
0F00
0F00
0F00
0F00
0F00
FF00
FFF0
FFF0
FE00
0600
0600
0600
0600
0600
0600
0600
0600
0600
0600
ENDCHAR
STARTCHAR BOX DRAWINGS RIGHT UP HEAVY AND LEFT DOWN LIGHT
ENCODING 9540
SWIDTH 500 0
DWIDTH 12 0
BBX 12 24 0 -5
BITMAP
0F00
0F00
0F00
0F00
0F00
0F00
0F00
0F00
0F00
0F00
0FF0
FFF0
FFF0
07F0
0600
0600
0600
0600
0600
0600
0600
0600
0600
0600
ENDCHAR
STARTCHAR BOX DRAWINGS LEFT DOWN HEAVY AND RIGHT UP LIGHT
ENCODING 9541
SWIDTH 500 0
DWIDTH 12 0
BBX 12 24 0 -5
BITMAP
0600
0600
0600
0600
0600
0600
0600
0600
0600
0600
FE00
FFF0
FFF0
FF00
0F00
0F00
0F00
0F00
0F00
0F00
0F00
0F00
0F00
0F00
ENDCHAR
STARTCHAR BOX DRAWINGS RIGHT DOWN HEAVY AND LEFT UP LIGHT
ENCODING 9542
SWIDTH 500 0
DWIDTH 12 0
BBX 12 24 0 -5
BITMAP
0600
0600
0600
0600
0600
0600
0600
0600
0600
0600
07F0
FFF0
FFF0
0FF0
0F00
0F00
0F00
0F00
0F00
0F00
0F00
0F00
0F00
0F00
ENDCHAR
STARTCHAR BOX DRAWINGS DOWN LIGHT AND UP HORIZONTAL HEAVY
ENCODING 9543
SWIDTH 500 0
DWIDTH 12 0
BBX 12 24 0 -5
BITMAP
0F00
0F00
0F00
0F00
0F00
0F00
0F00
0F00
0F00
0F00
FFF0
FFF0
FFF0
FFF0
0600
0600
0600
0600
0600
0600
0600
0600
0600
0600
ENDCHAR
STARTCHAR BOX DRAWINGS UP LIGHT AND DOWN HORIZONTAL HEAVY
ENCODING 9544
SWIDTH 500 0
DWIDTH 12 0
BBX 12 24 0 -5
BITMAP
0600
0600
0600
0600
0600
0600
0600
0600
0600
0600
FFF0
FFF0
FFF0
FFF0
0F00
0F00
0F00
0F00
0F00
0F00
0F00
0F00
0F00
0F00
ENDCHAR
STARTCHAR BOX DRAWINGS RIGHT LIGHT AND LEFT VERTICAL HEAVY
ENCODING 9545
SWIDTH 500 0
DWIDTH 12 0
BBX 12 24 0 -5
BITMAP
0F00
0F00
0F00
0F00
0F00
0F00
0F00
0F00
0F00
0F00
FF00
FFF0
FFF0
FF00
0F00
0F00
0F00
0F00
0F00
0F00
0F00
0F00
0F00
0F00
ENDCHAR
STARTCHAR BOX DRAWINGS LEFT LIGHT AND RIGHT VERTICAL HEAVY
ENCODING 9546
SWIDTH 500 0
DWIDTH 12 0
BBX 12 24 0 -5
BITMAP
0F00
0F00
0F00
0F00
0F00
0F00
0F00
0F00
0F00
0F00
0FF0
FFF0
FFF0
0FF0
0F00
0F00
0F00
0F00
0F00
0F00
0F00
0F00
0F00
0F00
ENDCHAR
STARTCHAR BOX DRAWINGS HEAVY VERTICAL AND HORIZONTAL
ENCODING 9547
SWIDTH 500 0
DWIDTH 12 0
BBX 12 24 0 -5
BITMAP
0F00
0F00
0F00
0F00
0F00
0F00
0F00
0F00
0F00
0F00
FFF0
FFF0
FFF0
FFF0
0F00
0F00
0F00
0F00
0F00
0F00
0F00
0F00
0F00
0F00
ENDCHAR
STARTCHAR BOX DRAWINGS LIGHT DOUBLE DASH HORIZONTAL
ENCODING 9548
SWIDTH 500 0
DWIDTH 12 0
BBX 12 24 0 -5
BITMAP
0000
0000
0000
0000
0000
0000
0000
0000
0000
0000
0000
79E0
79E0
0000
0000
0000
0000
0000
0000
0000
0000
0000
0000
0000
ENDCHAR
STARTCHAR BOX DRAWINGS HEAVY DOUBLE DASH HORIZONTAL
ENCODING 9549
SWIDTH 500 0
DWIDTH 12 0
BBX 12 24 0 -5
BITMAP
0000
0000
0000
0000
0000
0000
0000
0000
0000
0000
79E0
79E0
79E0
79E0
0000
0000
0000
0000
0000
0000
0000
0000
0000
0000
ENDCHAR
STARTCHAR BOX DRAWINGS LIGHT DOUBLE DASH VERTICAL
ENCODING 9550
SWIDTH 500 0
DWIDTH 12 0
BBX 12 24 0 -5
BITMAP
0000
0600
0600
0600
0600
0600
0600
0600
0600
0600
0600
0000
0000
0600
0600
0600
0600
0600
0600
0600
0600
0600
0600
0000
ENDCHAR
STARTCHAR BOX DRAWINGS HEAVY DOUBLE DASH VERTICAL
ENCODING 9551
SWIDTH 500 0
DWIDTH 12 0
BBX 12 24 0 -5
BITMAP
0000
0F00
0F00
0F00
0F00
0F00
0F00
0F00
0F00
0F00
0F00
0000
0000
0F00
0F00
0F00
0F00
0F00
0F00
0F00
0F00
0F00
0F00
0000
ENDCHAR
STARTCHAR BOX DRAWINGS DOUBLE HORIZONTAL
ENCODING 9552
SWIDTH 500 0
DWIDTH 12 0
BBX 12 24 0 -5
BITMAP
0000
0000
0000
0000
0000
0000
0000
0000
0000
FFF0
FFF0
0000
0000
FFF0
FFF0
0000
0000
0000
0000
0000
0000
0000
0000
0000
ENDCHAR
STARTCHAR BOX DRAWINGS DOUBLE VERTICAL
ENCODING 9553
SWIDTH 500 0
DWIDTH 12 0
BBX 12 24 0 -5
BITMAP
1980
1980
1980
1980
1980
1980
1980
1980
1980
1980
1980
1980
1980
1980
1980
1980
1980
1980
1980
1980
1980
1980
1980
1980
ENDCHAR
STARTCHAR BOX DRAWINGS DOWN SINGLE AND RIGHT DOUBLE
ENCODING 9554
SWIDTH 500 0
DWIDTH 12 0
BBX 12 24 0 -5
BITMAP
0000
0000
0000
0000
0000
0000
0000
0000
0000
07F0
07F0
0600
0600
07F0
07F0
0600
0600
0600
0600
0600
0600
0600
0600
0600
ENDCHAR
STARTCHAR BOX DRAWINGS DOWN DOUBLE AND RIGHT SINGLE
ENCODING 9555
SWIDTH 500 0
DWIDTH 12 0
BBX 12 24 0 -5
BITMAP
0000
0000
0000
0000
0000
0000
0000
0000
0000
0000
0000
1FF0
1FF0
1980
1980
1980
1980
1980
1980
1980
1980
1980
1980
1980
ENDCHAR
STARTCHAR BOX DRAWINGS DOUBLE DOWN AND RIGHT
ENCODING 9556
SWIDTH 500 0
DWIDTH 12 0
BBX 12 24 0 -5
BITMAP
0000
0000
0000
0000
0000
0000
0000
0000
0000
1FF0
1FF0
1800
1800
19F0
19F0
1980
1980
1980
1980
1980
1980
1980
1980
1980
ENDCHAR
STARTCHAR BOX DRAWINGS DOWN SINGLE AND LEFT DOUBLE
ENCODING 9557
SWIDTH 500 0
DWIDTH 12 0
BBX 12 24 0 -5
BITMAP
0000
0000
0000
0000
0000
0000
0000
0000
0000
FE00
FE00
0600
0600
FE00
FE00
0600
0600
0600
0600
0600
0600
0600
0600
0600
ENDCHAR
STARTCHAR BOX DRAWINGS DOWN DOUBLE AND LEFT SINGLE
ENCODING 9558
SWIDTH 500 0
DWIDTH 12 0
BBX 12 24 0 -5
BITMAP
0000
0000
0000
0000
0000
0000
0000
0000
0000
0000
0000
FF80
FF80
1980
1980
1980
1980
1980
1980
1980
1980
1980
1980
1980
ENDCHAR
STARTCHAR BOX DRAWINGS DOUBLE DOWN AND LEFT
ENCODING 9559
SWIDTH 500 0
DWIDTH 12 0
BBX 12 24 0 -5
BITMAP
0000
0000
0000
0000
0000
0000
0000
0000
0000
FF80
FF80
0180
0180
F980
F980
1980
1980
1980
1980
1980
1980
1980
1980
1980
ENDCHAR
STARTCHAR BOX DRAWINGS UP SINGLE AND RIGHT DOUBLE
ENCODING 9560
SWIDTH 500 0
DWIDTH 12 0
BBX 12 24 0 -5
BITMAP
0600
0600
0600
0600
0600
0600
0600
0600
0600
07F0
07F0
0600
0600
07F0
07F0
0000
0000
0000
0000
0000
0000
0000
0000
0000
ENDCHAR
STARTCHAR BOX DRAWINGS UP DOUBLE AND RIGHT SINGLE
ENCODING 9561
SWIDTH 500 0
DWIDTH 12 0
BBX 12 24 0 -5
BITMAP
1980
1980
1980
1980
1980
1980
1980
1980
1980
1980
1980
1FF0
1FF0
0000
0000
0000
0000
0000
0000
0000
0000
0000
0000
0000
ENDCHAR
STARTCHAR BOX DRAWINGS DOUBLE UP AND RIGHT
ENCODING 9562
SWIDTH 500 0
DWIDTH 12 0
BBX 12 24 0 -5
BITMAP
1980
1980
1980
1980
1980
1980
1980
1980
1980
19F0
19F0
1800
1800
1FF0
1FF0
0000
0000
0000
0000
0000
0000
0000
0000
0000
ENDCHAR
STARTCHAR BOX DRAWINGS UP SINGLE AND LEFT DOUBLE
ENCODING 9563
SWIDTH 500 0
DWIDTH 12 0
BBX 12 24 0 -5
BITMAP
0600
0600
0600
0600
0600
0600
0600
0600
0600
FE00
FE00
0600
0600
FE00
FE00
0000
0000
0000
0000
0000
0000
0000
0000
0000
ENDCHAR
STARTCHAR BOX DRAWINGS UP DOUBLE AND LEFT SINGLE
ENCODING 9564
SWIDTH 500 0
DWIDTH 12 0
BBX 12 24 0 -5
BITMAP
1980
1980
1980
1980
1980
1980
1980
1980
1980
1980
1980
FF80
FF80
0000
0000
0000
0000
0000
0000
0000
0000
0000
0000
0000
ENDCHAR
STARTCHAR BOX DRAWINGS DOUBLE UP AND LEFT
ENCODING 9565
SWIDTH 500 0
DWIDTH 12 0
BBX 12 24 0 -5
BITMAP
1980
1980
1980
1980
1980
1980
1980
1980
1980
F980
F980
0180
0180
FF80
FF80
0000
0000
0000
0000
0000
0000
0000
0000
0000
ENDCHAR
STARTCHAR BOX DRAWINGS VERTICAL SINGLE AND RIGHT DOUBLE
ENCODING 9566
SWIDTH 500 0
DWIDTH 12 0
BBX 12 24 0 -5
BITMAP
0600
0600
0600
0600
0600
0600
0600
0600
0600
07F0
07F0
0600
0600
07F0
07F0
0600
0600
0600
0600
0600
0600
0600
0600
0600
ENDCHAR
STARTCHAR BOX DRAWINGS VERTICAL DOUBLE AND RIGHT SINGLE
ENCODING 9567
SWIDTH 500 0
DWIDTH 12 0
BBX 12 24 0 -5
BITMAP
1980
1980
1980
1980
1980
1980
1980
1980
1980
1980
1980
19F0
19F0
1980
1980
1980
1980
1980
1980
1980
1980
1980
1980
1980
ENDCHAR
STARTCHAR BOX DRAWINGS DOUBLE VERTICAL AND RIGHT
ENCODING 9568
SWIDTH 500 0
DWIDTH 12 0
BBX 12 24 0 -5
BITMAP
1980
1980
1980
1980
1980
1980
1980
1980
1980
19F0
19F0
1800
1800
19F0
19F0
1980
1980
1980
1980
1980
1980
1980
1980
1980
ENDCHAR
STARTCHAR BOX DRAWINGS VERTICAL SINGLE AND LEFT DOUBLE
ENCODING 9569
SWIDTH 500 0
DWIDTH 12 0
BBX 12 24 0 -5
BITMAP
0600
0600
0600
0600
0600
0600
0600
0600
0600
FE00
FE00
0600
0600
FE00
FE00
0600
0600
0600
0600
0600
0600
0600
0600
0600
ENDCHAR
STARTCHAR BOX DRAWINGS VERTICAL DOUBLE AND LEFT SINGLE
ENCODING 9570
SWIDTH 500 0
DWIDTH 12 0
BBX 12 24 0 -5
BITMAP
1980
1980
1980
1980
1980
1980
1980
1980
1980
1980
1980
F980
F980
1980
1980
1980
1980
1980
1980
1980
1980
1980
1980
1980
ENDCHAR
STARTCHAR BOX DRAWINGS DOUBLE VERTICAL AND LEFT
ENCODING 9571
SWIDTH 500 0
DWIDTH 12 0
BBX 12 24 0 -5
BITMAP
1980
1980
1980
1980
1980
1980
1980
1980
1980
F980
F980
0180
0180
F980
F980
1980
1980
1980
1980
1980
1980
1980
1980
1980
ENDCHAR
STARTCHAR BOX DRAWINGS DOWN SINGLE AND HORIZONTAL DOUBLE
ENCODING 9572
SWIDTH 500 0
DWIDTH 12 0
BBX 12 24 0 -5
BITMAP
0000
0000
0000
0000
0000
0000
0000
0000
0000
FFF0
FFF0
0000
0000
FFF0
FFF0
0600
0600
0600
0600
0600
0600
0600
0600
0600
ENDCHAR
STARTCHAR BOX DRAWINGS DOWN DOUBLE AND HORIZONTAL SINGLE
ENCODING 9573
SWIDTH 500 0
DWIDTH 12 0
BBX 12 24 0 -5
BITMAP
0000
0000
0000
0000
0000
0000
0000
0000
0000
0000
0000
FFF0
FFF0
1980
1980
1980
1980
1980
1980
1980
1980
1980
1980
1980
ENDCHAR
STARTCHAR BOX DRAWINGS DOUBLE DOWN AND HORIZONTAL
ENCODING 9574
SWIDTH 500 0
DWIDTH 12 0
BBX 12 24 0 -5
BITMAP
0000
0000
0000
0000
0000
0000
0000
0000
0000
FFF0
FFF0
0000
0000
F9F0
F9F0
1980
1980
1980
1980
1980
1980
1980
1980
1980
ENDCHAR
STARTCHAR BOX DRAWINGS UP SINGLE AND HORIZONTAL DOUBLE
ENCODING 9575
SWIDTH 500 0
DWIDTH 12 0
BBX 12 24 0 -5
BITMAP
0600
0600
0600
0600
0600
0600
0600
0600
0600
FFF0
FFF0
0000
0000
FFF0
FFF0
0000
0000
0000
0000
0000
0000
0000
0000
0000
ENDCHAR
STARTCHAR BOX DRAWINGS UP DOUBLE AND HORIZONTAL SINGLE
ENCODING 9576
SWIDTH 500 0
DWIDTH 12 0
BBX 12 24 0 -5
BITMAP
1980
1980
1980
1980
1980
1980
1980
1980
1980
1980
1980
FFF0
FFF0
0000
0000
0000
0000
0000
0000
0000
0000
0000
0000
0000
ENDCHAR
STARTCHAR BOX DRAWINGS DOUBLE UP AND HORIZONTAL
ENCODING 9577
SWIDTH 500 0
DWIDTH 12 0
BBX 12 24 0 -5
BITMAP
1980
1980
1980
1980
1980
1980
1980
1980
1980
F9F0
F9F0
0000
0000
FFF0
FFF0
0000
0000
0000
0000
0000
0000
0000
0000
0000
ENDCHAR
STARTCHAR BOX DRAWINGS VERTICAL SINGLE AND HORIZONTAL DOUBLE
ENCODING 9578
SWIDTH 500 0
DWIDTH 12 0
BBX 12 24 0 -5
BITMAP
0600
0600
0600
0600
0600
0600
0600
0600
0600
FFF0
FFF0
0600
0600
FFF0
FFF0
0600
0600
0600
0600
0600
0600
0600
0600
0600
ENDCHAR
STARTCHAR BOX DRAWINGS VERTICAL DOUBLE AND HORIZONTAL SINGLE
ENCODING 9579
SWIDTH 500 0
DWIDTH 12 0
BBX 12 24 0 -5
BITMAP
1980
1980
1980
1980
1980
1980
1980
1980
1980
1980
1980
FFF0
FFF0
1980
1980
1980
1980
1980
1980
1980
1980
1980
1980
1980
ENDCHAR
STARTCHAR BOX DRAWINGS DOUBLE VERTICAL AND HORIZONTAL
ENCODING 9580
SWIDTH 500 0
DWIDTH 12 0
BBX 12 24 0 -5
BITMAP
1980
1980
1980
1980
1980
1980
1980
1980
1980
F9F0
F9F0
0000
0000
F9F0
F9F0
1980
1980
1980
1980
1980
1980
1980
1980
1980
ENDCHAR
STARTCHAR BOX DRAWINGS LIGHT ARC DOWN AND RIGHT
ENCODING 9581
SWIDTH 500 0
DWIDTH 12 0
BBX 12 24 0 -5
BITMAP
0000
0000
0000
0000
0000
0000
0000
0000
0000
0000
0000
01F0
03F0
0700
0600
0600
0600
0600
0600
0600
0600
0600
0600
0600
ENDCHAR
STARTCHAR BOX DRAWINGS LIGHT ARC DOWN AND LEFT
ENCODING 9582
SWIDTH 500 0
DWIDTH 12 0
BBX 12 24 0 -5
BITMAP
0000
0000
0000
0000
0000
0000
0000
0000
0000
0000
0000
F800
FC00
0E00
0600
0600
0600
0600
0600
0600
0600
0600
0600
0600
ENDCHAR
STARTCHAR BOX DRAWINGS LIGHT ARC UP AND LEFT
ENCODING 9583
SWIDTH 500 0
DWIDTH 12 0
BBX 12 24 0 -5
BITMAP
0600
0600
0600
0600
0600
0600
0600
0600
0600
0600
0E00
FC00
F800
0000
0000
0000
0000
0000
0000
0000
0000
0000
0000
0000
ENDCHAR
STARTCHAR BOX DRAWINGS LIGHT ARC UP AND RIGHT
ENCODING 9584
SWIDTH 500 0
DWIDTH 12 0
BBX 12 24 0 -5
BITMAP
0600
0600
0600
0600
0600
0600
0600
0600
0600
0600
0700
03F0
01F0
0000
0000
0000
0000
0000
0000
0000
0000
0000
0000
0000
ENDCHAR
STARTCHAR BOX DRAWINGS LIGHT DIAGONAL UPPER RIGHT TO LOWER LEFT
ENCODING 9585
SWIDTH 500 0
DWIDTH 12 0
BBX 12 24 0 -5
BITMAP
0010
0030
0030
0060
0060
00C0
00C0
0180
0180
0300
0300
0600
0600
0C00
0C00
1800
1800
3000
3000
6000
6000
C000
C000
8000
ENDCHAR
STARTCHAR BOX DRAWINGS LIGHT DIAGONAL UPPER LEFT TO LOWER RIGHT
ENCODING 9586
SWIDTH 500 0
DWIDTH 12 0
BBX 12 24 0 -5
BITMAP
8000
C000
C000
6000
6000
3000
3000
1800
1800
0C00
0C00
0600
0600
0300
0300
0180
0180
00C0
00C0
0060
0060
0030
0030
0010
ENDCHAR
STARTCHAR BOX DRAWINGS LIGHT DIAGONAL CROSS
ENCODING 9587
SWIDTH 500 0
DWIDTH 12 0
BBX 12 24 0 -5
BITMAP
8010
C030
C030
6060
6060
30C0
30C0
1980
1980
0F00
0F00
0600
0600
0F00
0F00
1980
1980
30C0
30C0
6060
6060
C030
C030
8010
ENDCHAR
STARTCHAR BOX DRAWINGS LIGHT LEFT
ENCODING 9588
SWIDTH 500 0
DWIDTH 12 0
BBX 12 24 0 -5
BITMAP
0000
0000
0000
0000
0000
0000
0000
0000
0000
0000
0000
FC00
FC00
0000
0000
0000
0000
0000
0000
0000
0000
0000
0000
0000
ENDCHAR
STARTCHAR BOX DRAWINGS LIGHT UP
ENCODING 9589
SWIDTH 500 0
DWIDTH 12 0
BBX 12 24 0 -5
BITMAP
0600
0600
0600
0600
0600
0600
0600
0600
0600
0600
0600
0600
0000
0000
0000
0000
0000
0000
0000
0000
0000
0000
0000
0000
ENDCHAR
STARTCHAR BOX DRAWINGS LIGHT RIGHT
ENCODING 9590
SWIDTH 500 0
DWIDTH 12 0
BBX 12 24 0 -5
BITMAP
0000
0000
0000
0000
0000
0000
0000
0000
0000
0000
0000
03F0
03F0
0000
0000
0000
0000
0000
0000
0000
0000
0000
0000
0000
ENDCHAR
STARTCHAR BOX DRAWINGS LIGHT DOWN
ENCODING 9591
SWIDTH 500 0
DWIDTH 12 0
BBX 12 24 0 -5
BITMAP
0000
0000
0000
0000
0000
0000
0000
0000
0000
0000
0000
0000
0600
0600
0600
0600
0600
0600
0600
0600
0600
0600
0600
0600
ENDCHAR
STARTCHAR BOX DRAWINGS HEAVY LEFT
ENCODING 9592
SWIDTH 500 0
DWIDTH 12 0
BBX 12 24 0 -5
BITMAP
0000
0000
0000
0000
0000
0000
0000
0000
0000
0000
FC00
FC00
FC00
FC00
0000
0000
0000
0000
0000
0000
0000
0000
0000
0000
ENDCHAR
STARTCHAR BOX DRAWINGS HEAVY UP
ENCODING 9593
SWIDTH 500 0
DWIDTH 12 0
BBX 12 24 0 -5
BITMAP
0F00
0F00
0F00
0F00
0F00
0F00
0F00
0F00
0F00
0F00
0F00
0F00
0000
0000
0000
0000
0000
0000
0000
0000
0000
0000
0000
0000
ENDCHAR
STARTCHAR BOX DRAWINGS HEAVY RIGHT
ENCODING 9594
SWIDTH 500 0
DWIDTH 12 0
BBX 12 24 0 -5
BITMAP
0000
0000
0000
0000
0000
0000
0000
0000
0000
0000
03F0
03F0
03F0
03F0
0000
0000
0000
0000
0000
0000
0000
0000
0000
0000
ENDCHAR
STARTCHAR BOX DRAWINGS HEAVY DOWN
ENCODING 9595
SWIDTH 500 0
DWIDTH 12 0
BBX 12 24 0 -5
BITMAP
0000
0000
0000
0000
0000
0000
0000
0000
0000
0000
0000
0000
0F00
0F00
0F00
0F00
0F00
0F00
0F00
0F00
0F00
0F00
0F00
0F00
ENDCHAR
STARTCHAR BOX DRAWINGS LIGHT LEFT AND HEAVY RIGHT
ENCODING 9596
SWIDTH 500 0
DWIDTH 12 0
BBX 12 24 0 -5
BITMAP
0000
0000
0000
0000
0000
0000
0000
0000
0000
0000
03F0
FFF0
FFF0
03F0
0000
0000
0000
0000
0000
0000
0000
0000
0000
0000
ENDCHAR
STARTCHAR BOX DRAWINGS LIGHT UP AND HEAVY DOWN
ENCODING 9597
SWIDTH 500 0
DWIDTH 12 0
BBX 12 24 0 -5
BITMAP
0600
0600
0600
0600
0600
0600
0600
0600
0600
0600
0600
0600
0F00
0F00
0F00
0F00
0F00
0F00
0F00
0F00
0F00
0F00
0F00
0F00
ENDCHAR
STARTCHAR BOX DRAWINGS HEAVY LEFT AND LIGHT RIGHT
ENCODING 9598
SWIDTH 500 0
DWIDTH 12 0
BBX 12 24 0 -5
BITMAP
0000
0000
0000
0000
0000
0000
0000
0000
0000
0000
FC00
FFF0
FFF0
FC00
0000
0000
0000
0000
0000
0000
0000
0000
0000
0000
ENDCHAR
STARTCHAR BOX DRAWINGS HEAVY UP AND LIGHT DOWN
ENCODING 9599
SWIDTH 500 0
DWIDTH 12 0
BBX 12 24 0 -5
BITMAP
0F00
0F00
0F00
0F00
0F00
0F00
0F00
0F00
0F00
0F00
0F00
0F00
0600
0600
0600
0600
0600
0600
0600
0600
0600
0600
0600
0600
ENDCHAR
STARTCHAR UPPER HALF BLOCK
ENCODING 9600
SWIDTH 500 0
DWIDTH 12 0
BBX 12 24 0 -5
BITMAP
FFF0
FFF0
FFF0
FFF0
FFF0
FFF0
FFF0
FFF0
FFF0
FFF0
FFF0
FFF0
0000
0000
0000
0000
0000
0000
0000
0000
0000
0000
0000
0000
ENDCHAR
STARTCHAR LOWER ONE EIGHTH BLOCK
ENCODING 9601
SWIDTH 500 0
DWIDTH 12 0
BBX 12 24 0 -5
BITMAP
0000
0000
0000
0000
0000
0000
0000
0000
0000
0000
0000
0000
0000
0000
0000
0000
0000
0000
0000
0000
0000
FFF0
FFF0
FFF0
ENDCHAR
STARTCHAR LOWER ONE QUARTER BLOCK
ENCODING 9602
SWIDTH 500 0
DWIDTH 12 0
BBX 12 24 0 -5
BITMAP
0000
0000
0000
0000
0000
0000
0000
0000
0000
0000
0000
0000
0000
0000
0000
0000
0000
0000
FFF0
FFF0
FFF0
FFF0
FFF0
FFF0
ENDCHAR
STARTCHAR LOWER THREE EIGHTHS BLOCK
ENCODING 9603
SWIDTH 500 0
DWIDTH 12 0
BBX 12 24 0 -5
BITMAP
0000
0000
0000
0000
0000
0000
0000
0000
0000
0000
0000
0000
0000
0000
0000
FFF0
FFF0
FFF0
FFF0
FFF0
FFF0
FFF0
FFF0
FFF0
ENDCHAR
STARTCHAR LOWER HALF BLOCK
ENCODING 9604
SWIDTH 500 0
DWIDTH 12 0
BBX 12 24 0 -5
BITMAP
0000
0000
0000
0000
0000
0000
0000
0000
0000
0000
0000
0000
FFF0
FFF0
FFF0
FFF0
FFF0
FFF0
FFF0
FFF0
FFF0
FFF0
FFF0
FFF0
ENDCHAR
STARTCHAR LOWER FIVE EIGHTHS BLOCK
ENCODING 9605
SWIDTH 500 0
DWIDTH 12 0
BBX 12 24 0 -5
BITMAP
0000
0000
0000
0000
0000
0000
0000
0000
0000
FFF0
FFF0
FFF0
FFF0
FFF0
FFF0
FFF0
FFF0
FFF0
FFF0
FFF0
FFF0
FFF0
FFF0
FFF0
ENDCHAR
STARTCHAR LOWER THREE QUARTERS BLOCK
ENCODING 9606
SWIDTH 500 0
DWIDTH 12 0
BBX 12 24 0 -5
BITMAP
0000
0000
0000
0000
0000
0000
FFF0
FFF0
FFF0
FFF0
FFF0
FFF0
FFF0
FFF0
FFF0
FFF0
FFF0
FFF0
FFF0
FFF0
FFF0
FFF0
FFF0
FFF0
ENDCHAR
STARTCHAR LOWER SEVEN EIGHTHS BLOCK
ENCODING 9607
SWIDTH 500 0
DWIDTH 12 0
BBX 12 24 0 -5
BITMAP
0000
0000
0000
FFF0
FFF0
FFF0
FFF0
FFF0
FFF0
FFF0
FFF0
FFF0
FFF0
FFF0
FFF0
FFF0
FFF0
FFF0
FFF0
FFF0
FFF0
FFF0
FFF0
FFF0
ENDCHAR
STARTCHAR FULL BLOCK
ENCODING 9608
SWIDTH 500 0
DWIDTH 12 0
BBX 12 24 0 -5
BITMAP
FFF0
FFF0
FFF0
FFF0
FFF0
FFF0
FFF0
FFF0
FFF0
FFF0
FFF0
FFF0
FFF0
FFF0
FFF0
FFF0
FFF0
FFF0
FFF0
FFF0
FFF0
FFF0
FFF0
FFF0
ENDCHAR
STARTCHAR LEFT SEVEN EIGHTHS BLOCK
ENCODING 9609
SWIDTH 500 0
DWIDTH 12 0
BBX 12 24 0 -5
BITMAP
FFC0
FFC0
FFC0
FFC0
FFC0
FFC0
FFC0
FFC0
FFC0
FFC0
FFC0
FFC0
FFC0
FFC0
FFC0
FFC0
FFC0
FFC0
FFC0
FFC0
FFC0
FFC0
FFC0
FFC0
ENDCHAR
STARTCHAR LEFT THREE QUARTERS BLOCK
ENCODING 9610
SWIDTH 500 0
DWIDTH 12 0
BBX 12 24 0 -5
BITMAP
FF80
FF80
FF80
FF80
FF80
FF80
FF80
FF80
FF80
FF80
FF80
FF80
FF80
FF80
FF80
FF80
FF80
FF80
FF80
FF80
FF80
FF80
FF80
FF80
ENDCHAR
STARTCHAR LEFT FIVE EIGHTHS BLOCK
ENCODING 9611
SWIDTH 500 0
DWIDTH 12 0
BBX 12 24 0 -5
BITMAP
FE00
FE00
FE00
FE00
FE00
FE00
FE00
FE00
FE00
FE00
FE00
FE00
FE00
FE00
FE00
FE00
FE00
FE00
FE00
FE00
FE00
FE00
FE00
FE00
ENDCHAR
STARTCHAR LEFT HALF BLOCK
ENCODING 9612
SWIDTH 500 0
DWIDTH 12 0
BBX 12 24 0 -5
BITMAP
FC00
FC00
FC00
FC00
FC00
FC00
FC00
FC00
FC00
FC00
FC00
FC00
FC00
FC00
FC00
FC00
FC00
FC00
FC00
FC00
FC00
FC00
FC00
FC00
ENDCHAR
STARTCHAR LEFT THREE EIGHTHS BLOCK
ENCODING 9613
SWIDTH 500 0
DWIDTH 12 0
BBX 12 24 0 -5
BITMAP
F000
F000
F000
F000
F000
F000
F000
F000
F000
F000
F000
F000
F000
F000
F000
F000
F000
F000
F000
F000
F000
F000
F000
F000
ENDCHAR
STARTCHAR LEFT ONE QUARTER BLOCK
ENCODING 9614
SWIDTH 500 0
DWIDTH 12 0
BBX 12 24 0 -5
BITMAP
C000
C000
C000
C000
C000
C000
C000
C000
C000
C000
C000
C000
C000
C000
C000
C000
C000
C000
C000
C000
C000
C000
C000
C000
ENDCHAR
STARTCHAR LEFT ONE EIGHTH BLOCK
ENCODING 9615
SWIDTH 500 0
DWIDTH 12 0
BBX 12 24 0 -5
BITMAP
8000
8000
8000
8000
8000
8000
8000
8000
8000
8000
8000
8000
8000
8000
8000
8000
8000
8000
8000
8000
8000
8000
8000
8000
ENDCHAR
STARTCHAR RIGHT HALF BLOCK
ENCODING 9616
SWIDTH 500 0
DWIDTH 12 0
BBX 12 24 0 -5
BITMAP
03F0
03F0
03F0
03F0
03F0
03F0
03F0
03F0
03F0
03F0
03F0
03F0
03F0
03F0
03F0
03F0
03F0
03F0
03F0
03F0
03F0
03F0
03F0
03F0
ENDCHAR
STARTCHAR LIGHT SHADE
ENCODING 9617
SWIDTH 500 0
DWIDTH 12 0
BBX 12 24 0 -5
BITMAP
0C30
6DB0
6180
0C30
6DB0
6180
0C30
6DB0
6180
0C30
6DB0
6180
0C30
6DB0
6180
0C30
6DB0
6180
0C30
6DB0
6180
0C30
6DB0
6180
ENDCHAR
STARTCHAR MEDIUM SHADE
ENCODING 9618
SWIDTH 500 0
DWIDTH 12 0
BBX 12 24 0 -5
BITMAP
3330
3330
CCC0
CCC0
3330
3330
CCC0
CCC0
3330
3330
CCC0
CCC0
3330
3330
CCC0
CCC0
3330
3330
CCC0
CCC0
3330
3330
CCC0
CCC0
ENDCHAR
STARTCHAR DARK SHADE
ENCODING 9619
SWIDTH 500 0
DWIDTH 12 0
BBX 12 24 0 -5
BITMAP
E790
E790
3CF0
3CF0
E790
E790
3CF0
3CF0
E790
E790
3CF0
3CF0
E790
E790
3CF0
3CF0
E790
E790
3CF0
3CF0
E790
E790
3CF0
3CF0
ENDCHAR
STARTCHAR UPPER ONE EIGHTH BLOCK
ENCODING 9620
SWIDTH 500 0
DWIDTH 12 0
BBX 12 24 0 -5
BITMAP
FFF0
FFF0
FFF0
0000
0000
0000
0000
0000
0000
0000
0000
0000
0000
0000
0000
0000
0000
0000
0000
0000
0000
0000
0000
0000
ENDCHAR
STARTCHAR RIGHT ONE EIGHTH BLOCK
ENCODING 9621
SWIDTH 500 0
DWIDTH 12 0
BBX 12 24 0 -5
BITMAP
0010
0010
0010
0010
0010
0010
0010
0010
0010
0010
0010
0010
0010
0010
0010
0010
0010
0010
0010
0010
0010
0010
0010
0010
ENDCHAR
STARTCHAR QUADRANT LOWER LEFT
ENCODING 9622
SWIDTH 500 0
DWIDTH 12 0
BBX 12 24 0 -5
BITMAP
0000
0000
0000
0000
0000
0000
0000
0000
0000
0000
0000
0000
FC00
FC00
FC00
FC00
FC00
FC00
FC00
FC00
FC00
FC00
FC00
FC00
ENDCHAR
STARTCHAR QUADRANT LOWER RIGHT
ENCODING 9623
SWIDTH 500 0
DWIDTH 12 0
BBX 12 24 0 -5
BITMAP
0000
0000
0000
0000
0000
0000
0000
0000
0000
0000
0000
0000
03F0
03F0
03F0
03F0
03F0
03F0
03F0
03F0
03F0
03F0
03F0
03F0
ENDCHAR
STARTCHAR QUADRANT UPPER LEFT
ENCODING 9624
SWIDTH 500 0
DWIDTH 12 0
BBX 12 24 0 -5
BITMAP
FC00
FC00
FC00
FC00
FC00
FC00
FC00
FC00
FC00
FC00
FC00
FC00
0000
0000
0000
0000
0000
0000
0000
0000
0000
0000
0000
0000
ENDCHAR
STARTCHAR QUADRANT UPPER LEFT AND LOWER LEFT AND LOWER RIGHT
ENCODING 9625
SWIDTH 500 0
DWIDTH 12 0
BBX 12 24 0 -5
BITMAP
FC00
FC00
FC00
FC00
FC00
FC00
FC00
FC00
FC00
FC00
FC00
FC00
FFF0
FFF0
FFF0
FFF0
FFF0
FFF0
FFF0
FFF0
FFF0
FFF0
FFF0
FFF0
ENDCHAR
STARTCHAR QUADRANT UPPER LEFT AND LOWER RIGHT
ENCODING 9626
SWIDTH 500 0
DWIDTH 12 0
BBX 12 24 0 -5
BITMAP
FC00
FC00
FC00
FC00
FC00
FC00
FC00
FC00
FC00
FC00
FC00
FC00
03F0
03F0
03F0
03F0
03F0
03F0
03F0
03F0
03F0
03F0
03F0
03F0
ENDCHAR
STARTCHAR QUADRANT UPPER LEFT AND UPPER RIGHT AND LOWER LEFT
ENCODING 9627
SWIDTH 500 0
DWIDTH 12 0
BBX 12 24 0 -5
BITMAP
FFF0
FFF0
FFF0
FFF0
FFF0
FFF0
FFF0
FFF0
FFF0
FFF0
FFF0
FFF0
FC00
FC00
FC00
FC00
FC00
FC00
FC00
FC00
FC00
FC00
FC00
FC00
ENDCHAR
STARTCHAR QUADRANT UPPER LEFT AND UPPER RIGHT AND LOWER RIGHT
ENCODING 9628
SWIDTH 500 0
DWIDTH 12 0
BBX 12 24 0 -5
BITMAP
FFF0
FFF0
FFF0
FFF0
FFF0
FFF0
FFF0
FFF0
FFF0
FFF0
FFF0
FFF0
03F0
03F0
03F0
03F0
03F0
03F0
03F0
03F0
03F0
03F0
03F0
03F0
ENDCHAR
STARTCHAR QUADRANT UPPER RIGHT
ENCODING 9629
SWIDTH 500 0
DWIDTH 12 0
BBX 12 24 0 -5
BITMAP
03F0
03F0
03F0
03F0
03F0
03F0
03F0
03F0
03F0
03F0
03F0
03F0
0000
0000
0000
0000
0000
0000
0000
0000
0000
0000
0000
0000
ENDCHAR
STARTCHAR QUADRANT UPPER RIGHT AND LOWER LEFT
ENCODING 9630
SWIDTH 500 0
DWIDTH 12 0
BBX 12 24 0 -5
BITMAP
03F0
03F0
03F0
03F0
03F0
03F0
03F0
03F0
03F0
03F0
03F0
03F0
FC00
FC00
FC00
FC00
FC00
FC00
FC00
FC00
FC00
FC00
FC00
FC00
ENDCHAR
STARTCHAR QUADRANT UPPER RIGHT AND LOWER LEFT AND LOWER RIGHT
ENCODING 9631
SWIDTH 500 0
DWIDTH 12 0
BBX 12 24 0 -5
BITMAP
03F0
03F0
03F0
03F0
03F0
03F0
03F0
03F0
03F0
03F0
03F0
03F0
FFF0
FFF0
FFF0
FFF0
FFF0
FFF0
FFF0
FFF0
FFF0
FFF0
FFF0
FFF0
ENDCHAR
STARTCHAR BLACK DIAMOND
ENCODING 9670
SWIDTH 500 0
DWIDTH 12 0
BBX 12 24 0 -5
BITMAP
0000
0000
0000
0000
0000
0000
0000
0400
0E00
1F00
3F80
7FC0
FFE0
7FC0
3F80
1F00
0E00
0400
0000
0000
0000
0000
0000
0000
ENDCHAR
STARTCHAR LOZENGE
ENCODING 9674
SWIDTH 500 0
DWIDTH 12 0
BBX 12 24 0 -5
BITMAP
0000
0000
0000
0000
0000
0000
0000
0400
0E00
1B00
3180
60C0
C060
60C0
3180
1B00
0E00
0400
0000
0000
0000
0000
0000
0000
ENDCHAR
STARTCHAR WHITE CIRCLE
ENCODING 9675
SWIDTH 500 0
DWIDTH 12 0
BBX 12 24 0 -5
BITMAP
0000
0000
0000
0000
0000
0000
0000
0000
0F00
1980
30C0
30C0
30C0
30C0
1980
0F00
0000
0000
0000
0000
0000
0000
0000
0000
ENDCHAR
STARTCHAR BLACK CIRCLE
ENCODING 9679
SWIDTH 500 0
DWIDTH 12 0
BBX 12 24 0 -5
BITMAP
0000
0000
0000
0000
0000
0000
0000
0000
0F00
1F80
3FC0
3FC0
3FC0
3FC0
1F80
0F00
0000
0000
0000
0000
0000
0000
0000
0000
ENDCHAR
STARTCHAR INVERSE BULLET
ENCODING 9688
SWIDTH 500 0
DWIDTH 12 0
BBX 12 24 0 -5
BITMAP
FFF0
FFF0
FFF0
FFF0
FFF0
FFF0
FFF0
FFF0
FFF0
F0F0
E070
E070
E070
E070
F0F0
FFF0
FFF0
FFF0
FFF0
FFF0
FFF0
FFF0
FFF0
FFF0
ENDCHAR
STARTCHAR INVERSE WHITE CIRCLE
ENCODING 9689
SWIDTH 500 0
DWIDTH 12 0
BBX 12 24 0 -5
BITMAP
FFF0
FFF0
FFF0
FFF0
FFF0
FFF0
FFF0
FFF0
F0F0
E670
CF30
CF30
CF30
CF30
E670
F0F0
FFF0
FFF0
FFF0
FFF0
FFF0
FFF0
FFF0
FFF0
ENDCHAR
STARTCHAR BLACK LOWER RIGHT TRIANGLE
ENCODING 9698
SWIDTH 500 0
DWIDTH 12 0
BBX 12 24 0 -5
BITMAP
0000
0000
0000
0000
0000
0000
0000
0000
0000
0000
0000
0000
0010
0030
0070
00F0
01F0
03F0
07F0
0FF0
1FF0
3FF0
7FF0
FFF0
ENDCHAR
STARTCHAR BLACK LOWER LEFT TRIANGLE
ENCODING 9699
SWIDTH 500 0
DWIDTH 12 0
BBX 12 24 0 -5
BITMAP
0000
0000
0000
0000
0000
0000
0000
0000
0000
0000
0000
0000
8000
C000
E000
F000
F800
FC00
FE00
FF00
FF80
FFC0
FFE0
FFF0
ENDCHAR
STARTCHAR BLACK UPPER LEFT TRIANGLE
ENCODING 9700
SWIDTH 500 0
DWIDTH 12 0
BBX 12 24 0 -5
BITMAP
FFF0
FFE0
FFC0
FF80
FF00
FE00
FC00
F800
F000
E000
C000
8000
0000
0000
0000
0000
0000
0000
0000
0000
0000
0000
0000
0000
ENDCHAR
STARTCHAR BLACK UPPER RIGHT TRIANGLE
ENCODING 9701
SWIDTH 500 0
DWIDTH 12 0
BBX 12 24 0 -5
BITMAP
FFF0
7FF0
3FF0
1FF0
0FF0
07F0
03F0
01F0
00F0
0070
0030
0010
0000
0000
0000
0000
0000
0000
0000
0000
0000
0000
0000
0000
ENDCHAR
STARTCHAR TRIGRAM FOR HEAVEN
ENCODING 9776
SWIDTH 500 0
DWIDTH 12 0
BBX 12 24 0 -5
BITMAP
0000
0000
0000
0000
0000
0000
7FE0
7FE0
0000
0000
0000
7FE0
7FE0
0000
0000
0000
7FE0
7FE0
0000
0000
0000
0000
0000
0000
ENDCHAR
STARTCHAR TRIGRAM FOR LAKE
ENCODING 9777
SWIDTH 500 0
DWIDTH 12 0
BBX 12 24 0 -5
BITMAP
0000
0000
0000
0000
0000
0000
79E0
79E0
0000
0000
0000
7FE0
7FE0
0000
0000
0000
7FE0
7FE0
0000
0000
0000
0000
0000
0000
ENDCHAR
STARTCHAR TRIGRAM FOR FIRE
ENCODING 9778
SWIDTH 500 0
DWIDTH 12 0
BBX 12 24 0 -5
BITMAP
0000
0000
0000
0000
0000
0000
7FE0
7FE0
0000
0000
0000
79E0
79E0
0000
0000
0000
7FE0
7FE0
0000
0000
0000
0000
0000
0000
ENDCHAR
STARTCHAR TRIGRAM FOR THUNDER
ENCODING 9779
SWIDTH 500 0
DWIDTH 12 0
BBX 12 24 0 -5
BITMAP
0000
0000
0000
0000
0000
0000
79E0
79E0
0000
0000
0000
79E0
79E0
0000
0000
0000
7FE0
7FE0
0000
0000
0000
0000
0000
0000
ENDCHAR
STARTCHAR TRIGRAM FOR WIND
ENCODING 9780
SWIDTH 500 0
DWIDTH 12 0
BBX 12 24 0 -5
BITMAP
0000
0000
0000
0000
0000
0000
7FE0
7FE0
0000
0000
0000
7FE0
7FE0
0000
0000
0000
79E0
79E0
0000
0000
0000
0000
0000
0000
ENDCHAR
STARTCHAR TRIGRAM FOR WATER
ENCODING 9781
SWIDTH 500 0
DWIDTH 12 0
BBX 12 24 0 -5
BITMAP
0000
0000
0000
0000
0000
0000
79E0
79E0
0000
0000
0000
7FE0
7FE0
0000
0000
0000
79E0
79E0
0000
0000
0000
0000
0000
0000
ENDCHAR
STARTCHAR TRIGRAM FOR MOUNTAIN
ENCODING 9782
SWIDTH 500 0
DWIDTH 12 0
BBX 12 24 0 -5
BITMAP
0000
0000
0000
0000
0000
0000
7FE0
7FE0
0000
0000
0000
79E0
79E0
0000
0000
0000
79E0
79E0
0000
0000
0000
0000
0000
0000
ENDCHAR
STARTCHAR TRIGRAM FOR EARTH
ENCODING 9783
SWIDTH 500 0
DWIDTH 12 0
BBX 12 24 0 -5
BITMAP
0000
0000
0000
0000
0000
0000
79E0
79E0
0000
0000
0000
79E0
79E0
0000
0000
0000
79E0
79E0
0000
0000
0000
0000
0000
0000
ENDCHAR
STARTCHAR BLACK HEART SUIT
ENCODING 9829
SWIDTH 500 0
DWIDTH 12 0
BBX 12 24 0 -5
BITMAP
0000
0000
0000
0000
0000
0000
3180
7BC0
FFE0
FFE0
FFE0
FFE0
7FC0
7FC0
3F80
1F00
0E00
0400
0000
0000
0000
0000
0000
0000
ENDCHAR
STARTCHAR BLACK DIAMOND SUIT
ENCODING 9830
SWIDTH 500 0
DWIDTH 12 0
BBX 12 24 0 -5
BITMAP
0000
0000
0000
0000
0000
0000
0000
0400
0E00
1F00
3F80
7FC0
FFE0
7FC0
3F80
1F00
0E00
0400
0000
0000
0000
0000
0000
0000
ENDCHAR
STARTCHAR BRAILLE PATTERN BLANK
ENCODING 10240
SWIDTH 500 0
DWIDTH 12 0
BBX 12 24 0 -5
BITMAP
0000
0000
0000
0000
0000
0000
0000
0000
0000
0000
0000
0000
0000
0000
0000
0000
0000
0000
0000
0000
0000
0000
0000
0000
ENDCHAR
STARTCHAR BRAILLE PATTERN DOTS-1
ENCODING 10241
SWIDTH 500 0
DWIDTH 12 0
BBX 12 24 0 -5
BITMAP
0000
3000
7800
7800
3000
0000
0000
0000
0000
0000
0000
0000
0000
0000
0000
0000
0000
0000
0000
0000
0000
0000
0000
0000
ENDCHAR
STARTCHAR BRAILLE PATTERN DOTS-2
ENCODING 10242
SWIDTH 500 0
DWIDTH 12 0
BBX 12 24 0 -5
BITMAP
0000
0000
0000
0000
0000
0000
0000
3000
7800
7800
3000
0000
0000
0000
0000
0000
0000
0000
0000
0000
0000
0000
0000
0000
ENDCHAR
STARTCHAR BRAILLE PATTERN DOTS-12
ENCODING 10243
SWIDTH 500 0
DWIDTH 12 0
BBX 12 24 0 -5
BITMAP
0000
3000
7800
7800
3000
0000
0000
3000
7800
7800
3000
0000
0000
0000
0000
0000
0000
0000
0000
0000
0000
0000
0000
0000
ENDCHAR
STARTCHAR BRAILLE PATTERN DOTS-3
ENCODING 10244
SWIDTH 500 0
DWIDTH 12 0
BBX 12 24 0 -5
BITMAP
0000
0000
0000
0000
0000
0000
0000
0000
0000
0000
0000
0000
0000
3000
7800
7800
3000
0000
0000
0000
0000
0000
0000
0000
ENDCHAR
STARTCHAR BRAILLE PATTERN DOTS-13
ENCODING 10245
SWIDTH 500 0
DWIDTH 12 0
BBX 12 24 0 -5
BITMAP
0000
3000
7800
7800
3000
0000
0000
0000
0000
0000
0000
0000
0000
3000
7800
7800
3000
0000
0000
0000
0000
0000
0000
0000
ENDCHAR
STARTCHAR BRAILLE PATTERN DOTS-23
ENCODING 10246
SWIDTH 500 0
DWIDTH 12 0
BBX 12 24 0 -5
BITMAP
0000
0000
0000
0000
0000
0000
0000
3000
7800
7800
3000
0000
0000
3000
7800
7800
3000
0000
0000
0000
0000
0000
0000
0000
ENDCHAR
STARTCHAR BRAILLE PATTERN DOTS-123
ENCODING 10247
SWIDTH 500 0
DWIDTH 12 0
BBX 12 24 0 -5
BITMAP
0000
3000
7800
7800
3000
0000
0000
3000
7800
7800
3000
0000
0000
3000
7800
7800
3000
0000
0000
0000
0000
0000
0000
0000
ENDCHAR
STARTCHAR BRAILLE PATTERN DOTS-4
ENCODING 10248
SWIDTH 500 0
DWIDTH 12 0
BBX 12 24 0 -5
BITMAP
0000
00C0
01E0
01E0
00C0
0000
0000
0000
0000
0000
0000
0000
0000
0000
0000
0000
0000
0000
0000
0000
0000
0000
0000
0000
ENDCHAR
STARTCHAR BRAILLE PATTERN DOTS-14
ENCODING 10249
SWIDTH 500 0
DWIDTH 12 0
BBX 12 24 0 -5
BITMAP
0000
30C0
79E0
79E0
30C0
0000
0000
0000
0000
0000
0000
0000
0000
0000
0000
0000
0000
0000
0000
0000
0000
0000
0000
0000
ENDCHAR
STARTCHAR BRAILLE PATTERN DOTS-24
ENCODING 10250
SWIDTH 500 0
DWIDTH 12 0
BBX 12 24 0 -5
BITMAP
0000
00C0
01E0
01E0
00C0
0000
0000
3000
7800
7800
3000
0000
0000
0000
0000
0000
0000
0000
0000
0000
0000
0000
0000
0000
ENDCHAR
STARTCHAR BRAILLE PATTERN DOTS-124
ENCODING 10251
SWIDTH 500 0
DWIDTH 12 0
BBX 12 24 0 -5
BITMAP
0000
30C0
79E0
79E0
30C0
0000
0000
3000
7800
7800
3000
0000
0000
0000
0000
0000
0000
0000
0000
0000
0000
0000
0000
0000
ENDCHAR
STARTCHAR BRAILLE PATTERN DOTS-34
ENCODING 10252
SWIDTH 500 0
DWIDTH 12 0
BBX 12 24 0 -5
BITMAP
0000
00C0
01E0
01E0
00C0
0000
0000
0000
0000
0000
0000
0000
0000
3000
7800
7800
3000
0000
0000
0000
0000
0000
0000
0000
ENDCHAR
STARTCHAR BRAILLE PATTERN DOTS-134
ENCODING 10253
SWIDTH 500 0
DWIDTH 12 0
BBX 12 24 0 -5
BITMAP
0000
30C0
79E0
79E0
30C0
0000
0000
0000
0000
0000
0000
0000
0000
3000
7800
7800
3000
0000
0000
0000
0000
0000
0000
0000
ENDCHAR
STARTCHAR BRAILLE PATTERN DOTS-234
ENCODING 10254
SWIDTH 500 0
DWIDTH 12 0
BBX 12 24 0 -5
BITMAP
0000
00C0
01E0
01E0
00C0
0000
0000
3000
7800
7800
3000
0000
0000
3000
7800
7800
3000
0000
0000
0000
0000
0000
0000
0000
ENDCHAR
STARTCHAR BRAILLE PATTERN DOTS-1234
ENCODING 10255
SWIDTH 500 0
DWIDTH 12 0
BBX 12 24 0 -5
BITMAP
0000
30C0
79E0
79E0
30C0
0000
0000
3000
7800
7800
3000
0000
0000
3000
7800
7800
3000
0000
0000
0000
0000
0000
0000
0000
ENDCHAR
STARTCHAR BRAILLE PATTERN DOTS-5
ENCODING 10256
SWIDTH 500 0
DWIDTH 12 0
BBX 12 24 0 -5
BITMAP
0000
0000
0000
0000
0000
0000
0000
00C0
01E0
01E0
00C0
0000
0000
0000
0000
0000
0000
0000
0000
0000
0000
0000
0000
0000
ENDCHAR
STARTCHAR BRAILLE PATTERN DOTS-15
ENCODING 10257
SWIDTH 500 0
DWIDTH 12 0
BBX 12 24 0 -5
BITMAP
0000
3000
7800
7800
3000
0000
0000
00C0
01E0
01E0
00C0
0000
0000
0000
0000
0000
0000
0000
0000
0000
0000
0000
0000
0000
ENDCHAR
STARTCHAR BRAILLE PATTERN DOTS-25
ENCODING 10258
SWIDTH 500 0
DWIDTH 12 0
BBX 12 24 0 -5
BITMAP
0000
0000
0000
0000
0000
0000
0000
30C0
79E0
79E0
30C0
0000
0000
0000
0000
0000
0000
0000
0000
0000
0000
0000
0000
0000
ENDCHAR
STARTCHAR BRAILLE PATTERN DOTS-125
ENCODING 10259
SWIDTH 500 0
DWIDTH 12 0
BBX 12 24 0 -5
BITMAP
0000
3000
7800
7800
3000
0000
0000
30C0
79E0
79E0
30C0
0000
0000
0000
0000
0000
0000
0000
0000
0000
0000
0000
0000
0000
ENDCHAR
STARTCHAR BRAILLE PATTERN DOTS-35
ENCODING 10260
SWIDTH 500 0
DWIDTH 12 0
BBX 12 24 0 -5
BITMAP
0000
0000
0000
0000
0000
0000
0000
00C0
01E0
01E0
00C0
0000
0000
3000
7800
7800
3000
0000
0000
0000
0000
0000
0000
0000
ENDCHAR
STARTCHAR BRAILLE PATTERN DOTS-135
ENCODING 10261
SWIDTH 500 0
DWIDTH 12 0
BBX 12 24 0 -5
BITMAP
0000
3000
7800
7800
3000
0000
0000
00C0
01E0
01E0
00C0
0000
0000
3000
7800
7800
3000
0000
0000
0000
0000
0000
0000
0000
ENDCHAR
STARTCHAR BRAILLE PATTERN DOTS-235
ENCODING 10262
SWIDTH 500 0
DWIDTH 12 0
BBX 12 24 0 -5
BITMAP
0000
0000
0000
0000
0000
0000
0000
30C0
79E0
79E0
30C0
0000
0000
3000
7800
7800
3000
0000
0000
0000
0000
0000
0000
0000
ENDCHAR
STARTCHAR BRAILLE PATTERN DOTS-1235
ENCODING 10263
SWIDTH 500 0
DWIDTH 12 0
BBX 12 24 0 -5
BITMAP
0000
3000
7800
7800
3000
0000
0000
30C0
79E0
79E0
30C0
0000
0000
3000
7800
7800
3000
0000
0000
0000
0000
0000
0000
0000
ENDCHAR
STARTCHAR BRAILLE PATTERN DOTS-45
ENCODING 10264
SWIDTH 500 0
DWIDTH 12 0
BBX 12 24 0 -5
BITMAP
0000
00C0
01E0
01E0
00C0
0000
0000
00C0
01E0
01E0
00C0
0000
0000
0000
0000
0000
0000
0000
0000
0000
0000
0000
0000
0000
ENDCHAR
STARTCHAR BRAILLE PATTERN DOTS-145
ENCODING 10265
SWIDTH 500 0
DWIDTH 12 0
BBX 12 24 0 -5
BITMAP
0000
30C0
79E0
79E0
30C0
0000
0000
00C0
01E0
01E0
00C0
0000
0000
0000
0000
0000
0000
0000
0000
0000
0000
0000
0000
0000
ENDCHAR
STARTCHAR BRAILLE PATTERN DOTS-245
ENCODING 10266
SWIDTH 500 0
DWIDTH 12 0
BBX 12 24 0 -5
BITMAP
0000
00C0
01E0
01E0
00C0
0000
0000
30C0
79E0
79E0
30C0
0000
0000
0000
0000
0000
0000
0000
0000
0000
0000
0000
0000
0000
ENDCHAR
STARTCHAR BRAILLE PATTERN DOTS-1245
ENCODING 10267
SWIDTH 500 0
DWIDTH 12 0
BBX 12 24 0 -5
BITMAP
0000
30C0
79E0
79E0
30C0
0000
0000
30C0
79E0
79E0
30C0
0000
0000
0000
0000
0000
0000
0000
0000
0000
0000
0000
0000
0000
ENDCHAR
STARTCHAR BRAILLE PATTERN DOTS-345
ENCODING 10268
SWIDTH 500 0
DWIDTH 12 0
BBX 12 24 0 -5
BITMAP
0000
00C0
01E0
01E0
00C0
0000
0000
00C0
01E0
01E0
00C0
0000
0000
3000
7800
7800
3000
0000
0000
0000
0000
0000
0000
0000
ENDCHAR
STARTCHAR BRAILLE PATTERN DOTS-1345
ENCODING 10269
SWIDTH 500 0
DWIDTH 12 0
BBX 12 24 0 -5
BITMAP
0000
30C0
79E0
79E0
30C0
0000
0000
00C0
01E0
01E0
00C0
0000
0000
3000
7800
7800
3000
0000
0000
0000
0000
0000
0000
0000
ENDCHAR
STARTCHAR BRAILLE PATTERN DOTS-2345
ENCODING 10270
SWIDTH 500 0
DWIDTH 12 0
BBX 12 24 0 -5
BITMAP
0000
00C0
01E0
01E0
00C0
0000
0000
30C0
79E0
79E0
30C0
0000
0000
3000
7800
7800
3000
0000
0000
0000
0000
0000
0000
0000
ENDCHAR
STARTCHAR BRAILLE PATTERN DOTS-12345
ENCODING 10271
SWIDTH 500 0
DWIDTH 12 0
BBX 12 24 0 -5
BITMAP
0000
30C0
79E0
79E0
30C0
0000
0000
30C0
79E0
79E0
30C0
0000
0000
3000
7800
7800
3000
0000
0000
0000
0000
0000
0000
0000
ENDCHAR
STARTCHAR BRAILLE PATTERN DOTS-6
ENCODING 10272
SWIDTH 500 0
DWIDTH 12 0
BBX 12 24 0 -5
BITMAP
0000
0000
0000
0000
0000
0000
0000
0000
0000
0000
0000
0000
0000
00C0
01E0
01E0
00C0
0000
0000
0000
0000
0000
0000
0000
ENDCHAR
STARTCHAR BRAILLE PATTERN DOTS-16
ENCODING 10273
SWIDTH 500 0
DWIDTH 12 0
BBX 12 24 0 -5
BITMAP
0000
3000
7800
7800
3000
0000
0000
0000
0000
0000
0000
0000
0000
00C0
01E0
01E0
00C0
0000
0000
0000
0000
0000
0000
0000
ENDCHAR
STARTCHAR BRAILLE PATTERN DOTS-26
ENCODING 10274
SWIDTH 500 0
DWIDTH 12 0
BBX 12 24 0 -5
BITMAP
0000
0000
0000
0000
0000
0000
0000
3000
7800
7800
3000
0000
0000
00C0
01E0
01E0
00C0
0000
0000
0000
0000
0000
0000
0000
ENDCHAR
STARTCHAR BRAILLE PATTERN DOTS-126
ENCODING 10275
SWIDTH 500 0
DWIDTH 12 0
BBX 12 24 0 -5
BITMAP
0000
3000
7800
7800
3000
0000
0000
3000
7800
7800
3000
0000
0000
00C0
01E0
01E0
00C0
0000
0000
0000
0000
0000
0000
0000
ENDCHAR
STARTCHAR BRAILLE PATTERN DOTS-36
ENCODING 10276
SWIDTH 500 0
DWIDTH 12 0
BBX 12 24 0 -5
BITMAP
0000
0000
0000
0000
0000
0000
0000
0000
0000
0000
0000
0000
0000
30C0
79E0
79E0
30C0
0000
0000
0000
0000
0000
0000
0000
ENDCHAR
STARTCHAR BRAILLE PATTERN DOTS-136
ENCODING 10277
SWIDTH 500 0
DWIDTH 12 0
BBX 12 24 0 -5
BITMAP
0000
3000
7800
7800
3000
0000
0000
0000
0000
0000
0000
0000
0000
30C0
79E0
79E0
30C0
0000
0000
0000
0000
0000
0000
0000
ENDCHAR
STARTCHAR BRAILLE PATTERN DOTS-236
ENCODING 10278
SWIDTH 500 0
DWIDTH 12 0
BBX 12 24 0 -5
BITMAP
0000
0000
0000
0000
0000
0000
0000
3000
7800
7800
3000
0000
0000
30C0
79E0
79E0
30C0
0000
0000
0000
0000
0000
0000
0000
ENDCHAR
STARTCHAR BRAILLE PATTERN DOTS-1236
ENCODING 10279
SWIDTH 500 0
DWIDTH 12 0
BBX 12 24 0 -5
BITMAP
0000
3000
7800
7800
3000
0000
0000
3000
7800
7800
3000
0000
0000
30C0
79E0
79E0
30C0
0000
0000
0000
0000
0000
0000
0000
ENDCHAR
STARTCHAR BRAILLE PATTERN DOTS-46
ENCODING 10280
SWIDTH 500 0
DWIDTH 12 0
BBX 12 24 0 -5
BITMAP
0000
00C0
01E0
01E0
00C0
0000
0000
0000
0000
0000
0000
0000
0000
00C0
01E0
01E0
00C0
0000
0000
0000
0000
0000
0000
0000
ENDCHAR
STARTCHAR BRAILLE PATTERN DOTS-146
ENCODING 10281
SWIDTH 500 0
DWIDTH 12 0
BBX 12 24 0 -5
BITMAP
0000
30C0
79E0
79E0
30C0
0000
0000
0000
0000
0000
0000
0000
0000
00C0
01E0
01E0
00C0
0000
0000
0000
0000
0000
0000
0000
ENDCHAR
STARTCHAR BRAILLE PATTERN DOTS-246
ENCODING 10282
SWIDTH 500 0
DWIDTH 12 0
BBX 12 24 0 -5
BITMAP
0000
00C0
01E0
01E0
00C0
0000
0000
3000
7800
7800
3000
0000
0000
00C0
01E0
01E0
00C0
0000
0000
0000
0000
0000
0000
0000
ENDCHAR
STARTCHAR BRAILLE PATTERN DOTS-1246
ENCODING 10283
SWIDTH 500 0
DWIDTH 12 0
BBX 12 24 0 -5
BITMAP
0000
30C0
79E0
79E0
30C0
0000
0000
3000
7800
7800
3000
0000
0000
00C0
01E0
01E0
00C0
0000
0000
0000
0000
0000
0000
0000
ENDCHAR
STARTCHAR BRAILLE PATTERN DOTS-346
ENCODING 10284
SWIDTH 500 0
DWIDTH 12 0
BBX 12 24 0 -5
BITMAP
0000
00C0
01E0
01E0
00C0
0000
0000
0000
0000
0000
0000
0000
0000
30C0
79E0
79E0
30C0
0000
0000
0000
0000
0000
0000
0000
ENDCHAR
STARTCHAR BRAILLE PATTERN DOTS-1346
ENCODING 10285
SWIDTH 500 0
DWIDTH 12 0
BBX 12 24 0 -5
BITMAP
0000
30C0
79E0
79E0
30C0
0000
0000
0000
0000
0000
0000
0000
0000
30C0
79E0
79E0
30C0
0000
0000
0000
0000
0000
0000
0000
ENDCHAR
STARTCHAR BRAILLE PATTERN DOTS-2346
ENCODING 10286
SWIDTH 500 0
DWIDTH 12 0
BBX 12 24 0 -5
BITMAP
0000
00C0
01E0
01E0
00C0
0000
0000
3000
7800
7800
3000
0000
0000
30C0
79E0
79E0
30C0
0000
0000
0000
0000
0000
0000
0000
ENDCHAR
STARTCHAR BRAILLE PATTERN DOTS-12346
ENCODING 10287
SWIDTH 500 0
DWIDTH 12 0
BBX 12 24 0 -5
BITMAP
0000
30C0
79E0
79E0
30C0
0000
0000
3000
7800
7800
3000
0000
0000
30C0
79E0
79E0
30C0
0000
0000
0000
0000
0000
0000
0000
ENDCHAR
STARTCHAR BRAILLE PATTERN DOTS-56
ENCODING 10288
SWIDTH 500 0
DWIDTH 12 0
BBX 12 24 0 -5
BITMAP
0000
0000
0000
0000
0000
0000
0000
00C0
01E0
01E0
00C0
0000
0000
00C0
01E0
01E0
00C0
0000
0000
0000
0000
0000
0000
0000
ENDCHAR
STARTCHAR BRAILLE PATTERN DOTS-156
ENCODING 10289
SWIDTH 500 0
DWIDTH 12 0
BBX 12 24 0 -5
BITMAP
0000
3000
7800
7800
3000
0000
0000
00C0
01E0
01E0
00C0
0000
0000
00C0
01E0
01E0
00C0
0000
0000
0000
0000
0000
0000
0000
ENDCHAR
STARTCHAR BRAILLE PATTERN DOTS-256
ENCODING 10290
SWIDTH 500 0
DWIDTH 12 0
BBX 12 24 0 -5
BITMAP
0000
0000
0000
0000
0000
0000
0000
30C0
79E0
79E0
30C0
0000
0000
00C0
01E0
01E0
00C0
0000
0000
0000
0000
0000
0000
0000
ENDCHAR
STARTCHAR BRAILLE PATTERN DOTS-1256
ENCODING 10291
SWIDTH 500 0
DWIDTH 12 0
BBX 12 24 0 -5
BITMAP
0000
3000
7800
7800
3000
0000
0000
30C0
79E0
79E0
30C0
0000
0000
00C0
01E0
01E0
00C0
0000
0000
0000
0000
0000
0000
0000
ENDCHAR
STARTCHAR BRAILLE PATTERN DOTS-356
ENCODING 10292
SWIDTH 500 0
DWIDTH 12 0
BBX 12 24 0 -5
BITMAP
0000
0000
0000
0000
0000
0000
0000
00C0
01E0
01E0
00C0
0000
0000
30C0
79E0
79E0
30C0
0000
0000
0000
0000
0000
0000
0000
ENDCHAR
STARTCHAR BRAILLE PATTERN DOTS-1356
ENCODING 10293
SWIDTH 500 0
DWIDTH 12 0
BBX 12 24 0 -5
BITMAP
0000
3000
7800
7800
3000
0000
0000
00C0
01E0
01E0
00C0
0000
0000
30C0
79E0
79E0
30C0
0000
0000
0000
0000
0000
0000
0000
ENDCHAR
STARTCHAR BRAILLE PATTERN DOTS-2356
ENCODING 10294
SWIDTH 500 0
DWIDTH 12 0
BBX 12 24 0 -5
BITMAP
0000
0000
0000
0000
0000
0000
0000
30C0
79E0
79E0
30C0
0000
0000
30C0
79E0
79E0
30C0
0000
0000
0000
0000
0000
0000
0000
ENDCHAR
STARTCHAR BRAILLE PATTERN DOTS-12356
ENCODING 10295
SWIDTH 500 0
DWIDTH 12 0
BBX 12 24 0 -5
BITMAP
0000
3000
7800
7800
3000
0000
0000
30C0
79E0
79E0
30C0
0000
0000
30C0
79E0
79E0
30C0
0000
0000
0000
0000
0000
0000
0000
ENDCHAR
STARTCHAR BRAILLE PATTERN DOTS-456
ENCODING 10296
SWIDTH 500 0
DWIDTH 12 0
BBX 12 24 0 -5
BITMAP
0000
00C0
01E0
01E0
00C0
0000
0000
00C0
01E0
01E0
00C0
0000
0000
00C0
01E0
01E0
00C0
0000
0000
0000
0000
0000
0000
0000
ENDCHAR
STARTCHAR BRAILLE PATTERN DOTS-1456
ENCODING 10297
SWIDTH 500 0
DWIDTH 12 0
BBX 12 24 0 -5
BITMAP
0000
30C0
79E0
79E0
30C0
0000
0000
00C0
01E0
01E0
00C0
0000
0000
00C0
01E0
01E0
00C0
0000
0000
0000
0000
0000
0000
0000
ENDCHAR
STARTCHAR BRAILLE PATTERN DOTS-2456
ENCODING 10298
SWIDTH 500 0
DWIDTH 12 0
BBX 12 24 0 -5
BITMAP
0000
00C0
01E0
01E0
00C0
0000
0000
30C0
79E0
79E0
30C0
0000
0000
00C0
01E0
01E0
00C0
0000
0000
0000
0000
0000
0000
0000
ENDCHAR
STARTCHAR BRAILLE PATTERN DOTS-12456
ENCODING 10299
SWIDTH 500 0
DWIDTH 12 0
BBX 12 24 0 -5
BITMAP
0000
30C0
79E0
79E0
30C0
0000
0000
30C0
79E0
79E0
30C0
0000
0000
00C0
01E0
01E0
00C0
0000
0000
0000
0000
0000
0000
0000
ENDCHAR
STARTCHAR BRAILLE PATTERN DOTS-3456
ENCODING 10300
SWIDTH 500 0
DWIDTH 12 0
BBX 12 24 0 -5
BITMAP
0000
00C0
01E0
01E0
00C0
0000
0000
00C0
01E0
01E0
00C0
0000
0000
30C0
79E0
79E0
30C0
0000
0000
0000
0000
0000
0000
0000
ENDCHAR
STARTCHAR BRAILLE PATTERN DOTS-13456
ENCODING 10301
SWIDTH 500 0
DWIDTH 12 0
BBX 12 24 0 -5
BITMAP
0000
30C0
79E0
79E0
30C0
0000
0000
00C0
01E0
01E0
00C0
0000
0000
30C0
79E0
79E0
30C0
0000
0000
0000
0000
0000
0000
0000
ENDCHAR
STARTCHAR BRAILLE PATTERN DOTS-23456
ENCODING 10302
SWIDTH 500 0
DWIDTH 12 0
BBX 12 24 0 -5
BITMAP
0000
00C0
01E0
01E0
00C0
0000
0000
30C0
79E0
79E0
30C0
0000
0000
30C0
79E0
79E0
30C0
0000
0000
0000
0000
0000
0000
0000
ENDCHAR
STARTCHAR BRAILLE PATTERN DOTS-123456
ENCODING 10303
SWIDTH 500 0
DWIDTH 12 0
BBX 12 24 0 -5
BITMAP
0000
30C0
79E0
79E0
30C0
0000
0000
30C0
79E0
79E0
30C0
0000
0000
30C0
79E0
79E0
30C0
0000
0000
0000
0000
0000
0000
0000
ENDCHAR
STARTCHAR BRAILLE PATTERN DOTS-7
ENCODING 10304
SWIDTH 500 0
DWIDTH 12 0
BBX 12 24 0 -5
BITMAP
0000
0000
0000
0000
0000
0000
0000
0000
0000
0000
0000
0000
0000
0000
0000
0000
0000
0000
0000
3000
7800
7800
3000
0000
ENDCHAR
STARTCHAR BRAILLE PATTERN DOTS-17
ENCODING 10305
SWIDTH 500 0
DWIDTH 12 0
BBX 12 24 0 -5
BITMAP
0000
3000
7800
7800
3000
0000
0000
0000
0000
0000
0000
0000
0000
0000
0000
0000
0000
0000
0000
3000
7800
7800
3000
0000
ENDCHAR
STARTCHAR BRAILLE PATTERN DOTS-27
ENCODING 10306
SWIDTH 500 0
DWIDTH 12 0
BBX 12 24 0 -5
BITMAP
0000
0000
0000
0000
0000
0000
0000
3000
7800
7800
3000
0000
0000
0000
0000
0000
0000
0000
0000
3000
7800
7800
3000
0000
ENDCHAR
STARTCHAR BRAILLE PATTERN DOTS-127
ENCODING 10307
SWIDTH 500 0
DWIDTH 12 0
BBX 12 24 0 -5
BITMAP
0000
3000
7800
7800
3000
0000
0000
3000
7800
7800
3000
0000
0000
0000
0000
0000
0000
0000
0000
3000
7800
7800
3000
0000
ENDCHAR
STARTCHAR BRAILLE PATTERN DOTS-37
ENCODING 10308
SWIDTH 500 0
DWIDTH 12 0
BBX 12 24 0 -5
BITMAP
0000
0000
0000
0000
0000
0000
0000
0000
0000
0000
0000
0000
0000
3000
7800
7800
3000
0000
0000
3000
7800
7800
3000
0000
ENDCHAR
STARTCHAR BRAILLE PATTERN DOTS-137
ENCODING 10309
SWIDTH 500 0
DWIDTH 12 0
BBX 12 24 0 -5
BITMAP
0000
3000
7800
7800
3000
0000
0000
0000
0000
0000
0000
0000
0000
3000
7800
7800
3000
0000
0000
3000
7800
7800
3000
0000
ENDCHAR
STARTCHAR BRAILLE PATTERN DOTS-237
ENCODING 10310
SWIDTH 500 0
DWIDTH 12 0
BBX 12 24 0 -5
BITMAP
0000
0000
0000
0000
0000
0000
0000
3000
7800
7800
3000
0000
0000
3000
7800
7800
3000
0000
0000
3000
7800
7800
3000
0000
ENDCHAR
STARTCHAR BRAILLE PATTERN DOTS-1237
ENCODING 10311
SWIDTH 500 0
DWIDTH 12 0
BBX 12 24 0 -5
BITMAP
0000
3000
7800
7800
3000
0000
0000
3000
7800
7800
3000
0000
0000
3000
7800
7800
3000
0000
0000
3000
7800
7800
3000
0000
ENDCHAR
STARTCHAR BRAILLE PATTERN DOTS-47
ENCODING 10312
SWIDTH 500 0
DWIDTH 12 0
BBX 12 24 0 -5
BITMAP
0000
00C0
01E0
01E0
00C0
0000
0000
0000
0000
0000
0000
0000
0000
0000
0000
0000
0000
0000
0000
3000
7800
7800
3000
0000
ENDCHAR
STARTCHAR BRAILLE PATTERN DOTS-147
ENCODING 10313
SWIDTH 500 0
DWIDTH 12 0
BBX 12 24 0 -5
BITMAP
0000
30C0
79E0
79E0
30C0
0000
0000
0000
0000
0000
0000
0000
0000
0000
0000
0000
0000
0000
0000
3000
7800
7800
3000
0000
ENDCHAR
STARTCHAR BRAILLE PATTERN DOTS-247
ENCODING 10314
SWIDTH 500 0
DWIDTH 12 0
BBX 12 24 0 -5
BITMAP
0000
00C0
01E0
01E0
00C0
0000
0000
3000
7800
7800
3000
0000
0000
0000
0000
0000
0000
0000
0000
3000
7800
7800
3000
0000
ENDCHAR
STARTCHAR BRAILLE PATTERN DOTS-1247
ENCODING 10315
SWIDTH 500 0
DWIDTH 12 0
BBX 12 24 0 -5
BITMAP
0000
30C0
79E0
79E0
30C0
0000
0000
3000
7800
7800
3000
0000
0000
0000
0000
0000
0000
0000
0000
3000
7800
7800
3000
0000
ENDCHAR
STARTCHAR BRAILLE PATTERN DOTS-347
ENCODING 10316
SWIDTH 500 0
DWIDTH 12 0
BBX 12 24 0 -5
BITMAP
0000
00C0
01E0
01E0
00C0
0000
0000
0000
0000
0000
0000
0000
0000
3000
7800
7800
3000
0000
0000
3000
7800
7800
3000
0000
ENDCHAR
STARTCHAR BRAILLE PATTERN DOTS-1347
ENCODING 10317
SWIDTH 500 0
DWIDTH 12 0
BBX 12 24 0 -5
BITMAP
0000
30C0
79E0
79E0
30C0
0000
0000
0000
0000
0000
0000
0000
0000
3000
7800
7800
3000
0000
0000
3000
7800
7800
3000
0000
ENDCHAR
STARTCHAR BRAILLE PATTERN DOTS-2347
ENCODING 10318
SWIDTH 500 0
DWIDTH 12 0
BBX 12 24 0 -5
BITMAP
0000
00C0
01E0
01E0
00C0
0000
0000
3000
7800
7800
3000
0000
0000
3000
7800
7800
3000
0000
0000
3000
7800
7800
3000
0000
ENDCHAR
STARTCHAR BRAILLE PATTERN DOTS-12347
ENCODING 10319
SWIDTH 500 0
DWIDTH 12 0
BBX 12 24 0 -5
BITMAP
0000
30C0
79E0
79E0
30C0
0000
0000
3000
7800
7800
3000
0000
0000
3000
7800
7800
3000
0000
0000
3000
7800
7800
3000
0000
ENDCHAR
STARTCHAR BRAILLE PATTERN DOTS-57
ENCODING 10320
SWIDTH 500 0
DWIDTH 12 0
BBX 12 24 0 -5
BITMAP
0000
0000
0000
0000
0000
0000
0000
00C0
01E0
01E0
00C0
0000
0000
0000
0000
0000
0000
0000
0000
3000
7800
7800
3000
0000
ENDCHAR
STARTCHAR BRAILLE PATTERN DOTS-157
ENCODING 10321
SWIDTH 500 0
DWIDTH 12 0
BBX 12 24 0 -5
BITMAP
0000
3000
7800
7800
3000
0000
0000
00C0
01E0
01E0
00C0
0000
0000
0000
0000
0000
0000
0000
0000
3000
7800
7800
3000
0000
ENDCHAR
STARTCHAR BRAILLE PATTERN DOTS-257
ENCODING 10322
SWIDTH 500 0
DWIDTH 12 0
BBX 12 24 0 -5
BITMAP
0000
0000
0000
0000
0000
0000
0000
30C0
79E0
79E0
30C0
0000
0000
0000
0000
0000
0000
0000
0000
3000
7800
7800
3000
0000
ENDCHAR
STARTCHAR BRAILLE PATTERN DOTS-1257
ENCODING 10323
SWIDTH 500 0
DWIDTH 12 0
BBX 12 24 0 -5
BITMAP
0000
3000
7800
7800
3000
0000
0000
30C0
79E0
79E0
30C0
0000
0000
0000
0000
0000
0000
0000
0000
3000
7800
7800
3000
0000
ENDCHAR
STARTCHAR BRAILLE PATTERN DOTS-357
ENCODING 10324
SWIDTH 500 0
DWIDTH 12 0
BBX 12 24 0 -5
BITMAP
0000
0000
0000
0000
0000
0000
0000
00C0
01E0
01E0
00C0
0000
0000
3000
7800
7800
3000
0000
0000
3000
7800
7800
3000
0000
ENDCHAR
STARTCHAR BRAILLE PATTERN DOTS-1357
ENCODING 10325
SWIDTH 500 0
DWIDTH 12 0
BBX 12 24 0 -5
BITMAP
0000
3000
7800
7800
3000
0000
0000
00C0
01E0
01E0
00C0
0000
0000
3000
7800
7800
3000
0000
0000
3000
7800
7800
3000
0000
ENDCHAR
STARTCHAR BRAILLE PATTERN DOTS-2357
ENCODING 10326
SWIDTH 500 0
DWIDTH 12 0
BBX 12 24 0 -5
BITMAP
0000
0000
0000
0000
0000
0000
0000
30C0
79E0
79E0
30C0
0000
0000
3000
7800
7800
3000
0000
0000
3000
7800
7800
3000
0000
ENDCHAR
STARTCHAR BRAILLE PATTERN DOTS-12357
ENCODING 10327
SWIDTH 500 0
DWIDTH 12 0
BBX 12 24 0 -5
BITMAP
0000
3000
7800
7800
3000
0000
0000
30C0
79E0
79E0
30C0
0000
0000
3000
7800
7800
3000
0000
0000
3000
7800
7800
3000
0000
ENDCHAR
STARTCHAR BRAILLE PATTERN DOTS-457
ENCODING 10328
SWIDTH 500 0
DWIDTH 12 0
BBX 12 24 0 -5
BITMAP
0000
00C0
01E0
01E0
00C0
0000
0000
00C0
01E0
01E0
00C0
0000
0000
0000
0000
0000
0000
0000
0000
3000
7800
7800
3000
0000
ENDCHAR
STARTCHAR BRAILLE PATTERN DOTS-1457
ENCODING 10329
SWIDTH 500 0
DWIDTH 12 0
BBX 12 24 0 -5
BITMAP
0000
30C0
79E0
79E0
30C0
0000
0000
00C0
01E0
01E0
00C0
0000
0000
0000
0000
0000
0000
0000
0000
3000
7800
7800
3000
0000
ENDCHAR
STARTCHAR BRAILLE PATTERN DOTS-2457
ENCODING 10330
SWIDTH 500 0
DWIDTH 12 0
BBX 12 24 0 -5
BITMAP
0000
00C0
01E0
01E0
00C0
0000
0000
30C0
79E0
79E0
30C0
0000
0000
0000
0000
0000
0000
0000
0000
3000
7800
7800
3000
0000
ENDCHAR
STARTCHAR BRAILLE PATTERN DOTS-12457
ENCODING 10331
SWIDTH 500 0
DWIDTH 12 0
BBX 12 24 0 -5
BITMAP
0000
30C0
79E0
79E0
30C0
0000
0000
30C0
79E0
79E0
30C0
0000
0000
0000
0000
0000
0000
0000
0000
3000
7800
7800
3000
0000
ENDCHAR
STARTCHAR BRAILLE PATTERN DOTS-3457
ENCODING 10332
SWIDTH 500 0
DWIDTH 12 0
BBX 12 24 0 -5
BITMAP
0000
00C0
01E0
01E0
00C0
0000
0000
00C0
01E0
01E0
00C0
0000
0000
3000
7800
7800
3000
0000
0000
3000
7800
7800
3000
0000
ENDCHAR
STARTCHAR BRAILLE PATTERN DOTS-13457
ENCODING 10333
SWIDTH 500 0
DWIDTH 12 0
BBX 12 24 0 -5
BITMAP
0000
30C0
79E0
79E0
30C0
0000
0000
00C0
01E0
01E0
00C0
0000
0000
3000
7800
7800
3000
0000
0000
3000
7800
7800
3000
0000
ENDCHAR
STARTCHAR BRAILLE PATTERN DOTS-23457
ENCODING 10334
SWIDTH 500 0
DWIDTH 12 0
BBX 12 24 0 -5
BITMAP
0000
00C0
01E0
01E0
00C0
0000
0000
30C0
79E0
79E0
30C0
0000
0000
3000
7800
7800
3000
0000
0000
3000
7800
7800
3000
0000
ENDCHAR
STARTCHAR BRAILLE PATTERN DOTS-123457
ENCODING 10335
SWIDTH 500 0
DWIDTH 12 0
BBX 12 24 0 -5
BITMAP
0000
30C0
79E0
79E0
30C0
0000
0000
30C0
79E0
79E0
30C0
0000
0000
3000
7800
7800
3000
0000
0000
3000
7800
7800
3000
0000
ENDCHAR
STARTCHAR BRAILLE PATTERN DOTS-67
ENCODING 10336
SWIDTH 500 0
DWIDTH 12 0
BBX 12 24 0 -5
BITMAP
0000
0000
0000
0000
0000
0000
0000
0000
0000
0000
0000
0000
0000
00C0
01E0
01E0
00C0
0000
0000
3000
7800
7800
3000
0000
ENDCHAR
STARTCHAR BRAILLE PATTERN DOTS-167
ENCODING 10337
SWIDTH 500 0
DWIDTH 12 0
BBX 12 24 0 -5
BITMAP
0000
3000
7800
7800
3000
0000
0000
0000
0000
0000
0000
0000
0000
00C0
01E0
01E0
00C0
0000
0000
3000
7800
7800
3000
0000
ENDCHAR
STARTCHAR BRAILLE PATTERN DOTS-267
ENCODING 10338
SWIDTH 500 0
DWIDTH 12 0
BBX 12 24 0 -5
BITMAP
0000
0000
0000
0000
0000
0000
0000
3000
7800
7800
3000
0000
0000
00C0
01E0
01E0
00C0
0000
0000
3000
7800
7800
3000
0000
ENDCHAR
STARTCHAR BRAILLE PATTERN DOTS-1267
ENCODING 10339
SWIDTH 500 0
DWIDTH 12 0
BBX 12 24 0 -5
BITMAP
0000
3000
7800
7800
3000
0000
0000
3000
7800
7800
3000
0000
0000
00C0
01E0
01E0
00C0
0000
0000
3000
7800
7800
3000
0000
ENDCHAR
STARTCHAR BRAILLE PATTERN DOTS-367
ENCODING 10340
SWIDTH 500 0
DWIDTH 12 0
BBX 12 24 0 -5
BITMAP
0000
0000
0000
0000
0000
0000
0000
0000
0000
0000
0000
0000
0000
30C0
79E0
79E0
30C0
0000
0000
3000
7800
7800
3000
0000
ENDCHAR
STARTCHAR BRAILLE PATTERN DOTS-1367
ENCODING 10341
SWIDTH 500 0
DWIDTH 12 0
BBX 12 24 0 -5
BITMAP
0000
3000
7800
7800
3000
0000
0000
0000
0000
0000
0000
0000
0000
30C0
79E0
79E0
30C0
0000
0000
3000
7800
7800
3000
0000
ENDCHAR
STARTCHAR BRAILLE PATTERN DOTS-2367
ENCODING 10342
SWIDTH 500 0
DWIDTH 12 0
BBX 12 24 0 -5
BITMAP
0000
0000
0000
0000
0000
0000
0000
3000
7800
7800
3000
0000
0000
30C0
79E0
79E0
30C0
0000
0000
3000
7800
7800
3000
0000
ENDCHAR
STARTCHAR BRAILLE PATTERN DOTS-12367
ENCODING 10343
SWIDTH 500 0
DWIDTH 12 0
BBX 12 24 0 -5
BITMAP
0000
3000
7800
7800
3000
0000
0000
3000
7800
7800
3000
0000
0000
30C0
79E0
79E0
30C0
0000
0000
3000
7800
7800
3000
0000
ENDCHAR
STARTCHAR BRAILLE PATTERN DOTS-467
ENCODING 10344
SWIDTH 500 0
DWIDTH 12 0
BBX 12 24 0 -5
BITMAP
0000
00C0
01E0
01E0
00C0
0000
0000
0000
0000
0000
0000
0000
0000
00C0
01E0
01E0
00C0
0000
0000
3000
7800
7800
3000
0000
ENDCHAR
STARTCHAR BRAILLE PATTERN DOTS-1467
ENCODING 10345
SWIDTH 500 0
DWIDTH 12 0
BBX 12 24 0 -5
BITMAP
0000
30C0
79E0
79E0
30C0
0000
0000
0000
0000
0000
0000
0000
0000
00C0
01E0
01E0
00C0
0000
0000
3000
7800
7800
3000
0000
ENDCHAR
STARTCHAR BRAILLE PATTERN DOTS-2467
ENCODING 10346
SWIDTH 500 0
DWIDTH 12 0
BBX 12 24 0 -5
BITMAP
0000
00C0
01E0
01E0
00C0
0000
0000
3000
7800
7800
3000
0000
0000
00C0
01E0
01E0
00C0
0000
0000
3000
7800
7800
3000
0000
ENDCHAR
STARTCHAR BRAILLE PATTERN DOTS-12467
ENCODING 10347
SWIDTH 500 0
DWIDTH 12 0
BBX 12 24 0 -5
BITMAP
0000
30C0
79E0
79E0
30C0
0000
0000
3000
7800
7800
3000
0000
0000
00C0
01E0
01E0
00C0
0000
0000
3000
7800
7800
3000
0000
ENDCHAR
STARTCHAR BRAILLE PATTERN DOTS-3467
ENCODING 10348
SWIDTH 500 0
DWIDTH 12 0
BBX 12 24 0 -5
BITMAP
0000
00C0
01E0
01E0
00C0
0000
0000
0000
0000
0000
0000
0000
0000
30C0
79E0
79E0
30C0
0000
0000
3000
7800
7800
3000
0000
ENDCHAR
STARTCHAR BRAILLE PATTERN DOTS-13467
ENCODING 10349
SWIDTH 500 0
DWIDTH 12 0
BBX 12 24 0 -5
BITMAP
0000
30C0
79E0
79E0
30C0
0000
0000
0000
0000
0000
0000
0000
0000
30C0
79E0
79E0
30C0
0000
0000
3000
7800
7800
3000
0000
ENDCHAR
STARTCHAR BRAILLE PATTERN DOTS-23467
ENCODING 10350
SWIDTH 500 0
DWIDTH 12 0
BBX 12 24 0 -5
BITMAP
0000
00C0
01E0
01E0
00C0
0000
0000
3000
7800
7800
3000
0000
0000
30C0
79E0
79E0
30C0
0000
0000
3000
7800
7800
3000
0000
ENDCHAR
STARTCHAR BRAILLE PATTERN DOTS-123467
ENCODING 10351
SWIDTH 500 0
DWIDTH 12 0
BBX 12 24 0 -5
BITMAP
0000
30C0
79E0
79E0
30C0
0000
0000
3000
7800
7800
3000
0000
0000
30C0
79E0
79E0
30C0
0000
0000
3000
7800
7800
3000
0000
ENDCHAR
STARTCHAR BRAILLE PATTERN DOTS-567
ENCODING 10352
SWIDTH 500 0
DWIDTH 12 0
BBX 12 24 0 -5
BITMAP
0000
0000
0000
0000
0000
0000
0000
00C0
01E0
01E0
00C0
0000
0000
00C0
01E0
01E0
00C0
0000
0000
3000
7800
7800
3000
0000
ENDCHAR
STARTCHAR BRAILLE PATTERN DOTS-1567
ENCODING 10353
SWIDTH 500 0
DWIDTH 12 0
BBX 12 24 0 -5
BITMAP
0000
3000
7800
7800
3000
0000
0000
00C0
01E0
01E0
00C0
0000
0000
00C0
01E0
01E0
00C0
0000
0000
3000
7800
7800
3000
0000
ENDCHAR
STARTCHAR BRAILLE PATTERN DOTS-2567
ENCODING 10354
SWIDTH 500 0
DWIDTH 12 0
BBX 12 24 0 -5
BITMAP
0000
0000
0000
0000
0000
0000
0000
30C0
79E0
79E0
30C0
0000
0000
00C0
01E0
01E0
00C0
0000
0000
3000
7800
7800
3000
0000
ENDCHAR
STARTCHAR BRAILLE PATTERN DOTS-12567
ENCODING 10355
SWIDTH 500 0
DWIDTH 12 0
BBX 12 24 0 -5
BITMAP
0000
3000
7800
7800
3000
0000
0000
30C0
79E0
79E0
30C0
0000
0000
00C0
01E0
01E0
00C0
0000
0000
3000
7800
7800
3000
0000
ENDCHAR
STARTCHAR BRAILLE PATTERN DOTS-3567
ENCODING 10356
SWIDTH 500 0
DWIDTH 12 0
BBX 12 24 0 -5
BITMAP
0000
0000
0000
0000
0000
0000
0000
00C0
01E0
01E0
00C0
0000
0000
30C0
79E0
79E0
30C0
0000
0000
3000
7800
7800
3000
0000
ENDCHAR
STARTCHAR BRAILLE PATTERN DOTS-13567
ENCODING 10357
SWIDTH 500 0
DWIDTH 12 0
BBX 12 24 0 -5
BITMAP
0000
3000
7800
7800
3000
0000
0000
00C0
01E0
01E0
00C0
0000
0000
30C0
79E0
79E0
30C0
0000
0000
3000
7800
7800
3000
0000
ENDCHAR
STARTCHAR BRAILLE PATTERN DOTS-23567
ENCODING 10358
SWIDTH 500 0
DWIDTH 12 0
BBX 12 24 0 -5
BITMAP
0000
0000
0000
0000
0000
0000
0000
30C0
79E0
79E0
30C0
0000
0000
30C0
79E0
79E0
30C0
0000
0000
3000
7800
7800
3000
0000
ENDCHAR
STARTCHAR BRAILLE PATTERN DOTS-123567
ENCODING 10359
SWIDTH 500 0
DWIDTH 12 0
BBX 12 24 0 -5
BITMAP
0000
3000
7800
7800
3000
0000
0000
30C0
79E0
79E0
30C0
0000
0000
30C0
79E0
79E0
30C0
0000
0000
3000
7800
7800
3000
0000
ENDCHAR
STARTCHAR BRAILLE PATTERN DOTS-4567
ENCODING 10360
SWIDTH 500 0
DWIDTH 12 0
BBX 12 24 0 -5
BITMAP
0000
00C0
01E0
01E0
00C0
0000
0000
00C0
01E0
01E0
00C0
0000
0000
00C0
01E0
01E0
00C0
0000
0000
3000
7800
7800
3000
0000
ENDCHAR
STARTCHAR BRAILLE PATTERN DOTS-14567
ENCODING 10361
SWIDTH 500 0
DWIDTH 12 0
BBX 12 24 0 -5
BITMAP
0000
30C0
79E0
79E0
30C0
0000
0000
00C0
01E0
01E0
00C0
0000
0000
00C0
01E0
01E0
00C0
0000
0000
3000
7800
7800
3000
0000
ENDCHAR
STARTCHAR BRAILLE PATTERN DOTS-24567
ENCODING 10362
SWIDTH 500 0
DWIDTH 12 0
BBX 12 24 0 -5
BITMAP
0000
00C0
01E0
01E0
00C0
0000
0000
30C0
79E0
79E0
30C0
0000
0000
00C0
01E0
01E0
00C0
0000
0000
3000
7800
7800
3000
0000
ENDCHAR
STARTCHAR BRAILLE PATTERN DOTS-124567
ENCODING 10363
SWIDTH 500 0
DWIDTH 12 0
BBX 12 24 0 -5
BITMAP
0000
30C0
79E0
79E0
30C0
0000
0000
30C0
79E0
79E0
30C0
0000
0000
00C0
01E0
01E0
00C0
0000
0000
3000
7800
7800
3000
0000
ENDCHAR
STARTCHAR BRAILLE PATTERN DOTS-34567
ENCODING 10364
SWIDTH 500 0
DWIDTH 12 0
BBX 12 24 0 -5
BITMAP
0000
00C0
01E0
01E0
00C0
0000
0000
00C0
01E0
01E0
00C0
0000
0000
30C0
79E0
79E0
30C0
0000
0000
3000
7800
7800
3000
0000
ENDCHAR
STARTCHAR BRAILLE PATTERN DOTS-134567
ENCODING 10365
SWIDTH 500 0
DWIDTH 12 0
BBX 12 24 0 -5
BITMAP
0000
30C0
79E0
79E0
30C0
0000
0000
00C0
01E0
01E0
00C0
0000
0000
30C0
79E0
79E0
30C0
0000
0000
3000
7800
7800
3000
0000
ENDCHAR
STARTCHAR BRAILLE PATTERN DOTS-234567
ENCODING 10366
SWIDTH 500 0
DWIDTH 12 0
BBX 12 24 0 -5
BITMAP
0000
00C0
01E0
01E0
00C0
0000
0000
30C0
79E0
79E0
30C0
0000
0000
30C0
79E0
79E0
30C0
0000
0000
3000
7800
7800
3000
0000
ENDCHAR
STARTCHAR BRAILLE PATTERN DOTS-1234567
ENCODING 10367
SWIDTH 500 0
DWIDTH 12 0
BBX 12 24 0 -5
BITMAP
0000
30C0
79E0
79E0
30C0
0000
0000
30C0
79E0
79E0
30C0
0000
0000
30C0
79E0
79E0
30C0
0000
0000
3000
7800
7800
3000
0000
ENDCHAR
STARTCHAR BRAILLE PATTERN DOTS-8
ENCODING 10368
SWIDTH 500 0
DWIDTH 12 0
BBX 12 24 0 -5
BITMAP
0000
0000
0000
0000
0000
0000
0000
0000
0000
0000
0000
0000
0000
0000
0000
0000
0000
0000
0000
00C0
01E0
01E0
00C0
0000
ENDCHAR
STARTCHAR BRAILLE PATTERN DOTS-18
ENCODING 10369
SWIDTH 500 0
DWIDTH 12 0
BBX 12 24 0 -5
BITMAP
0000
3000
7800
7800
3000
0000
0000
0000
0000
0000
0000
0000
0000
0000
0000
0000
0000
0000
0000
00C0
01E0
01E0
00C0
0000
ENDCHAR
STARTCHAR BRAILLE PATTERN DOTS-28
ENCODING 10370
SWIDTH 500 0
DWIDTH 12 0
BBX 12 24 0 -5
BITMAP
0000
0000
0000
0000
0000
0000
0000
3000
7800
7800
3000
0000
0000
0000
0000
0000
0000
0000
0000
00C0
01E0
01E0
00C0
0000
ENDCHAR
STARTCHAR BRAILLE PATTERN DOTS-128
ENCODING 10371
SWIDTH 500 0
DWIDTH 12 0
BBX 12 24 0 -5
BITMAP
0000
3000
7800
7800
3000
0000
0000
3000
7800
7800
3000
0000
0000
0000
0000
0000
0000
0000
0000
00C0
01E0
01E0
00C0
0000
ENDCHAR
STARTCHAR BRAILLE PATTERN DOTS-38
ENCODING 10372
SWIDTH 500 0
DWIDTH 12 0
BBX 12 24 0 -5
BITMAP
0000
0000
0000
0000
0000
0000
0000
0000
0000
0000
0000
0000
0000
3000
7800
7800
3000
0000
0000
00C0
01E0
01E0
00C0
0000
ENDCHAR
STARTCHAR BRAILLE PATTERN DOTS-138
ENCODING 10373
SWIDTH 500 0
DWIDTH 12 0
BBX 12 24 0 -5
BITMAP
0000
3000
7800
7800
3000
0000
0000
0000
0000
0000
0000
0000
0000
3000
7800
7800
3000
0000
0000
00C0
01E0
01E0
00C0
0000
ENDCHAR
STARTCHAR BRAILLE PATTERN DOTS-238
ENCODING 10374
SWIDTH 500 0
DWIDTH 12 0
BBX 12 24 0 -5
BITMAP
0000
0000
0000
0000
0000
0000
0000
3000
7800
7800
3000
0000
0000
3000
7800
7800
3000
0000
0000
00C0
01E0
01E0
00C0
0000
ENDCHAR
STARTCHAR BRAILLE PATTERN DOTS-1238
ENCODING 10375
SWIDTH 500 0
DWIDTH 12 0
BBX 12 24 0 -5
BITMAP
0000
3000
7800
7800
3000
0000
0000
3000
7800
7800
3000
0000
0000
3000
7800
7800
3000
0000
0000
00C0
01E0
01E0
00C0
0000
ENDCHAR
STARTCHAR BRAILLE PATTERN DOTS-48
ENCODING 10376
SWIDTH 500 0
DWIDTH 12 0
BBX 12 24 0 -5
BITMAP
0000
00C0
01E0
01E0
00C0
0000
0000
0000
0000
0000
0000
0000
0000
0000
0000
0000
0000
0000
0000
00C0
01E0
01E0
00C0
0000
ENDCHAR
STARTCHAR BRAILLE PATTERN DOTS-148
ENCODING 10377
SWIDTH 500 0
DWIDTH 12 0
BBX 12 24 0 -5
BITMAP
0000
30C0
79E0
79E0
30C0
0000
0000
0000
0000
0000
0000
0000
0000
0000
0000
0000
0000
0000
0000
00C0
01E0
01E0
00C0
0000
ENDCHAR
STARTCHAR BRAILLE PATTERN DOTS-248
ENCODING 10378
SWIDTH 500 0
DWIDTH 12 0
BBX 12 24 0 -5
BITMAP
0000
00C0
01E0
01E0
00C0
0000
0000
3000
7800
7800
3000
0000
0000
0000
0000
0000
0000
0000
0000
00C0
01E0
01E0
00C0
0000
ENDCHAR
STARTCHAR BRAILLE PATTERN DOTS-1248
ENCODING 10379
SWIDTH 500 0
DWIDTH 12 0
BBX 12 24 0 -5
BITMAP
0000
30C0
79E0
79E0
30C0
0000
0000
3000
7800
7800
3000
0000
0000
0000
0000
0000
0000
0000
0000
00C0
01E0
01E0
00C0
0000
ENDCHAR
STARTCHAR BRAILLE PATTERN DOTS-348
ENCODING 10380
SWIDTH 500 0
DWIDTH 12 0
BBX 12 24 0 -5
BITMAP
0000
00C0
01E0
01E0
00C0
0000
0000
0000
0000
0000
0000
0000
0000
3000
7800
7800
3000
0000
0000
00C0
01E0
01E0
00C0
0000
ENDCHAR
STARTCHAR BRAILLE PATTERN DOTS-1348
ENCODING 10381
SWIDTH 500 0
DWIDTH 12 0
BBX 12 24 0 -5
BITMAP
0000
30C0
79E0
79E0
30C0
0000
0000
0000
0000
0000
0000
0000
0000
3000
7800
7800
3000
0000
0000
00C0
01E0
01E0
00C0
0000
ENDCHAR
STARTCHAR BRAILLE PATTERN DOTS-2348
ENCODING 10382
SWIDTH 500 0
DWIDTH 12 0
BBX 12 24 0 -5
BITMAP
0000
00C0
01E0
01E0
00C0
0000
0000
3000
7800
7800
3000
0000
0000
3000
7800
7800
3000
0000
0000
00C0
01E0
01E0
00C0
0000
ENDCHAR
STARTCHAR BRAILLE PATTERN DOTS-12348
ENCODING 10383
SWIDTH 500 0
DWIDTH 12 0
BBX 12 24 0 -5
BITMAP
0000
30C0
79E0
79E0
30C0
0000
0000
3000
7800
7800
3000
0000
0000
3000
7800
7800
3000
0000
0000
00C0
01E0
01E0
00C0
0000
ENDCHAR
STARTCHAR BRAILLE PATTERN DOTS-58
ENCODING 10384
SWIDTH 500 0
DWIDTH 12 0
BBX 12 24 0 -5
BITMAP
0000
0000
0000
0000
0000
0000
0000
00C0
01E0
01E0
00C0
0000
0000
0000
0000
0000
0000
0000
0000
00C0
01E0
01E0
00C0
0000
ENDCHAR
STARTCHAR BRAILLE PATTERN DOTS-158
ENCODING 10385
SWIDTH 500 0
DWIDTH 12 0
BBX 12 24 0 -5
BITMAP
0000
3000
7800
7800
3000
0000
0000
00C0
01E0
01E0
00C0
0000
0000
0000
0000
0000
0000
0000
0000
00C0
01E0
01E0
00C0
0000
ENDCHAR
STARTCHAR BRAILLE PATTERN DOTS-258
ENCODING 10386
SWIDTH 500 0
DWIDTH 12 0
BBX 12 24 0 -5
BITMAP
0000
0000
0000
0000
0000
0000
0000
30C0
79E0
79E0
30C0
0000
0000
0000
0000
0000
0000
0000
0000
00C0
01E0
01E0
00C0
0000
ENDCHAR
STARTCHAR BRAILLE PATTERN DOTS-1258
ENCODING 10387
SWIDTH 500 0
DWIDTH 12 0
BBX 12 24 0 -5
BITMAP
0000
3000
7800
7800
3000
0000
0000
30C0
79E0
79E0
30C0
0000
0000
0000
0000
0000
0000
0000
0000
00C0
01E0
01E0
00C0
0000
ENDCHAR
STARTCHAR BRAILLE PATTERN DOTS-358
ENCODING 10388
SWIDTH 500 0
DWIDTH 12 0
BBX 12 24 0 -5
BITMAP
0000
0000
0000
0000
0000
0000
0000
00C0
01E0
01E0
00C0
0000
0000
3000
7800
7800
3000
0000
0000
00C0
01E0
01E0
00C0
0000
ENDCHAR
STARTCHAR BRAILLE PATTERN DOTS-1358
ENCODING 10389
SWIDTH 500 0
DWIDTH 12 0
BBX 12 24 0 -5
BITMAP
0000
3000
7800
7800
3000
0000
0000
00C0
01E0
01E0
00C0
0000
0000
3000
7800
7800
3000
0000
0000
00C0
01E0
01E0
00C0
0000
ENDCHAR
STARTCHAR BRAILLE PATTERN DOTS-2358
ENCODING 10390
SWIDTH 500 0
DWIDTH 12 0
BBX 12 24 0 -5
BITMAP
0000
0000
0000
0000
0000
0000
0000
30C0
79E0
79E0
30C0
0000
0000
3000
7800
7800
3000
0000
0000
00C0
01E0
01E0
00C0
0000
ENDCHAR
STARTCHAR BRAILLE PATTERN DOTS-12358
ENCODING 10391
SWIDTH 500 0
DWIDTH 12 0
BBX 12 24 0 -5
BITMAP
0000
3000
7800
7800
3000
0000
0000
30C0
79E0
79E0
30C0
0000
0000
3000
7800
7800
3000
0000
0000
00C0
01E0
01E0
00C0
0000
ENDCHAR
STARTCHAR BRAILLE PATTERN DOTS-458
ENCODING 10392
SWIDTH 500 0
DWIDTH 12 0
BBX 12 24 0 -5
BITMAP
0000
00C0
01E0
01E0
00C0
0000
0000
00C0
01E0
01E0
00C0
0000
0000
0000
0000
0000
0000
0000
0000
00C0
01E0
01E0
00C0
0000
ENDCHAR
STARTCHAR BRAILLE PATTERN DOTS-1458
ENCODING 10393
SWIDTH 500 0
DWIDTH 12 0
BBX 12 24 0 -5
BITMAP
0000
30C0
79E0
79E0
30C0
0000
0000
00C0
01E0
01E0
00C0
0000
0000
0000
0000
0000
0000
0000
0000
00C0
01E0
01E0
00C0
0000
ENDCHAR
STARTCHAR BRAILLE PATTERN DOTS-2458
ENCODING 10394
SWIDTH 500 0
DWIDTH 12 0
BBX 12 24 0 -5
BITMAP
0000
00C0
01E0
01E0
00C0
0000
0000
30C0
79E0
79E0
30C0
0000
0000
0000
0000
0000
0000
0000
0000
00C0
01E0
01E0
00C0
0000
ENDCHAR
STARTCHAR BRAILLE PATTERN DOTS-12458
ENCODING 10395
SWIDTH 500 0
DWIDTH 12 0
BBX 12 24 0 -5
BITMAP
0000
30C0
79E0
79E0
30C0
0000
0000
30C0
79E0
79E0
30C0
0000
0000
0000
0000
0000
0000
0000
0000
00C0
01E0
01E0
00C0
0000
ENDCHAR
STARTCHAR BRAILLE PATTERN DOTS-3458
ENCODING 10396
SWIDTH 500 0
DWIDTH 12 0
BBX 12 24 0 -5
BITMAP
0000
00C0
01E0
01E0
00C0
0000
0000
00C0
01E0
01E0
00C0
0000
0000
3000
7800
7800
3000
0000
0000
00C0
01E0
01E0
00C0
0000
ENDCHAR
STARTCHAR BRAILLE PATTERN DOTS-13458
ENCODING 10397
SWIDTH 500 0
DWIDTH 12 0
BBX 12 24 0 -5
BITMAP
0000
30C0
79E0
79E0
30C0
0000
0000
00C0
01E0
01E0
00C0
0000
0000
3000
7800
7800
3000
0000
0000
00C0
01E0
01E0
00C0
0000
ENDCHAR
STARTCHAR BRAILLE PATTERN DOTS-23458
ENCODING 10398
SWIDTH 500 0
DWIDTH 12 0
BBX 12 24 0 -5
BITMAP
0000
00C0
01E0
01E0
00C0
0000
0000
30C0
79E0
79E0
30C0
0000
0000
3000
7800
7800
3000
0000
0000
00C0
01E0
01E0
00C0
0000
ENDCHAR
STARTCHAR BRAILLE PATTERN DOTS-123458
ENCODING 10399
SWIDTH 500 0
DWIDTH 12 0
BBX 12 24 0 -5
BITMAP
0000
30C0
79E0
79E0
30C0
0000
0000
30C0
79E0
79E0
30C0
0000
0000
3000
7800
7800
3000
0000
0000
00C0
01E0
01E0
00C0
0000
ENDCHAR
STARTCHAR BRAILLE PATTERN DOTS-68
ENCODING 10400
SWIDTH 500 0
DWIDTH 12 0
BBX 12 24 0 -5
BITMAP
0000
0000
0000
0000
0000
0000
0000
0000
0000
0000
0000
0000
0000
00C0
01E0
01E0
00C0
0000
0000
00C0
01E0
01E0
00C0
0000
ENDCHAR
STARTCHAR BRAILLE PATTERN DOTS-168
ENCODING 10401
SWIDTH 500 0
DWIDTH 12 0
BBX 12 24 0 -5
BITMAP
0000
3000
7800
7800
3000
0000
0000
0000
0000
0000
0000
0000
0000
00C0
01E0
01E0
00C0
0000
0000
00C0
01E0
01E0
00C0
0000
ENDCHAR
STARTCHAR BRAILLE PATTERN DOTS-268
ENCODING 10402
SWIDTH 500 0
DWIDTH 12 0
BBX 12 24 0 -5
BITMAP
0000
0000
0000
0000
0000
0000
0000
3000
7800
7800
3000
0000
0000
00C0
01E0
01E0
00C0
0000
0000
00C0
01E0
01E0
00C0
0000
ENDCHAR
STARTCHAR BRAILLE PATTERN DOTS-1268
ENCODING 10403
SWIDTH 500 0
DWIDTH 12 0
BBX 12 24 0 -5
BITMAP
0000
3000
7800
7800
3000
0000
0000
3000
7800
7800
3000
0000
0000
00C0
01E0
01E0
00C0
0000
0000
00C0
01E0
01E0
00C0
0000
ENDCHAR
STARTCHAR BRAILLE PATTERN DOTS-368
ENCODING 10404
SWIDTH 500 0
DWIDTH 12 0
BBX 12 24 0 -5
BITMAP
0000
0000
0000
0000
0000
0000
0000
0000
0000
0000
0000
0000
0000
30C0
79E0
79E0
30C0
0000
0000
00C0
01E0
01E0
00C0
0000
ENDCHAR
STARTCHAR BRAILLE PATTERN DOTS-1368
ENCODING 10405
SWIDTH 500 0
DWIDTH 12 0
BBX 12 24 0 -5
BITMAP
0000
3000
7800
7800
3000
0000
0000
0000
0000
0000
0000
0000
0000
30C0
79E0
79E0
30C0
0000
0000
00C0
01E0
01E0
00C0
0000
ENDCHAR
STARTCHAR BRAILLE PATTERN DOTS-2368
ENCODING 10406
SWIDTH 500 0
DWIDTH 12 0
BBX 12 24 0 -5
BITMAP
0000
0000
0000
0000
0000
0000
0000
3000
7800
7800
3000
0000
0000
30C0
79E0
79E0
30C0
0000
0000
00C0
01E0
01E0
00C0
0000
ENDCHAR
STARTCHAR BRAILLE PATTERN DOTS-12368
ENCODING 10407
SWIDTH 500 0
DWIDTH 12 0
BBX 12 24 0 -5
BITMAP
0000
3000
7800
7800
3000
0000
0000
3000
7800
7800
3000
0000
0000
30C0
79E0
79E0
30C0
0000
0000
00C0
01E0
01E0
00C0
0000
ENDCHAR
STARTCHAR BRAILLE PATTERN DOTS-468
ENCODING 10408
SWIDTH 500 0
DWIDTH 12 0
BBX 12 24 0 -5
BITMAP
0000
00C0
01E0
01E0
00C0
0000
0000
0000
0000
0000
0000
0000
0000
00C0
01E0
01E0
00C0
0000
0000
00C0
01E0
01E0
00C0
0000
ENDCHAR
STARTCHAR BRAILLE PATTERN DOTS-1468
ENCODING 10409
SWIDTH 500 0
DWIDTH 12 0
BBX 12 24 0 -5
BITMAP
0000
30C0
79E0
79E0
30C0
0000
0000
0000
0000
0000
0000
0000
0000
00C0
01E0
01E0
00C0
0000
0000
00C0
01E0
01E0
00C0
0000
ENDCHAR
STARTCHAR BRAILLE PATTERN DOTS-2468
ENCODING 10410
SWIDTH 500 0
DWIDTH 12 0
BBX 12 24 0 -5
BITMAP
0000
00C0
01E0
01E0
00C0
0000
0000
3000
7800
7800
3000
0000
0000
00C0
01E0
01E0
00C0
0000
0000
00C0
01E0
01E0
00C0
0000
ENDCHAR
STARTCHAR BRAILLE PATTERN DOTS-12468
ENCODING 10411
SWIDTH 500 0
DWIDTH 12 0
BBX 12 24 0 -5
BITMAP
0000
30C0
79E0
79E0
30C0
0000
0000
3000
7800
7800
3000
0000
0000
00C0
01E0
01E0
00C0
0000
0000
00C0
01E0
01E0
00C0
0000
ENDCHAR
STARTCHAR BRAILLE PATTERN DOTS-3468
ENCODING 10412
SWIDTH 500 0
DWIDTH 12 0
BBX 12 24 0 -5
BITMAP
0000
00C0
01E0
01E0
00C0
0000
0000
0000
0000
0000
0000
0000
0000
30C0
79E0
79E0
30C0
0000
0000
00C0
01E0
01E0
00C0
0000
ENDCHAR
STARTCHAR BRAILLE PATTERN DOTS-13468
ENCODING 10413
SWIDTH 500 0
DWIDTH 12 0
BBX 12 24 0 -5
BITMAP
0000
30C0
79E0
79E0
30C0
0000
0000
0000
0000
0000
0000
0000
0000
30C0
79E0
79E0
30C0
0000
0000
00C0
01E0
01E0
00C0
0000
ENDCHAR
STARTCHAR BRAILLE PATTERN DOTS-23468
ENCODING 10414
SWIDTH 500 0
DWIDTH 12 0
BBX 12 24 0 -5
BITMAP
0000
00C0
01E0
01E0
00C0
0000
0000
3000
7800
7800
3000
0000
0000
30C0
79E0
79E0
30C0
0000
0000
00C0
01E0
01E0
00C0
0000
ENDCHAR
STARTCHAR BRAILLE PATTERN DOTS-123468
ENCODING 10415
SWIDTH 500 0
DWIDTH 12 0
BBX 12 24 0 -5
BITMAP
0000
30C0
79E0
79E0
30C0
0000
0000
3000
7800
7800
3000
0000
0000
30C0
79E0
79E0
30C0
0000
0000
00C0
01E0
01E0
00C0
0000
ENDCHAR
STARTCHAR BRAILLE PATTERN DOTS-568
ENCODING 10416
SWIDTH 500 0
DWIDTH 12 0
BBX 12 24 0 -5
BITMAP
0000
0000
0000
0000
0000
0000
0000
00C0
01E0
01E0
00C0
0000
0000
00C0
01E0
01E0
00C0
0000
0000
00C0
01E0
01E0
00C0
0000
ENDCHAR
STARTCHAR BRAILLE PATTERN DOTS-1568
ENCODING 10417
SWIDTH 500 0
DWIDTH 12 0
BBX 12 24 0 -5
BITMAP
0000
3000
7800
7800
3000
0000
0000
00C0
01E0
01E0
00C0
0000
0000
00C0
01E0
01E0
00C0
0000
0000
00C0
01E0
01E0
00C0
0000
ENDCHAR
STARTCHAR BRAILLE PATTERN DOTS-2568
ENCODING 10418
SWIDTH 500 0
DWIDTH 12 0
BBX 12 24 0 -5
BITMAP
0000
0000
0000
0000
0000
0000
0000
30C0
79E0
79E0
30C0
0000
0000
00C0
01E0
01E0
00C0
0000
0000
00C0
01E0
01E0
00C0
0000
ENDCHAR
STARTCHAR BRAILLE PATTERN DOTS-12568
ENCODING 10419
SWIDTH 500 0
DWIDTH 12 0
BBX 12 24 0 -5
BITMAP
0000
3000
7800
7800
3000
0000
0000
30C0
79E0
79E0
30C0
0000
0000
00C0
01E0
01E0
00C0
0000
0000
00C0
01E0
01E0
00C0
0000
ENDCHAR
STARTCHAR BRAILLE PATTERN DOTS-3568
ENCODING 10420
SWIDTH 500 0
DWIDTH 12 0
BBX 12 24 0 -5
BITMAP
0000
0000
0000
0000
0000
0000
0000
00C0
01E0
01E0
00C0
0000
0000
30C0
79E0
79E0
30C0
0000
0000
00C0
01E0
01E0
00C0
0000
ENDCHAR
STARTCHAR BRAILLE PATTERN DOTS-13568
ENCODING 10421
SWIDTH 500 0
DWIDTH 12 0
BBX 12 24 0 -5
BITMAP
0000
3000
7800
7800
3000
0000
0000
00C0
01E0
01E0
00C0
0000
0000
30C0
79E0
79E0
30C0
0000
0000
00C0
01E0
01E0
00C0
0000
ENDCHAR
STARTCHAR BRAILLE PATTERN DOTS-23568
ENCODING 10422
SWIDTH 500 0
DWIDTH 12 0
BBX 12 24 0 -5
BITMAP
0000
0000
0000
0000
0000
0000
0000
30C0
79E0
79E0
30C0
0000
0000
30C0
79E0
79E0
30C0
0000
0000
00C0
01E0
01E0
00C0
0000
ENDCHAR
STARTCHAR BRAILLE PATTERN DOTS-123568
ENCODING 10423
SWIDTH 500 0
DWIDTH 12 0
BBX 12 24 0 -5
BITMAP
0000
3000
7800
7800
3000
0000
0000
30C0
79E0
79E0
30C0
0000
0000
30C0
79E0
79E0
30C0
0000
0000
00C0
01E0
01E0
00C0
0000
ENDCHAR
STARTCHAR BRAILLE PATTERN DOTS-4568
ENCODING 10424
SWIDTH 500 0
DWIDTH 12 0
BBX 12 24 0 -5
BITMAP
0000
00C0
01E0
01E0
00C0
0000
0000
00C0
01E0
01E0
00C0
0000
0000
00C0
01E0
01E0
00C0
0000
0000
00C0
01E0
01E0
00C0
0000
ENDCHAR
STARTCHAR BRAILLE PATTERN DOTS-14568
ENCODING 10425
SWIDTH 500 0
DWIDTH 12 0
BBX 12 24 0 -5
BITMAP
0000
30C0
79E0
79E0
30C0
0000
0000
00C0
01E0
01E0
00C0
0000
0000
00C0
01E0
01E0
00C0
0000
0000
00C0
01E0
01E0
00C0
0000
ENDCHAR
STARTCHAR BRAILLE PATTERN DOTS-24568
ENCODING 10426
SWIDTH 500 0
DWIDTH 12 0
BBX 12 24 0 -5
BITMAP
0000
00C0
01E0
01E0
00C0
0000
0000
30C0
79E0
79E0
30C0
0000
0000
00C0
01E0
01E0
00C0
0000
0000
00C0
01E0
01E0
00C0
0000
ENDCHAR
STARTCHAR BRAILLE PATTERN DOTS-124568
ENCODING 10427
SWIDTH 500 0
DWIDTH 12 0
BBX 12 24 0 -5
BITMAP
0000
30C0
79E0
79E0
30C0
0000
0000
30C0
79E0
79E0
30C0
0000
0000
00C0
01E0
01E0
00C0
0000
0000
00C0
01E0
01E0
00C0
0000
ENDCHAR
STARTCHAR BRAILLE PATTERN DOTS-34568
ENCODING 10428
SWIDTH 500 0
DWIDTH 12 0
BBX 12 24 0 -5
BITMAP
0000
00C0
01E0
01E0
00C0
0000
0000
00C0
01E0
01E0
00C0
0000
0000
30C0
79E0
79E0
30C0
0000
0000
00C0
01E0
01E0
00C0
0000
ENDCHAR
STARTCHAR BRAILLE PATTERN DOTS-134568
ENCODING 10429
SWIDTH 500 0
DWIDTH 12 0
BBX 12 24 0 -5
BITMAP
0000
30C0
79E0
79E0
30C0
0000
0000
00C0
01E0
01E0
00C0
0000
0000
30C0
79E0
79E0
30C0
0000
0000
00C0
01E0
01E0
00C0
0000
ENDCHAR
STARTCHAR BRAILLE PATTERN DOTS-234568
ENCODING 10430
SWIDTH 500 0
DWIDTH 12 0
BBX 12 24 0 -5
BITMAP
0000
00C0
01E0
01E0
00C0
0000
0000
30C0
79E0
79E0
30C0
0000
0000
30C0
79E0
79E0
30C0
0000
0000
00C0
01E0
01E0
00C0
0000
ENDCHAR
STARTCHAR BRAILLE PATTERN DOTS-1234568
ENCODING 10431
SWIDTH 500 0
DWIDTH 12 0
BBX 12 24 0 -5
BITMAP
0000
30C0
79E0
79E0
30C0
0000
0000
30C0
79E0
79E0
30C0
0000
0000
30C0
79E0
79E0
30C0
0000
0000
00C0
01E0
01E0
00C0
0000
ENDCHAR
STARTCHAR BRAILLE PATTERN DOTS-78
ENCODING 10432
SWIDTH 500 0
DWIDTH 12 0
BBX 12 24 0 -5
BITMAP
0000
0000
0000
0000
0000
0000
0000
0000
0000
0000
0000
0000
0000
0000
0000
0000
0000
0000
0000
30C0
79E0
79E0
30C0
0000
ENDCHAR
STARTCHAR BRAILLE PATTERN DOTS-178
ENCODING 10433
SWIDTH 500 0
DWIDTH 12 0
BBX 12 24 0 -5
BITMAP
0000
3000
7800
7800
3000
0000
0000
0000
0000
0000
0000
0000
0000
0000
0000
0000
0000
0000
0000
30C0
79E0
79E0
30C0
0000
ENDCHAR
STARTCHAR BRAILLE PATTERN DOTS-278
ENCODING 10434
SWIDTH 500 0
DWIDTH 12 0
BBX 12 24 0 -5
BITMAP
0000
0000
0000
0000
0000
0000
0000
3000
7800
7800
3000
0000
0000
0000
0000
0000
0000
0000
0000
30C0
79E0
79E0
30C0
0000
ENDCHAR
STARTCHAR BRAILLE PATTERN DOTS-1278
ENCODING 10435
SWIDTH 500 0
DWIDTH 12 0
BBX 12 24 0 -5
BITMAP
0000
3000
7800
7800
3000
0000
0000
3000
7800
7800
3000
0000
0000
0000
0000
0000
0000
0000
0000
30C0
79E0
79E0
30C0
0000
ENDCHAR
STARTCHAR BRAILLE PATTERN DOTS-378
ENCODING 10436
SWIDTH 500 0
DWIDTH 12 0
BBX 12 24 0 -5
BITMAP
0000
0000
0000
0000
0000
0000
0000
0000
0000
0000
0000
0000
0000
3000
7800
7800
3000
0000
0000
30C0
79E0
79E0
30C0
0000
ENDCHAR
STARTCHAR BRAILLE PATTERN DOTS-1378
ENCODING 10437
SWIDTH 500 0
DWIDTH 12 0
BBX 12 24 0 -5
BITMAP
0000
3000
7800
7800
3000
0000
0000
0000
0000
0000
0000
0000
0000
3000
7800
7800
3000
0000
0000
30C0
79E0
79E0
30C0
0000
ENDCHAR
STARTCHAR BRAILLE PATTERN DOTS-2378
ENCODING 10438
SWIDTH 500 0
DWIDTH 12 0
BBX 12 24 0 -5
BITMAP
0000
0000
0000
0000
0000
0000
0000
3000
7800
7800
3000
0000
0000
3000
7800
7800
3000
0000
0000
30C0
79E0
79E0
30C0
0000
ENDCHAR
STARTCHAR BRAILLE PATTERN DOTS-12378
ENCODING 10439
SWIDTH 500 0
DWIDTH 12 0
BBX 12 24 0 -5
BITMAP
0000
3000
7800
7800
3000
0000
0000
3000
7800
7800
3000
0000
0000
3000
7800
7800
3000
0000
0000
30C0
79E0
79E0
30C0
0000
ENDCHAR
STARTCHAR BRAILLE PATTERN DOTS-478
ENCODING 10440
SWIDTH 500 0
DWIDTH 12 0
BBX 12 24 0 -5
BITMAP
0000
00C0
01E0
01E0
00C0
0000
0000
0000
0000
0000
0000
0000
0000
0000
0000
0000
0000
0000
0000
30C0
79E0
79E0
30C0
0000
ENDCHAR
STARTCHAR BRAILLE PATTERN DOTS-1478
ENCODING 10441
SWIDTH 500 0
DWIDTH 12 0
BBX 12 24 0 -5
BITMAP
0000
30C0
79E0
79E0
30C0
0000
0000
0000
0000
0000
0000
0000
0000
0000
0000
0000
0000
0000
0000
30C0
79E0
79E0
30C0
0000
ENDCHAR
STARTCHAR BRAILLE PATTERN DOTS-2478
ENCODING 10442
SWIDTH 500 0
DWIDTH 12 0
BBX 12 24 0 -5
BITMAP
0000
00C0
01E0
01E0
00C0
0000
0000
3000
7800
7800
3000
0000
0000
0000
0000
0000
0000
0000
0000
30C0
79E0
79E0
30C0
0000
ENDCHAR
STARTCHAR BRAILLE PATTERN DOTS-12478
ENCODING 10443
SWIDTH 500 0
DWIDTH 12 0
BBX 12 24 0 -5
BITMAP
0000
30C0
79E0
79E0
30C0
0000
0000
3000
7800
7800
3000
0000
0000
0000
0000
0000
0000
0000
0000
30C0
79E0
79E0
30C0
0000
ENDCHAR
STARTCHAR BRAILLE PATTERN DOTS-3478
ENCODING 10444
SWIDTH 500 0
DWIDTH 12 0
BBX 12 24 0 -5
BITMAP
0000
00C0
01E0
01E0
00C0
0000
0000
0000
0000
0000
0000
0000
0000
3000
7800
7800
3000
0000
0000
30C0
79E0
79E0
30C0
0000
ENDCHAR
STARTCHAR BRAILLE PATTERN DOTS-13478
ENCODING 10445
SWIDTH 500 0
DWIDTH 12 0
BBX 12 24 0 -5
BITMAP
0000
30C0
79E0
79E0
30C0
0000
0000
0000
0000
0000
0000
0000
0000
3000
7800
7800
3000
0000
0000
30C0
79E0
79E0
30C0
0000
ENDCHAR
STARTCHAR BRAILLE PATTERN DOTS-23478
ENCODING 10446
SWIDTH 500 0
DWIDTH 12 0
BBX 12 24 0 -5
BITMAP
0000
00C0
01E0
01E0
00C0
0000
0000
3000
7800
7800
3000
0000
0000
3000
7800
7800
3000
0000
0000
30C0
79E0
79E0
30C0
0000
ENDCHAR
STARTCHAR BRAILLE PATTERN DOTS-123478
ENCODING 10447
SWIDTH 500 0
DWIDTH 12 0
BBX 12 24 0 -5
BITMAP
0000
30C0
79E0
79E0
30C0
0000
0000
3000
7800
7800
3000
0000
0000
3000
7800
7800
3000
0000
0000
30C0
79E0
79E0
30C0
0000
ENDCHAR
STARTCHAR BRAILLE PATTERN DOTS-578
ENCODING 10448
SWIDTH 500 0
DWIDTH 12 0
BBX 12 24 0 -5
BITMAP
0000
0000
0000
0000
0000
0000
0000
00C0
01E0
01E0
00C0
0000
0000
0000
0000
0000
0000
0000
0000
30C0
79E0
79E0
30C0
0000
ENDCHAR
STARTCHAR BRAILLE PATTERN DOTS-1578
ENCODING 10449
SWIDTH 500 0
DWIDTH 12 0
BBX 12 24 0 -5
BITMAP
0000
3000
7800
7800
3000
0000
0000
00C0
01E0
01E0
00C0
0000
0000
0000
0000
0000
0000
0000
0000
30C0
79E0
79E0
30C0
0000
ENDCHAR
STARTCHAR BRAILLE PATTERN DOTS-2578
ENCODING 10450
SWIDTH 500 0
DWIDTH 12 0
BBX 12 24 0 -5
BITMAP
0000
0000
0000
0000
0000
0000
0000
30C0
79E0
79E0
30C0
0000
0000
0000
0000
0000
0000
0000
0000
30C0
79E0
79E0
30C0
0000
ENDCHAR
STARTCHAR BRAILLE PATTERN DOTS-12578
ENCODING 10451
SWIDTH 500 0
DWIDTH 12 0
BBX 12 24 0 -5
BITMAP
0000
3000
7800
7800
3000
0000
0000
30C0
79E0
79E0
30C0
0000
0000
0000
0000
0000
0000
0000
0000
30C0
79E0
79E0
30C0
0000
ENDCHAR
STARTCHAR BRAILLE PATTERN DOTS-3578
ENCODING 10452
SWIDTH 500 0
DWIDTH 12 0
BBX 12 24 0 -5
BITMAP
0000
0000
0000
0000
0000
0000
0000
00C0
01E0
01E0
00C0
0000
0000
3000
7800
7800
3000
0000
0000
30C0
79E0
79E0
30C0
0000
ENDCHAR
STARTCHAR BRAILLE PATTERN DOTS-13578
ENCODING 10453
SWIDTH 500 0
DWIDTH 12 0
BBX 12 24 0 -5
BITMAP
0000
3000
7800
7800
3000
0000
0000
00C0
01E0
01E0
00C0
0000
0000
3000
7800
7800
3000
0000
0000
30C0
79E0
79E0
30C0
0000
ENDCHAR
STARTCHAR BRAILLE PATTERN DOTS-23578
ENCODING 10454
SWIDTH 500 0
DWIDTH 12 0
BBX 12 24 0 -5
BITMAP
0000
0000
0000
0000
0000
0000
0000
30C0
79E0
79E0
30C0
0000
0000
3000
7800
7800
3000
0000
0000
30C0
79E0
79E0
30C0
0000
ENDCHAR
STARTCHAR BRAILLE PATTERN DOTS-123578
ENCODING 10455
SWIDTH 500 0
DWIDTH 12 0
BBX 12 24 0 -5
BITMAP
0000
3000
7800
7800
3000
0000
0000
30C0
79E0
79E0
30C0
0000
0000
3000
7800
7800
3000
0000
0000
30C0
79E0
79E0
30C0
0000
ENDCHAR
STARTCHAR BRAILLE PATTERN DOTS-4578
ENCODING 10456
SWIDTH 500 0
DWIDTH 12 0
BBX 12 24 0 -5
BITMAP
0000
00C0
01E0
01E0
00C0
0000
0000
00C0
01E0
01E0
00C0
0000
0000
0000
0000
0000
0000
0000
0000
30C0
79E0
79E0
30C0
0000
ENDCHAR
STARTCHAR BRAILLE PATTERN DOTS-14578
ENCODING 10457
SWIDTH 500 0
DWIDTH 12 0
BBX 12 24 0 -5
BITMAP
0000
30C0
79E0
79E0
30C0
0000
0000
00C0
01E0
01E0
00C0
0000
0000
0000
0000
0000
0000
0000
0000
30C0
79E0
79E0
30C0
0000
ENDCHAR
STARTCHAR BRAILLE PATTERN DOTS-24578
ENCODING 10458
SWIDTH 500 0
DWIDTH 12 0
BBX 12 24 0 -5
BITMAP
0000
00C0
01E0
01E0
00C0
0000
0000
30C0
79E0
79E0
30C0
0000
0000
0000
0000
0000
0000
0000
0000
30C0
79E0
79E0
30C0
0000
ENDCHAR
STARTCHAR BRAILLE PATTERN DOTS-124578
ENCODING 10459
SWIDTH 500 0
DWIDTH 12 0
BBX 12 24 0 -5
BITMAP
0000
30C0
79E0
79E0
30C0
0000
0000
30C0
79E0
79E0
30C0
0000
0000
0000
0000
0000
0000
0000
0000
30C0
79E0
79E0
30C0
0000
ENDCHAR
ENDFONT
